<svg xmlns="http://www.w3.org/2000/svg" width="20" height="20" viewBox="0 0 20 20">
  <g id="_1814113_add_more_plus_icon" data-name="1814113_add_more_plus_icon" transform="translate(-8.1 -8.1)">
    <g id="Icon-Plus" transform="translate(8.1 8.1)">
      <path id="Fill-38" d="M-9.9-249.9a10,10,0,0,1-10-10,10,10,0,0,1,10-10,10,10,0,0,1,10,10,10,10,0,0,1-10,10Zm0-18.912a8.946,8.946,0,0,0-8.912,8.912A8.946,8.946,0,0,0-9.9-250.988,8.946,8.946,0,0,0-.988-259.9,8.946,8.946,0,0,0-9.9-268.812Z" transform="translate(19.9 269.9)" fill="#fff"/>
      <path id="Fill-39" d="M-8.7-247.4H1.928v1.172H-8.7Z" transform="translate(13.386 256.814)" fill="#fff"/>
      <path id="Fill-40" d="M2.6-258.7H3.772v10.628H2.6Z" transform="translate(6.814 263.386)" fill="#fff"/>
    </g>
  </g>
</svg>
