<svg xmlns="http://www.w3.org/2000/svg" width="44.461" height="44.461" viewBox="0 0 44.461 44.461">
  <g id="_7351050_check_in_box_mark_icon" data-name="7351050_check_in_box_mark_icon" transform="translate(-1 -1)">
    <path id="Path_311" data-name="Path 311" d="M8,16.279l5.388,5.459L24.984,9" transform="translate(6.738 7.861)" fill="none" stroke="#333" stroke-linecap="round" stroke-width="2"/>
    <path id="Path_312" data-name="Path 312" d="M2.692,6.162A3.671,3.671,0,0,1,6.024,2.9,167.988,167.988,0,0,1,23.231,2a167.993,167.993,0,0,1,17.207.9,3.671,3.671,0,0,1,3.332,3.26,165.109,165.109,0,0,1,.692,17.069A165.11,165.11,0,0,1,43.769,40.3a3.671,3.671,0,0,1-3.332,3.26,168.039,168.039,0,0,1-17.207.9,168.042,168.042,0,0,1-17.207-.9A3.671,3.671,0,0,1,2.692,40.3,165.092,165.092,0,0,1,2,23.231,165.087,165.087,0,0,1,2.692,6.162Z" fill="none" stroke="#333" stroke-width="2"/>
  </g>
</svg>
