<svg xmlns="http://www.w3.org/2000/svg" width="42" height="42.461" viewBox="0 0 42 42.461">
  <g id="_3357491_circus_sale_shop_shopping_icon" data-name="3357491_circus_sale_shop_shopping_icon" transform="translate(-1.51 -1)">
    <path id="Path_313" data-name="Path 313" d="M40.613,28.394h-1.37V18.121h-.021a3.412,3.412,0,0,0,1.391-2.739v-2.9L36.242,3.739H35.134V1H11.849V3.739H10.74L6.37,12.481v2.9a3.412,3.412,0,0,0,1.391,2.739H7.739V28.394H6.37v13.7H5v1.37H41.982v-1.37h-1.37Zm-2.739,0H36.5V18.732a3.313,3.313,0,0,0,1.37,0ZM13.218,13.327h4.116l-.007,2.055a2.055,2.055,0,1,1-4.109,0Zm5.356-8.218-1.142,6.849H13.483l2.283-6.849Zm12.642,0L33.5,11.958H29.542L28.408,5.109ZM18.7,13.327h4.109v2.055a2.055,2.055,0,1,1-4.109,0Zm5.479,0h4.109v2.055a2.055,2.055,0,0,1-4.109,0Zm5.479,0h4.109v2.055a2.055,2.055,0,1,1-4.109,0ZM27.02,5.109l1.142,6.849H24.176V5.109Zm-4.214,6.849H18.82l1.142-6.849h2.844ZM12.533,17.435a3.421,3.421,0,0,0,5.479,0,3.421,3.421,0,0,0,5.479,0,3.421,3.421,0,0,0,5.479,0,3.421,3.421,0,0,0,5.479,0,3.431,3.431,0,0,0,.7.687h-.012V28.394H11.849V18.121h-.012A3.431,3.431,0,0,0,12.533,17.435Zm24.655,0a2.057,2.057,0,0,1-2.055-2.055V13.327h4.109v2.055A2.057,2.057,0,0,1,37.188,17.437Zm1.631-5.479H34.943L32.659,5.109H35.4ZM13.218,2.37H33.764v1.37H13.218ZM11.587,5.109h2.736L12.04,11.958H8.163ZM7.739,13.327h4.109v2.055a2.055,2.055,0,1,1-4.109,0Zm1.37,5.41a3.313,3.313,0,0,0,1.37,0v9.662H9.109ZM7.739,29.764h31.5V42.091h-1.37V31.134H33.764V32.5H36.5v9.588H10.479V32.5h2.739v-1.37H9.109V42.091H7.739Z" transform="translate(-1.212)" fill="#333"/>
    <rect id="Rectangle_199" data-name="Rectangle 199" width="17" height="1" transform="translate(13.51 31)" fill="#333"/>
    <rect id="Rectangle_200" data-name="Rectangle 200" width="2" height="1" transform="translate(41.51 42)" fill="#333"/>
    <rect id="Rectangle_201" data-name="Rectangle 201" width="1" height="1" transform="translate(1.51 42)" fill="#333"/>
  </g>
</svg>
