<svg id="Group_2550" data-name="Group 2550" xmlns="http://www.w3.org/2000/svg" xmlns:xlink="http://www.w3.org/1999/xlink" width="461.115" height="242.295" viewBox="0 0 461.115 242.295">
  <defs>
    <clipPath id="clip-path">
      <rect id="Rectangle_1053" data-name="Rectangle 1053" width="461.115" height="242.295" fill="none"/>
    </clipPath>
  </defs>
  <g id="Group_2549" data-name="Group 2549" clip-path="url(#clip-path)">
    <path id="Path_1297" data-name="Path 1297" d="M419.132,152.585c-.645-6.359-1.479-12.692-2.444-19s-2.063-12.589-3.348-18.83c-.643-3.12-3.495-15.532-4.243-18.626-1.5-6.188-3.079-12.352-4.65-18.532a1.067,1.067,0,0,1,2.041-.614c2.11,6.061,3.869,12.241,5.371,18.479.752,3.12,1.427,6.258,2.047,9.405s1.159,6.311,1.669,9.477c1.022,6.332,1.883,12.687,2.522,19.061s1.056,12.767,1.318,19.159a.142.142,0,0,1-.283.02" transform="translate(-211.413 -39.87)" fill="#cd9f52"/>
    <path id="Path_1298" data-name="Path 1298" d="M475.252,153.856c.23-4.178.593-8.357,1.137-12.52s1.266-8.3,2.124-12.419a116.258,116.258,0,0,1,3.1-12.232,101.583,101.583,0,0,1,4.529-11.779,1.068,1.068,0,0,1,1.985.777c-1.255,3.967-2.592,7.889-3.8,11.855s-2.5,7.908-3.605,11.912-2.068,8.051-2.933,12.125-1.644,8.176-2.255,12.309a.142.142,0,0,1-.283-.029" transform="translate(-248.444 -54.52)" fill="#cd9f52"/>
    <path id="Path_1299" data-name="Path 1299" d="M362.321,166.793a168.969,168.969,0,0,0-9.093-19.334c-1.719-3.108-3.6-6.115-5.395-9.164s-3.7-6.036-5.532-9.088a1.069,1.069,0,0,1,1.738-1.235,77.134,77.134,0,0,1,6.228,8.854,89.318,89.318,0,0,1,4.99,9.607,124.037,124.037,0,0,1,7.333,20.27.142.142,0,0,1-.27.089" transform="translate(-178.863 -66.698)" fill="#cd9f52"/>
    <path id="Path_1300" data-name="Path 1300" d="M503.239,169.827A119.139,119.139,0,0,1,517.923,139.4c1.577-2.355,3.208-4.679,4.957-6.916s3.583-4.407,5.51-6.494a93.632,93.632,0,0,1,12.593-11.43,1.067,1.067,0,0,1,1.358,1.643c-4.11,3.765-8.1,7.631-11.865,11.717a159.976,159.976,0,0,0-10.693,12.787,127.457,127.457,0,0,0-9.039,14.066,129.04,129.04,0,0,0-7.238,15.15.142.142,0,0,1-.268-.1" transform="translate(-263.072 -59.777)" fill="#cd9f52"/>
    <path id="Path_1301" data-name="Path 1301" d="M322.514,211.5a122.679,122.679,0,0,0-10.026-12.723A121.416,121.416,0,0,0,300.961,187.5a151.131,151.131,0,0,0-12.85-9.655c-4.424-3.023-9.035-5.752-13.736-8.362a1.067,1.067,0,0,1,.938-1.914,91.736,91.736,0,0,1,14.386,7.919,96.911,96.911,0,0,1,12.779,10.32,113.629,113.629,0,0,1,11.094,12.052,115.338,115.338,0,0,1,9.18,13.488.142.142,0,0,1-.24.152" transform="translate(-143.146 -87.555)" fill="#cd9f52"/>
    <path id="Path_1302" data-name="Path 1302" d="M598.655,65.063l-2.188,8.76,5.975,6.769-9.007.626-4.591,7.775-3.378-8.374-8.813-1.963,6.919-5.8-.856-8.988,7.655,4.788Z" transform="translate(-301.453 -33.387)" fill="#cd9f52"/>
    <path id="Path_1303" data-name="Path 1303" d="M390.471,30.906l-11.753-3.612-9.638,7.634-.2-12.294-10.239-6.807,11.631-3.986L373.585,0l7.386,9.83,12.284-.511-7.066,10.062Z" transform="translate(-187.486 0)" fill="#cd9f52"/>
    <path id="Path_1304" data-name="Path 1304" d="M222.352,126.136l9.093,2.462,7.183-6.1.469,9.409,8.017,4.948-8.8,3.354-2.229,9.153-5.91-7.337-9.394.709,5.151-7.887Z" transform="translate(-115.415 -64.04)" fill="#cd9f52"/>
    <path id="Path_1305" data-name="Path 1305" d="M591.37,174.977a5.871,5.871,0,1,1,5.871,5.871,5.871,5.871,0,0,1-5.871-5.871" transform="translate(-309.147 -88.403)" fill="#cd9f52"/>
    <path id="Path_1306" data-name="Path 1306" d="M283.023,226.222a4.088,4.088,0,1,1,4.088,4.088,4.087,4.087,0,0,1-4.088-4.088" transform="translate(-147.954 -116.124)" fill="#cd9f52"/>
    <path id="Path_1307" data-name="Path 1307" d="M0,368.921a5.871,5.871,0,1,1,5.871,5.871A5.871,5.871,0,0,1,0,368.921" transform="translate(0 -189.79)" fill="#cd9f52"/>
    <path id="Path_1308" data-name="Path 1308" d="M708.224,171.642a4.088,4.088,0,1,1,4.088,4.088,4.088,4.088,0,0,1-4.088-4.088" transform="translate(-370.234 -87.591)" fill="#cd9f52"/>
    <path id="Path_1309" data-name="Path 1309" d="M522.63,382.2a4.088,4.088,0,1,1,4.088,4.088,4.087,4.087,0,0,1-4.088-4.088" transform="translate(-273.212 -197.662)" fill="#cd9f52"/>
    <path id="Path_1310" data-name="Path 1310" d="M24.8,199.166a4.088,4.088,0,1,1,4.088,4.088,4.087,4.087,0,0,1-4.088-4.088" transform="translate(-12.964 -101.98)" fill="#cd9f52"/>
    <path id="Path_1311" data-name="Path 1311" d="M949.09,391.435a4.088,4.088,0,1,1,4.088,4.088,4.087,4.087,0,0,1-4.088-4.088" transform="translate(-496.15 -202.491)" fill="#cd9f52"/>
    <path id="Path_1312" data-name="Path 1312" d="M616.509,435.633a4.088,4.088,0,1,1,4.088,4.088,4.088,4.088,0,0,1-4.088-4.088" transform="translate(-322.289 -225.596)" fill="#cd9f52"/>
    <path id="Path_1313" data-name="Path 1313" d="M843.121,427.635a4.088,4.088,0,1,1,4.088,4.088,4.088,4.088,0,0,1-4.088-4.088" transform="translate(-440.753 -221.415)" fill="#cd9f52"/>
    <path id="Path_1314" data-name="Path 1314" d="M84.014,423.032a4.088,4.088,0,1,1,4.088,4.088,4.087,4.087,0,0,1-4.088-4.088" transform="translate(-43.92 -219.009)" fill="#cd9f52"/>
    <path id="Path_1315" data-name="Path 1315" d="M910.989,200.614a4.088,4.088,0,1,1,4.088,4.088,4.088,4.088,0,0,1-4.088-4.088" transform="translate(-476.232 -102.737)" fill="#cd9f52"/>
    <path id="Path_1316" data-name="Path 1316" d="M184.333,214.143a5.871,5.871,0,1,1,5.871,5.871,5.871,5.871,0,0,1-5.871-5.871" transform="translate(-96.363 -108.877)" fill="#cd9f52"/>
    <path id="Path_1317" data-name="Path 1317" d="M389.212,410.313a5.871,5.871,0,1,1,5.871,5.871,5.871,5.871,0,0,1-5.871-5.871" transform="translate(-203.466 -211.428)" fill="#cd9f52"/>
    <path id="Path_1318" data-name="Path 1318" d="M811.287,200.082l.408,7.14,6.113,3.711-6.664,2.595-1.641,6.961-4.527-5.536-7.127.591,3.866-6.017-2.764-6.6,6.917,1.818Z" transform="translate(-417.087 -104.596)" fill="#cd9f52"/>
    <path id="Path_1319" data-name="Path 1319" d="M186.1,390.746l.408,7.14,6.113,3.711-6.664,2.594-1.641,6.961-4.527-5.536-7.127.591,3.867-6.017-2.765-6.6,6.917,1.818Z" transform="translate(-90.26 -204.268)" fill="#cd9f52"/>
    <path id="Path_1320" data-name="Path 1320" d="M721.558,382.118l4.776,5.323,7.093-.916-3.587,6.187,3.063,6.462-6.993-1.5-5.2,4.91-.734-7.114-6.277-3.427,6.539-2.9Z" transform="translate(-373.096 -199.757)" fill="#cd9f52"/>
    <path id="Path_1321" data-name="Path 1321" d="M299.662,478.817a4.088,4.088,0,1,1,4.088,4.088,4.087,4.087,0,0,1-4.088-4.088" transform="translate(-156.653 -248.171)" fill="#cd9f52"/>
    <path id="Path_1322" data-name="Path 1322" d="M456.658,464.819l4.776,5.323,7.093-.916-3.587,6.187L468,481.875l-6.992-1.5-5.2,4.91-.734-7.114-6.277-3.427,6.539-2.9Z" transform="translate(-234.616 -242.991)" fill="#cd9f52"/>
    <path id="Path_1323" data-name="Path 1323" d="M943.95,332.8c-.769.352-2.567,1.174-2.762,2.979a3.457,3.457,0,0,0,1.754,3.3,4.055,4.055,0,0,0,2.924.169,4.184,4.184,0,0,0,2.7-1.372,4.013,4.013,0,0,0-.426-5.106c-1.438-1.222-3.434-.314-4.188.031" transform="translate(-492.01 -173.636)" fill="#0e436b"/>
    <path id="Path_1324" data-name="Path 1324" d="M949.644,229.66a5.934,5.934,0,0,0-4.732-.728,3.649,3.649,0,0,0-2.512,1.633,7.713,7.713,0,0,0-.235,2.767c-.009,1.043-.013,1.565.054,2.53.14,2.048,1.343,28.151,1.435,35.4.009.7.031,2.573,1.266,3.368a2.687,2.687,0,0,0,1.452.394,3.009,3.009,0,0,0,2.032-.748,3.212,3.212,0,0,0,.831-2.39c-.027-7.119.564-14.347,1.134-21.336.365-4.46.741-9.071.954-13.614l.011-.236c.125-2.615.265-5.578-1.691-7.036" transform="translate(-492.528 -119.58)" fill="#0e436b"/>
    <path id="Path_1325" data-name="Path 1325" d="M731.779,257.263a2.711,2.711,0,0,0,.941.163,3.721,3.721,0,0,0,2.356-.906c1.06-.94,1.135-2.281,1.223-3.836.136-2.431.266-4.728-1.309-5.665a4.1,4.1,0,0,0-4.779,1.137c-1.11,1.3-.93,2.933-.77,4.377.157,1.41.449,4.035,2.339,4.73" transform="translate(-381.263 -128.938)" fill="#0e436b"/>
    <path id="Path_1326" data-name="Path 1326" d="M461.278,272.271c-3.263-2.854-6.636-5.8-7.841-10.9a8.676,8.676,0,0,1,.283-5.775c1.443-3.2,5.419-5.675,7.6-4.724a6.591,6.591,0,0,1,3.511,3.167,1.037,1.037,0,0,0,1.325.5,1.165,1.165,0,0,0,.757-1.355c-.318-1.345-1.355-4.636-4.1-6.14-3.8-2.087-9.633-.807-13.279,2.911-3.675,3.746-3.529,9.3-3.514,10.311a11.754,11.754,0,0,0,.083,1.3,14.271,14.271,0,0,0,3.589,7.512c.228.267.481.53.726.794a20.762,20.762,0,0,1-7.886,6.832c-.907.405-1.373.486-1.777.31-1.445-.628-1.166-4.413-.706-10.682q.11-1.5.229-3.2c.806-11.763.495-15.119-1.511-16.323-1.4-.837-3.1-.349-4.222-.024-2.793.808-5.367,3.257-10.82,13.644.011-.3.011-.574.025-.88.018-.393.04-.824.064-1.285.3-5.854.426-11.14-1.314-11.544a7.357,7.357,0,0,0-1.766.058,5.767,5.767,0,0,0-2.529.531c-1.216.784-1.109,2.691-1.073,3.331.148,2.625.049,5.3-.046,7.893-.012.327-.012.667-.024,1a12.29,12.29,0,0,1-4.474,1.5c-1.121-7.855-5.2-13.834-9.958-14.574a9.576,9.576,0,0,0-7.331,1.638l-1.555,1.922c-4.221,1.258-7.476,4.876-8.94,9.939a21.128,21.128,0,0,0-.183,10.83,34.61,34.61,0,0,1-3.652,3.949c-2.784,2.526-3.649,2.479-3.847,2.4-.579-.235-1.163-1.25-1.051-7.133.064-3.386.309-5.767.591-8.525.094-.918.192-1.877.29-2.927.919-9.926.205-11.19-.747-11.74-1.4-.807-3.662,0-4.812,1.225a5.106,5.106,0,0,0-1.215,3.163c-.449,5.792-.583,10.873-.614,14.206a31.215,31.215,0,0,1-5.189,5.971c-1.86,1.636-5.308,4.69-7.215,3.721-1.479-.747-1.47-3.743-1.466-5.021.027-8.842.116-15.738.227-21.06.856-.045,1.667-.085,2.4-.122,6.278-.31,8.172-.4,9.032-2.033a3.4,3.4,0,0,0-.544-3.968c-.931-.725-2.273-.265-3.693.216-.193.065-.39.132-.589.2a51.318,51.318,0,0,1-6.5,1.565c.235-8.732.508-11.785.513-11.834.125-1.32.265-4.452-1.126-5.013-.479-.2-1.2.005-2.8.446a6.122,6.122,0,0,0-1.769.632c-1.337.938-1.315,3.038-1.307,3.752.027,2.284-.085,7.682-.225,12.975-1.472.151-2.677.233-3.387.239-.516,0-1.888.01-2.313.843a1.458,1.458,0,0,0,.01,1.182c.388.97,2.107,1.253,4.708,1.253.281,0,.585-.007.886-.013-.028,1.206-.472,11.513-.516,14.582-.02,1.409-.025,3.492.063,6.048-.8.643-1.61,1.285-2.433,1.9-4.468,3.33-5.569,3.49-6.034,3.26-1.168-.576-.977-3.354-.806-5.855.941-13.723,1.363-21.527-.886-22.343a6,6,0,0,0-2.65.152,4.187,4.187,0,0,0-2.063.862,2.637,2.637,0,0,0-.74,1.445,11.287,11.287,0,0,0-6.33-2.6c-.239-.017-.475-.025-.709-.025-5.231,0-8.742,3.971-9.929,5.314-4.048,4.579-5.876,11.95-4.658,18.778.042.236.1.456.15.685-5.17,5.616-7.241,6.354-8.058,5.9-.17-.094-.568-.315-.883-3.485a41.856,41.856,0,0,1-.007-8.229,61.144,61.144,0,0,0,10.066-21c2.673-10.452.718-15.153-.685-17.023a6.605,6.605,0,0,0-3.386-2.547c-3.086-.882-6.133,1.339-7.135,2.07-2.88,2.1-5.692,6.819-5.687,38.784,0,1.254,0,2.726.074,4.252a40.791,40.791,0,0,1-4.073,4.482c-.515.48-1.582,1.484-2.275,1.212-.877-.338-.882-2.636-.884-3.392-.005-2.131.148-5.435.311-8.931.273-5.87.583-12.523.219-15.464a2.584,2.584,0,0,0-.845-1.755,3,3,0,0,0-2.4-.389,4.634,4.634,0,0,0-3.11,2.055,4.122,4.122,0,0,0-.414,2.556c.1,1.044.063,5.87-.012,15.521-.009,1.08-.032,1.951-.048,2.457a23.461,23.461,0,0,1-4.606,4.861c-1.2.931-4.841,3.76-6.355,2.758-.808-.534-.752-2.683-.567-7.021.283-6.64.482-13.915.756-18.49.082-1.356.218-3.625-1.045-4.329-1.067-.587-2.654.213-3.464.9a5.6,5.6,0,0,0-1.759,3.3,89.4,89.4,0,0,0-1.015,12.952q-.038,1.213-.076,2.426a30.993,30.993,0,0,1-4.8,5.411c-1.859,1.636-5.315,4.688-7.216,3.721-1.478-.745-1.47-3.742-1.467-5.021.028-8.842.117-15.738.228-21.06.857-.045,1.667-.085,2.4-.122,6.279-.31,8.173-.4,9.033-2.033a3.4,3.4,0,0,0-.544-3.968c-.932-.725-2.272-.265-3.693.216-.193.065-.39.132-.589.2a51.426,51.426,0,0,1-6.505,1.565c.235-8.732.509-11.785.513-11.834.123-1.321.258-4.454-1.126-5.013-.477-.2-1.195.005-2.793.444a6.167,6.167,0,0,0-1.773.634c-1.341.94-1.315,3.042-1.307,3.752.026,2.287-.086,7.684-.226,12.975-1.472.151-2.676.234-3.386.239-.516,0-1.889.01-2.313.843a1.458,1.458,0,0,0,.01,1.182c.387.97,2.106,1.253,4.707,1.253.281,0,.585-.007.885-.013-.047,1.806-.27,8.384-.335,9.834-.108,2.38-.324,6.677-.116,10.8-.8.643-1.608,1.284-2.433,1.9-4.463,3.326-5.568,3.492-6.033,3.26-1.169-.577-.977-3.356-.807-5.855.943-13.723,1.365-21.525-.886-22.343a5.985,5.985,0,0,0-2.647.151,4.131,4.131,0,0,0-2.065.863,2.638,2.638,0,0,0-.74,1.444,11.288,11.288,0,0,0-6.328-2.6c-5.608-.374-9.4,3.886-10.64,5.29-4.047,4.58-5.876,11.95-4.657,18.778.07.39.16.761.249,1.134-4.025,4.754-5.447,5.214-5.947,4.948s-.37-1.826.028-7.012l.054-.717c.666-8.716.781-11.029-.667-11.827a2.313,2.313,0,0,0-1.852.014,14.434,14.434,0,0,1-2.816.482,16.961,16.961,0,0,1-4.36-.258c1.457-1.984,4.188-6.239,3.212-9.1a2.779,2.779,0,0,0-.465-.852c-1.5-1.868-5.457-1.818-7.845.094a6.446,6.446,0,0,0-1.928,2.749,9.161,9.161,0,0,0,.956,8.324,8.354,8.354,0,0,0,1.253,1.418c-2.444,3.148-4.836,6.258-7.1,9.25.283-5.324.626-11.645,1.025-19.025.041-.75.165-3.03-1.013-3.626a2.179,2.179,0,0,0-1.266-.067,4.751,4.751,0,0,0-3.182,1.26,2.989,2.989,0,0,0-.638,1.832,11.419,11.419,0,0,0-6.853-3.092c-5.648-.392-9.4,3.96-10.64,5.389-4.07,4.691-5.893,12.233-4.642,19.214.032.176.077.339.113.513a18.815,18.815,0,0,1-6.249,4.81c-.9.405-1.371.487-1.778.31-1.444-.629-1.166-4.407-.707-10.672.073-1,.152-2.07.23-3.209.806-11.764.495-15.12-1.512-16.323-1.4-.837-3.1-.349-4.22-.024-2.793.808-5.367,3.257-10.82,13.644.023-.485.058-1.241.089-2.165.351-10.5-.8-11.423-1.314-11.544a7.335,7.335,0,0,0-1.766.058,5.749,5.749,0,0,0-2.53.531c-1.216.783-1.109,2.691-1.072,3.331.147,2.621.049,5.3-.046,7.884-.011.307-.011.627-.022.937-.219.115-.416.267-.641.371a14.079,14.079,0,0,1-3.785,1.132,23.77,23.77,0,0,0-3.633-9.949,10.342,10.342,0,0,0-6.365-4.617c-.486-.1-4.506-.874-7.417,1.692a7.259,7.259,0,0,0-1.512,1.875c-4.232,1.269-7.495,4.9-8.962,9.974a21.078,21.078,0,0,0-.788,5.675,23.751,23.751,0,0,1-14.392,9.32c-7.36,1.407-12.111-.5-14.8-2.353-10.1-6.958-8.732-24.253-3.856-34.06a28.749,28.749,0,0,1,12.386-12.289c1.9-.934,6.662-2.88,9.885-.81,2.922,1.876,5.014,6.979,3.2,10.036a2.971,2.971,0,0,0,1.08,4.161A2.867,2.867,0,0,0,85.1,238.7c2.483-3.944,3.128-7.534,1.912-10.667a10.807,10.807,0,0,0-2.571-3.815c-3.648-3.647-8.527-3.973-10.365-4.1a22.671,22.671,0,0,0-12.714,3.2c-9.178,5.045-18.82,17.343-18.3,32.422.382,11.08,4.346,19.4,11.163,23.434a20.45,20.45,0,0,0,10.586,2.754,27.83,27.83,0,0,0,3.573-.239c9.26-1.207,15.653-7.392,19.4-12.383a17.024,17.024,0,0,0,3.8,8.46,11.494,11.494,0,0,0,8.8,3.843,14.6,14.6,0,0,0,7.991-2.428c4.429-2.973,7.36-8.391,7.869-14.524a16,16,0,0,0,4.273-1.522c0,.156-.011.31-.011.465,0,2.764.092,5.572.176,8.288.074,2.367.151,4.814.171,7.225a2.563,2.563,0,0,0,.84,2.147,2,2,0,0,0,1.142.312,6.229,6.229,0,0,0,2.559-.744c2.327-1.279,2.2-4.339,1.971-9.893-.052-1.248-.1-2.655-.137-4.161,1.974-3.01,4.006-5.992,6.132-8.87,1.527-2.067,2.946-3.916,3.542-3.916.6.218.409,2.336.139,5.268-.254,2.757-.6,6.533-.655,11.293-.061,5.447.342,8.7,2.644,10.266a5.667,5.667,0,0,0,3.261.884l.236,0c4.181-.049,8.056-3.185,10.871-6.269a10.638,10.638,0,0,0,4.388,5.4,9.661,9.661,0,0,0,4.6,1.074,11.866,11.866,0,0,0,4.085-.723c3.092-1.143,4.725-3.4,6.621-6.007.184-.254.342-.525.516-.785l-.117,3.066c-5.663,7.712-10.317,14.413-13.375,19.291-1.548,2.47-4.767,7.61-3.118,12.678a11.022,11.022,0,0,0,3.176,4.673,8.644,8.644,0,0,0,6.021,2.215,11.12,11.12,0,0,0,6.269-1.916,10.043,10.043,0,0,0,2.607-2.849c1.993-2.94,2.389-5.852,2.731-9.671a92.653,92.653,0,0,0,.623-10.337c-.037-1.552.206-6.924.715-16.669,3.039-4.444,6.157-8.858,9.306-13.24a10.694,10.694,0,0,0,7.316.858c-.336,3.573-.656,7.316-.952,11.132-.182,2.342-.408,5.255,1.271,6.461a6.316,6.316,0,0,0,2.7.833s2.1-.141,2.525-.214c2.346-.4,6.148-4.86,6.308-5.048.122-.144.235-.3.355-.444a10.3,10.3,0,0,0,4.269,5,9.8,9.8,0,0,0,4.6,1.055,12.075,12.075,0,0,0,4.082-.71c3.094-1.123,4.729-3.335,6.622-5.9.128-.173.237-.361.361-.537.1,3.672.226,5.925,1.9,6.926a3.439,3.439,0,0,0,1.8.457,9.494,9.494,0,0,0,2.817-.575c2.859-.912,4.471-2.61,7.689-5.988l2-2.1a22.311,22.311,0,0,0,.888,4.475,5.37,5.37,0,0,0,2.1,2.927,4.855,4.855,0,0,0,2.62.693,10.82,10.82,0,0,0,3.378-.668c3.437-1.149,5.671-3.406,7.663-5.618,1.18-1.31,2.306-2.693,3.4-4.107-.047,3.64.161,7.188,1.379,8.766a4.965,4.965,0,0,0,.855.847c0,.049.157.1.157.1a10.785,10.785,0,0,0,3.637.651,9.645,9.645,0,0,0,1-.052c4.128-.424,6.808-3.356,9.646-6.461.537-.588,1.052-1.2,1.552-1.824.009,5.407.394,7,1.719,7.83a4.048,4.048,0,0,0,2.174.548,10.113,10.113,0,0,0,1.288-.1c2.354-.3,3.939-1.707,5.362-3.127,1.159-1.156,2.285-2.42,3.386-3.749.486,3.107,1.519,5.879,3.742,6.863a4.872,4.872,0,0,0,1.966.378l.173,0c4.3,0,8.008-3.877,10.262-6.925a10.839,10.839,0,0,0,4.641,5.914,9.808,9.808,0,0,0,4.6,1.055,12.075,12.075,0,0,0,4.082-.71c3.092-1.122,4.726-3.333,6.622-5.9.128-.173.237-.361.361-.538.1,3.673.225,5.927,1.9,6.927a3.444,3.444,0,0,0,1.8.457,9.491,9.491,0,0,0,2.816-.575c2.858-.912,4.472-2.608,7.688-5.985l2-2.1a22.347,22.347,0,0,0,.887,4.475,5.365,5.365,0,0,0,2.1,2.927,4.848,4.848,0,0,0,2.619.693,10.827,10.827,0,0,0,3.379-.668c3.436-1.149,5.669-3.406,7.663-5.618,1.377-1.529,2.689-3.145,3.952-4.816.021.926.036,1.787.047,2.567.074,4.833.109,7.039,1.86,8.072a4.976,4.976,0,0,0,2.517.569,10.388,10.388,0,0,0,2.063-.225,9.832,9.832,0,0,0,4.13-2.062,29.007,29.007,0,0,0,5.22-5.476,15.32,15.32,0,0,0,2.663,4.454,11.436,11.436,0,0,0,8.758,3.824,14.544,14.544,0,0,0,7.958-2.417c4.424-2.971,7.349-8.39,7.847-14.525a15.933,15.933,0,0,0,4.329-1.538c0,.177-.013.353-.013.53,0,2.764.092,5.571.177,8.286.074,2.368.151,4.815.171,7.223a2.56,2.56,0,0,0,.839,2.151,2,2,0,0,0,1.143.312,6.234,6.234,0,0,0,2.559-.744c2.32-1.289,2.2-4.339,1.971-9.893-.052-1.248-.1-2.655-.138-4.159,1.976-3.013,4.008-6,6.133-8.871,1.527-2.067,2.945-3.916,3.542-3.916.6.218.409,2.337.138,5.268-.254,2.757-.6,6.533-.655,11.293-.06,5.447.343,8.7,2.644,10.266a5.669,5.669,0,0,0,3.261.884l.236,0c5.811-.07,11.032-6.079,13.625-9.649.749.7,1.517,1.39,2.279,2.069,2.625,2.342,5.34,4.764,7.03,7.457,2.365,3.769,1.69,9.851-1.5,13.555a11.751,11.751,0,0,1-7.3,3.75c-1.394.225-5.1.817-8.22-1.494a8.9,8.9,0,0,1-2.516-2.911,7.153,7.153,0,0,0,3.07-1.05c2.307-1.464,4.137-4.607,3.207-7.335a4.682,4.682,0,0,0-2.913-2.926,4.847,4.847,0,0,0-4,1.046c-3.151,2.271-2.99,6.972-2.892,8.182a7.329,7.329,0,0,1-2.707-.179c-.417-.111-.816-.259-1.166-.39-.818-.305-1.523-.568-2.032-.158a.962.962,0,0,0-.355.657c-.072,1.3,3.177,2.167,3.548,2.262a9.634,9.634,0,0,0,3.263.248,13.17,13.17,0,0,0,.792,1.4,15.253,15.253,0,0,0,3,3.253,15.559,15.559,0,0,0,9.181,3.014,16.619,16.619,0,0,0,10.262-3.6,17.429,17.429,0,0,0,6.161-9.826,15.959,15.959,0,0,0,.146-5.762c-.922-5.161-4.34-8.152-7.647-11.044M100.922,275c-2.6.26-4.794-1.267-6.329-4.418-2.652-5.451-2.046-11.538,1.5-15.741a9.441,9.441,0,0,0,2.616,6.928c2.47,2.494,6.687,3.753,11.933,3.589-1.265,4.3-5.465,9.217-9.723,9.642m1.5-16.079c-1.106-1.121-2.864-3.283-2.2-5.164a4.367,4.367,0,0,1,3.171-2.637,5.571,5.571,0,0,1,1.353-.169,4.429,4.429,0,0,1,3,1.071c2.588,2.366,3.459,6.466,3.418,9.611-3.625.459-6.48-.427-8.737-2.713M173.777,270.1a11.372,11.372,0,0,1-5.86,4.961,6.107,6.107,0,0,1-3.967.233c-3.7-1.265-4.607-7-4.8-8.732-.655-5.974,2.047-15.094,7.777-15.788,2.958-.353,5.632,1.6,7.383,3.332-.088,3.575-.284,9.27-.535,15.994m222.83-16.37a4.427,4.427,0,0,1,3.212-2.674,5.64,5.64,0,0,1,1.368-.171,4.492,4.492,0,0,1,3.039,1.087c2.615,2.391,3.487,6.541,3.435,9.706-3.663.478-6.555-.412-8.836-2.724-1.116-1.13-2.889-3.313-2.219-5.224m10.561,11.559c-1.242,4.333-5.49,9.332-9.8,9.761-2.612.269-4.841-1.274-6.387-4.45-2.688-5.526-2.042-11.7,1.615-15.928a9.443,9.443,0,0,0,2.6,7.048c2.472,2.495,6.713,3.772,11.97,3.569m-74.112-1.215c-.123,1.975-.218,3.992-.269,6.012a11.022,11.022,0,0,1-5.555,4.451,6.187,6.187,0,0,1-3.969.229c-3.7-1.242-4.606-6.87-4.8-8.566-.655-5.861,2.047-14.81,7.776-15.491,2.773-.335,5.3,1.331,7.05,2.946a92.894,92.894,0,0,1-.236,10.419M302.46,255c.145-22.158,2.982-24.533,3.849-24.726a3.1,3.1,0,0,1,.646-.064,3.04,3.04,0,0,1,1.34.3,3.732,3.732,0,0,1,1.668,2.017c2.917,7.053-3.6,21.311-3.666,21.455a72.033,72.033,0,0,1-3.845,7.206c-.007-1.543-.007-3.686.008-6.184m-74.269,9.081c-.123,1.976-.219,3.994-.27,6.014a11.012,11.012,0,0,1-5.555,4.448,6.181,6.181,0,0,1-3.97.229c-3.705-1.245-4.607-6.871-4.8-8.566-.655-5.861,2.047-14.81,7.775-15.491,2.781-.327,5.3,1.333,7.051,2.944a93.069,93.069,0,0,1-.236,10.422m-38.369-14.86a1.6,1.6,0,0,1,.914.252,2.282,2.282,0,0,1,.716,1.586c.336,2.461-1.093,4.758-2.076,6.008a6.163,6.163,0,0,1-2.154-3.052c-.235-.774-.723-2.382.2-3.579a3.213,3.213,0,0,1,2.4-1.216m-16.9,42.839c.074,3.2-.01,6.412-.251,9.554-.261,3.394-.558,5.073-1.722,6.687-1.286,1.788-2.653,2.7-4.047,2.7-2.208.006-3.831-2.308-4.007-2.572-2.794-4.172,2.5-12.872,9.706-23.812l.655-.994c-.109,2.788-.222,5.619-.334,8.432m271.565-5.819a2.206,2.206,0,0,1,1.7.779c.671.984-.132,2.465-.4,2.9-1.15,1.895-3.636,2.182-4.47,2.225a5.249,5.249,0,0,1,.477-3.937,3.344,3.344,0,0,1,2.689-1.962" transform="translate(-22.501 -115.048)" fill="#0e436b"/>
  </g>
</svg>
