
<svg xmlns="http://www.w3.org/2000/svg" xmlns:xlink="http://www.w3.org/1999/xlink" width="456.657" height="302.056" viewBox="0 0 456.657 302.056">
  <defs>
    <clipPath id="clip-path">
      <path id="Path_291" data-name="Path 291" d="M204.718,26c-30.8-2.2-73.429-14-119.619-14S12.237,39.234,27.833,89.625s7.344,80.141-8.253,99.337-39.592,85.783,10.8,106.178,110.712-19.725,162.886-12.089c37.988,5.559,116.323,17.957,154.116,18.557s93.581,6,106.178-44.991-21.8-90.605-44.6-111c-14.6-13.062,9.358-33.073,21.138-62.207,6.614-16.356,10.339-38.4-.141-54.868C387.824-37.658,302.7,33,204.717,26Z" transform="translate(0.004 0.001)" fill="none"/>
    </clipPath>
  </defs>
  <g id="seminar" transform="translate(0.004 0.001)">
    <g id="Layer_1" data-name="Layer 1" transform="translate(-0.004 -0.001)">
      <g id="Group_153" data-name="Group 153">
        <g id="Group_151" data-name="Group 151" clip-path="url(#clip-path)">
          <g id="Group_150" data-name="Group 150" transform="translate(-58.456 0.379)">
            <g id="Group_9" data-name="Group 9" transform="translate(60.428)">
              <g id="Group_7" data-name="Group 7" transform="translate(0)">
                <rect id="Rectangle_6" data-name="Rectangle 6" width="465.788" height="227.282" fill="#388aca"/>
                <path id="Path_44" data-name="Path 44" d="M943.487,1576.536c-15.358-8.829-77,32.84-64.829,54.881S972.827,1593.4,943.487,1576.536Z" transform="translate(-794.471 -1423.791)" fill="#4ea2d9"/>
                <path id="Path_45" data-name="Path 45" d="M344.666,3.93q-6.856,1.7-13.72,3.4C295.331,16.158,259.219,25.178,227.2,43.1c-37.6,21.054-67.491,53.193-99.848,81.653C96.484,151.911,60.9,176.822,20.45,182.718V77.361C33.944,82.368,49.6,80.222,63,74.545c14.825-6.287,27.606-16.452,40.688-25.851A479.6,479.6,0,0,1,179.926,3.93Z" transform="translate(-20.45 -3.93)" fill="#4ea2d9"/>
                <path id="Path_46" data-name="Path 46" d="M2107.308,3.93V231.212H2004.285a90.691,90.691,0,0,1,13.218-29.406c15.828-22.932,41.9-38.561,52.988-64.122a65.231,65.231,0,0,0,.161-50.872c-.99-2.34-2.206-4.706-4.25-6.21-2.553-1.871-5.953-2.07-9.1-1.852-25.253,1.755-43.852,24.919-53.109,48.48s-12.659,49.439-24.88,71.605a113.082,113.082,0,0,1-27.349,32.376H1814.53c32.235-19.872,59.808-48.712,80.1-80.857,18.759-29.721,32.9-63,57.776-87.839C1985.9,29.08,2034.1,15.579,2080.578,6.7c5.9-1.125,12.042-2.134,18.219-2.771h8.512Z" transform="translate(-1641.52 -3.93)" fill="#4ea2d9"/>
                <path id="Path_47" data-name="Path 47" d="M3991.547,993.9c-13.2-4.256-41.143,36.994-19.361,48.057S4011.511,1000.33,3991.547,993.9Z" transform="translate(-3583.839 -898.153)" fill="#4ea2d9"/>
              </g>
              <g id="Group_8" data-name="Group 8" transform="translate(0)">
                <rect id="Rectangle_7" data-name="Rectangle 7" width="76.344" height="220.01" fill="#334b7d"/>
                <rect id="Rectangle_8" data-name="Rectangle 8" width="38.172" height="220.01" fill="#336d93" opacity="0.3"/>
                <rect id="Rectangle_9" data-name="Rectangle 9" width="13.398" height="220.01" fill="#336d93" opacity="0.3"/>
                <rect id="Rectangle_10" data-name="Rectangle 10" width="4.187" height="220.01" transform="translate(72.157)" fill="#4b699f"/>
              </g>
            </g>
            <g id="Group_12" data-name="Group 12" transform="translate(253.897 143.624)">
              <g id="Group_10" data-name="Group 10" transform="translate(13.33 44.312)">
                <path id="Path_48" data-name="Path 48" d="M2219.8,2012.39l-1.568,24.668-.168,2.591h-32.421l-1.736-27.259Z" transform="translate(-2182.078 -2006.642)" fill="#e9404e"/>
                <path id="Path_49" data-name="Path 49" d="M2204.467,1952.79l-.4,5.747h-38.76l-.4-5.747Z" transform="translate(-2164.91 -1952.79)" fill="#e9404e"/>
                <path id="Path_50" data-name="Path 50" d="M2201.076,1983.205l-.167,2.591h-32.421l-1.736-27.259h-1.434l-.4-5.747h18.123a31.71,31.71,0,0,0,.115,5.747C2184.207,1968.4,2189.517,1980.614,2201.076,1983.205Z" transform="translate(-2164.919 -1952.79)" fill="#336d93" opacity="0.3"/>
              </g>
              <g id="Group_11" data-name="Group 11">
                <path id="Path_51" data-name="Path 51" d="M2097.36,1526.917c-.476.842-1.531,1.4-3.176,1.363a47.085,47.085,0,0,0-15.359,2.36s.084.007.244.026c17.969,2.172,17.153,14.472,13.957,16.117a1.764,1.764,0,0,1-2.218-.617c-4.217-4.725-17.377-7.425-17.377-7.425,9.11,10.292,3.035,24.295-1.858,16.7a100.807,100.807,0,0,0-12.318-14.844s-2.36,18.728-7.933,16.7-2.192-16.7-2.192-16.7-22.944,16.536-22.437,7.592,17.037-14.851,17.037-14.851-20.245-1.01-15.012-6.577a7.814,7.814,0,0,1,1.543-1.266c5.677-3.619,15.68-.687,16-.6-.283-.456-10.692-17.493-7.187-20.977a2.531,2.531,0,0,1,1.967-.61c5.169.205,9.347,7.406,11.752,12.775a.052.052,0,0,0,.012.032c1.331,2.977,2.115,5.388,2.225,5.716a.085.085,0,0,1,.012.039s.675-7.425,6.577-19.911c5.5-11.617,15.667-10.094,13.655-3.973a8.076,8.076,0,0,1-.663,1.44c-4.043,6.963-9.952,19.807-10.421,20.849.007-.007.012-.007.012-.012a.323.323,0,0,0,.039-.051c12.105-18.187,22.495-17.7,25.651-14.427a2.773,2.773,0,0,1,.552,3.568,3.329,3.329,0,0,1-1.15,1.041c-6.281,3.633-14.343,12.447-14.67,12.819a.511.511,0,0,1,.07-.026,37.992,37.992,0,0,1,6.1-2.327c9.264-2.63,14.8.289,16.387,3.2a2.9,2.9,0,0,1,.18,2.854Z" transform="translate(-2026.684 -1493.289)" fill="#02938d"/>
                <path id="Path_52" data-name="Path 52" d="M2093.036,1848.546a1.764,1.764,0,0,1-2.218-.617c-4.217-4.725-17.377-7.425-17.377-7.425,9.11,10.292,3.035,24.295-1.858,16.7a100.807,100.807,0,0,0-12.318-14.844s-2.36,18.727-7.933,16.7-2.192-16.7-2.192-16.7-22.944,16.536-22.437,7.592,17.037-14.851,17.037-14.851-20.244-1.01-15.012-6.577a7.815,7.815,0,0,1,1.543-1.266c5.008,4.468,22.3,3.639,22.3,3.639s-3.112,4.429.36,6.107,8.737-3.831,8.737-3.831,26.706,2.032,31.373,15.371Z" transform="translate(-2026.693 -1795.053)" fill="#336d93" opacity="0.3"/>
                <path id="Path_53" data-name="Path 53" d="M2582.739,1816.158a47.083,47.083,0,0,0-15.359,2.36c3.343-5.432,11.816-6.931,18.354-6.577,1.164,2.141.2,4.282-3,4.217Z" transform="translate(-2515.239 -1781.167)" fill="#336d93" opacity="0.3"/>
                <path id="Path_54" data-name="Path 54" d="M2524.31,1781.524a38.326,38.326,0,0,1,6.121-2.334C2527.2,1780.45,2524.729,1781.37,2524.31,1781.524Z" transform="translate(-2476.322 -1751.619)" fill="#336d93" opacity="0.3"/>
                <path id="Path_55" data-name="Path 55" d="M2538.333,1627.47c-6.281,3.633-14.343,12.447-14.67,12.819a.02.02,0,0,1-.012.007s.334-4.262,4.641-9.168c4.173-4.751,9.014-6.339,10.64-8.267A2.755,2.755,0,0,1,2538.333,1627.47Z" transform="translate(-2475.726 -1610.364)" fill="#336d93" opacity="0.3"/>
                <path id="Path_56" data-name="Path 56" d="M2441.954,1609.89c-.386-1.967-1.864-3.922-6.236-3.87-8.455.1-19.332,13.918-20.007,14.78,12.125-18.239,22.534-17.751,25.69-14.478a2.773,2.773,0,0,1,.552,3.568Z" transform="translate(-2378.195 -1593.826)" fill="#fff" opacity="0.7"/>
                <path id="Path_57" data-name="Path 57" d="M2547.179,1775.631c-3.292-11.045-21.37-4.236-22.669-3.729a37.986,37.986,0,0,1,6.1-2.327c9.265-2.63,14.8.289,16.387,3.2a2.9,2.9,0,0,1,.181,2.854Z" transform="translate(-2476.503 -1742.003)" fill="#fff" opacity="0.7"/>
                <path id="Path_58" data-name="Path 58" d="M2340.942,1497.977c.039-3.279-3.06-5.021-9.1.1-7.091,6-11.128,23.787-11.128,23.787s.675-7.425,6.577-19.911C2332.784,1490.333,2342.955,1491.857,2340.942,1497.977Z" transform="translate(-2292.356 -1493.28)" fill="#fff" opacity="0.7"/>
                <path id="Path_59" data-name="Path 59" d="M2168.83,1609.934c-3.407-6.294-9.425-11.887-13.72-12.163a2.531,2.531,0,0,1,1.967-.61c5.169.205,9.347,7.406,11.752,12.775Z" transform="translate(-2142.725 -1587.139)" fill="#fff" opacity="0.7"/>
              </g>
            </g>
            <g id="Group_43" data-name="Group 43" transform="translate(174.448 46.332)">
              <g id="Group_37" data-name="Group 37">
                <g id="Group_15" data-name="Group 15" transform="translate(44.904 33.166)">
                  <g id="Group_13" data-name="Group 13" transform="translate(8.296 56.989)">
                    <path id="Path_60" data-name="Path 60" d="M1764.925,1427.195c-.006.074-.012.16-.017.245-.223,1.939-2.059,6.365-2.059,6.794s-1.774,2-1.774,2-1.186,3.628-2.15,2.744c-.4-.37-.354-1.472-.171-2.716a37.648,37.648,0,0,0,.691-4.472c-.148-1.186-1.928-3.925-1.928-3.925s.074,2.96.074,4.444-1.477,1.557-1.848.816a29.559,29.559,0,0,1-1.26-6.075c.006-.08.017-.223.029-.411.108-1.575.342-6.474.342-6.474l8.22-.89s.742,2.373,1.289,4.592a15.537,15.537,0,0,1,.565,3.331Z" transform="translate(-1754.478 -1419.27)" fill="#f58a64"/>
                    <path id="Path_61" data-name="Path 61" d="M1764.642,1423.872c-2.3-.5-6.017-1.17-7.068-.519a11.324,11.324,0,0,0-2.784,3.291c.108-1.575.342-6.475.342-6.475l8.22-.89S1764.094,1421.653,1764.642,1423.872Z" transform="translate(-1754.76 -1419.279)" fill="#f15c27"/>
                    <path id="Path_62" data-name="Path 62" d="M1785.21,1495.3s2.818,4.221,2.818,5.111c0,.6-.987,2.589-1.506,4.546a37.616,37.616,0,0,0,.69-4.472c-.148-1.186-1.928-3.925-1.928-3.925Z" transform="translate(-1782.246 -1487.968)" fill="#f15c27"/>
                    <path id="Path_63" data-name="Path 63" d="M1826.713,1503.99c-.223,1.939-2.059,6.365-2.059,6.794s-1.774,2-1.774,2,.958-3.85,1.255-4.592C1824.34,1507.675,1825.812,1505.37,1826.713,1503.99Z" transform="translate(-1816.284 -1495.82)" fill="#f15c27"/>
                  </g>
                  <g id="Group_14" data-name="Group 14">
                    <path id="Path_64" data-name="Path 64" d="M1686.411,886.276c.011.036-.045.092-.166.158a9.715,9.715,0,0,1-2.515.688c-1.734.285-5.419.837-7.638.226,0,0-1.632-19.19-2.076-20.179s-5.213-16.906-5.544-18.684a29.412,29.412,0,0,1,.93-5.753c.992-4.582,2.487-10.585,3.137-13.157.205-.795.325-1.264.325-1.264,3.691,1.769,5.134,4.938,6.68,10.773s4.763,22.656,5.43,25.23,1.329,21.668,1.438,21.963Z" transform="translate(-1668.455 -828.31)" fill="#c7dff4"/>
                    <path id="Path_65" data-name="Path 65" d="M1683.729,1022.25c-1.734.285-5.419.837-7.638.226,0,0-1.632-19.19-2.076-20.179s-5.213-16.906-5.544-18.684a29.417,29.417,0,0,1,.93-5.753c3.8,5.947,10.507,20.026,10.832,21.077.394,1.294-4.084,1.055-4.084,1.055s4.609,7.3,5.664,9.534c.747,1.595,1.5,8.648,1.916,12.724Z" transform="translate(-1668.455 -963.438)" fill="#336d93" opacity="0.3"/>
                    <path id="Path_66" data-name="Path 66" d="M1724.672,886.276c.012.036-.045.092-.166.158-.28-3.3-1.745-20.343-2.458-22.04-.793-1.88-6.583-29.413-7.637-31.528a9.609,9.609,0,0,0-3.611-3.292c.205-.795.325-1.264.325-1.264,3.69,1.769,5.134,4.938,6.68,10.773s4.763,22.656,5.43,25.23,1.329,21.668,1.438,21.963Z" transform="translate(-1706.717 -828.31)" fill="#fff" opacity="0.7"/>
                  </g>
                </g>
                <g id="Group_16" data-name="Group 16" transform="translate(17.044 25.507)">
                  <path id="Path_67" data-name="Path 67" d="M1408.35,807.2h-28.8V754.915s1.421-.775,3.188-1.785c2.55-1.46,5.807-3.422,6.508-4.25l8.876.5,9.087,5.9.365,16.742.775,35.177Z" transform="translate(-1379.55 -748.88)" fill="#bfdea5"/>
                  <path id="Path_68" data-name="Path 68" d="M1540.623,867.213h-.02a.321.321,0,0,1-.3-.34c1.079-17.364-.491-44.11-.507-44.378a.322.322,0,0,1,.3-.34.325.325,0,0,1,.34.3c.016.268,1.588,27.054.507,44.456a.323.323,0,0,1-.32.3Z" transform="translate(-1524.341 -815.088)" fill="#95b378"/>
                  <path id="Path_69" data-name="Path 69" d="M1408.35,847.024h-28.8V794.735s1.421-.775,3.188-1.785c.879.616,1.557,1.17,1.557,1.17,4.147,4.152,5.35,25.886,6.548,31.567s7.866-1.528,8.847-1.968-.873,4.261-.981,4.592a76.168,76.168,0,0,0,8.864-16.462l.775,35.177Z" transform="translate(-1379.55 -788.7)" fill="#336d93" opacity="0.3"/>
                </g>
                <g id="Group_20" data-name="Group 20" transform="translate(9.891 79.326)">
                  <g id="Group_18" data-name="Group 18" transform="translate(0 2.224)">
                    <path id="Path_70" data-name="Path 70" d="M1321.063,2152.859c-.035,1.38-.125,2.675-.125,2.675h-15.458s-.057-1.272-.092-2.675c-.012-.5-.017-1.027-.017-1.511,0-1.826,3.006-11.488,3.006-11.488l10.2.108s2.037,8.8,2.362,9.874a13.9,13.9,0,0,1,.125,3.018Z" transform="translate(-1305.37 -2061.766)" fill="#0d1a3a"/>
                    <path id="Path_71" data-name="Path 71" d="M1620.77,2147.759h-24.55c0-.9.012-1.8.029-2.675.131-6.548.69-12.138.69-12.138s8.8-4.078,10.416.428,11.807,7.946,12.344,8.694a11.059,11.059,0,0,1,.719,3.017c.211,1.37.354,2.675.354,2.675Z" transform="translate(-1568.172 -2053.99)" fill="#0d1a3a"/>
                    <path id="Path_72" data-name="Path 72" d="M1305.55,2274.66h15.675c-.035,1.38-.125,2.675-.125,2.675h-15.458S1305.585,2276.063,1305.55,2274.66Z" transform="translate(-1305.533 -2183.567)" fill="#1f3560"/>
                    <path id="Path_73" data-name="Path 73" d="M1620.77,2277.345h-24.55c0-.9.012-1.8.029-2.675h24.168c.211,1.369.354,2.675.354,2.675Z" transform="translate(-1568.172 -2183.575)" fill="#1f3560"/>
                    <g id="Group_17" data-name="Group 17" transform="translate(0.508)">
                      <path id="Path_74" data-name="Path 74" d="M1350.705,1408.488c-.051,1.2-.086,1.888-.086,1.888h-12.537s-1.642-23.935-2.327-32.77v-.017c-.143-1.769-.239-2.926-.28-3.166-.234-1.4-3.93-27.3-4.021-27.9-.029.342-.718,8.915-1.415,17.261-.713,8.516-5.442,45.656-5.442,45.656H1310.64s2.127-43.528,2.127-47.789c0-.662.051-1.882.143-3.468.045-.839.1-1.785.166-2.806.6-9.44,1.853-25.332,1.853-25.332l32.759,1.232s1.284,13.9,2.39,25.3c.051.553.108,1.1.16,1.643.576,5.835,1.09,10.77,1.323,12.424.61,4.266-.525,30.545-.855,37.852Z" transform="translate(-1310.64 -1330.04)" fill="#02938d"/>
                      <path id="Path_75" data-name="Path 75" d="M1371.975,1408.488c-.051,1.2-.086,1.888-.086,1.888h-12.537s-1.642-23.935-2.327-32.77v-.017c-.143-1.769-.239-2.926-.28-3.166-.234-1.4-3.93-27.3-4.021-27.9-.029.342-.718,8.915-1.415,17.261-.713,8.516-5.442,45.656-5.442,45.656h-9.087c2.344-3.041,4.586-6.348,4.78-8.111.422-3.816-.211-20.752-.422-23.079s5.5-11.858,5.716-13.975-2.116-4.871-2.116-4.871l-10.558-1.221c.479-8.63,2.019-28.139,2.019-28.139l32.759,1.232s1.409,15.281,2.55,26.941c-4.016.245-8.773.553-8.773.553s7.2,15.03,6.348,15.241-7.2-7.2-7.2-5.293,1.906,24.562,1.906,25.412c0,.542,4.751,8.51,8.185,14.363Z" transform="translate(-1331.91 -1330.04)" fill="#336d93" opacity="0.3"/>
                      <path id="Path_76" data-name="Path 76" d="M1372.9,1356.569l-11.42,1.039-.337-23.832h-9.874l-1.528,21.448-13.844.148c.6-9.44,1.853-25.332,1.853-25.332l32.759,1.232s1.284,13.9,2.39,25.3Z" transform="translate(-1333.464 -1330.04)" fill="#336d93" opacity="0.3"/>
                      <path id="Path_77" data-name="Path 77" d="M1529.39,1463.2s.879,15.618.325,21.174c-.143-1.769-.239-2.926-.28-3.166-.234-1.4-3.93-27.3-4.021-27.9l-.114-5.082s6.469,14.13,6.811,14.807-2.721.171-2.721.171Z" transform="translate(-1504.599 -1436.824)" fill="#336d93" opacity="0.3"/>
                      <path id="Path_78" data-name="Path 78" d="M1340.279,2112.682h-10.857a.321.321,0,1,1,0-.642h10.857a.321.321,0,1,1,0,.642Z" transform="translate(-1327.32 -2036.629)" fill="#033f39"/>
                      <path id="Path_79" data-name="Path 79" d="M1565.505,1541.366a.322.322,0,0,1-.321-.31c-.01-.29-1.082-29.008-1.345-30.589s-7.21-29.111-7.281-29.389a.322.322,0,0,1,.624-.157c.286,1.135,7.023,27.827,7.291,29.441s1.309,29.486,1.354,30.671a.322.322,0,0,1-.31.334h-.013Z" transform="translate(-1532.834 -1466.151)" fill="#033f39"/>
                      <path id="Path_80" data-name="Path 80" d="M1617.5,2127.772h-10.255a.321.321,0,1,1,0-.642H1617.5a.321.321,0,1,1,0,.642Z" transform="translate(-1578.349 -2050.263)" fill="#033f39"/>
                      <path id="Path_81" data-name="Path 81" d="M1525.87,1354.545a.321.321,0,0,1-.165-.6,8.418,8.418,0,0,0,2.146-1.626c-.163-.879-.059-7.479,0-10.354a.315.315,0,0,1,.328-.315.323.323,0,0,1,.315.328c-.07,3.685-.136,9.71-.016,10.194.072.178.281.7-2.437,2.325a.323.323,0,0,1-.165.045Zm2-2.151Zm-.007-.019a.151.151,0,0,0,.007.019C1527.867,1352.388,1527.864,1352.381,1527.862,1352.375Z" transform="translate(-1504.825 -1340.533)" fill="#033f39"/>
                      <path id="Path_82" data-name="Path 82" d="M1523.481,1368.09h-.006a.322.322,0,0,1-.316-.327l.229-13.877a.322.322,0,0,1,.321-.316h.006a.322.322,0,0,1,.316.327l-.23,13.877A.322.322,0,0,1,1523.481,1368.09Z" transform="translate(-1502.665 -1351.301)" fill="#033f39"/>
                    </g>
                  </g>
                  <g id="Group_19" data-name="Group 19" transform="translate(4.155)">
                    <path id="Path_83" data-name="Path 83" d="M1348.946,1312.57s25.131.811,32.914,0v2.918s-12.971,1.783-33.4.162Z" transform="translate(-1348.46 -1312.031)" fill="#0d1a3a"/>
                    <path id="Path_84" data-name="Path 84" d="M1507.3,1306.98l-.1,4.7s7.567.307,7.874-.1,0-4.4,0-4.4Z" transform="translate(-1491.892 -1306.98)" fill="#c7dff4"/>
                  </g>
                </g>
                <g id="Group_21" data-name="Group 21" transform="translate(8.454 25.667)">
                  <path id="Path_85" data-name="Path 85" d="M1306.7,828.416c-8.9,0-16.228-.576-16.228-.576s2.008-23.98,2.151-32.023c.131-7.017.93-31.2,1.129-37.259.029-.89.045-1.386.045-1.386,2.6-1.769,13.9-6.622,13.9-6.622s.051.268.131.906c.223,1.774.667,6.406.879,15.926.291,12.926-2.008,61.034-2.008,61.034Z" transform="translate(-1290.47 -750.549)" fill="#c7dff4"/>
                  <path id="Path_86" data-name="Path 86" d="M1395.61,955.155h-.007a.322.322,0,0,1-.314-.328l.936-43.413a.321.321,0,1,1,.642.015l-.937,43.413a.321.321,0,0,1-.321.314Z" transform="translate(-1385.181 -895.616)" fill="#638ca5"/>
                  <path id="Path_87" data-name="Path 87" d="M1338.567,751.447l-14.077,7.1c.029-.89.045-1.386.045-1.386,2.6-1.769,13.9-6.622,13.9-6.622S1338.487,750.808,1338.567,751.447Z" transform="translate(-1321.209 -750.54)" fill="#fff" opacity="0.7"/>
                </g>
                <g id="Group_22" data-name="Group 22" transform="translate(37.938 26.841)">
                  <path id="Path_88" data-name="Path 88" d="M1609.927,837.409c-3.262.7-11.431,1.278-11.431,1.278s-.114-20.529-.468-34.179c-.3-11.8-1.432-34.43-1.734-40.345-.045-.924-.074-1.443-.074-1.443l11.374,6.326s.063.542.154,1.557a155.416,155.416,0,0,1,.428,17.928c-.348,11.665,1.751,48.878,1.751,48.878Z" transform="translate(-1596.22 -762.72)" fill="#c7dff4"/>
                  <path id="Path_89" data-name="Path 89" d="M1663.644,960.218h-.027a.32.32,0,0,1-.293-.347c.65-7.794-.354-43.114-.365-43.469a.323.323,0,0,1,.313-.331.333.333,0,0,1,.331.312c.01.356,1.015,35.712.362,43.541A.321.321,0,0,1,1663.644,960.218Z" transform="translate(-1656.523 -901.282)" fill="#638ca5"/>
                  <path id="Path_90" data-name="Path 90" d="M1607.748,770.6l-11.453-6.44c-.045-.924-.074-1.443-.074-1.443l11.374,6.326s.063.542.154,1.557Z" transform="translate(-1596.22 -762.72)" fill="#fff" opacity="0.7"/>
                </g>
                <g id="Group_25" data-name="Group 25" transform="translate(19.774 22.488)">
                  <path id="Path_91" data-name="Path 91" d="M1584.545,951.367a2.507,2.507,0,1,1-2.507-2.507A2.507,2.507,0,0,1,1584.545,951.367Z" transform="translate(-1562.975 -926.557)" fill="#0d1a3a"/>
                  <g id="Group_24" data-name="Group 24" transform="translate(0 21.465)">
                    <path id="Path_92" data-name="Path 92" d="M1415.367,953.727h-.716v-1.141h.716a.122.122,0,0,0,.122-.121v-7.91a3.244,3.244,0,0,0-6.488,0v7.91a.122.122,0,0,0,.122.121h.716v1.141h-.716a1.263,1.263,0,0,1-1.262-1.262v-7.91a4.385,4.385,0,1,1,8.77,0v7.91A1.264,1.264,0,0,1,1415.367,953.727Z" transform="translate(-1407.86 -940.17)" fill="#0d1a3a"/>
                    <g id="Group_23" data-name="Group 23" transform="translate(1.875 12.062)">
                      <rect id="Rectangle_11" data-name="Rectangle 11" width="1.85" height="1.85" rx="0.55" fill="#0d1a3a"/>
                      <rect id="Rectangle_12" data-name="Rectangle 12" width="1.85" height="1.85" rx="0.55" transform="translate(3.173)" fill="#0d1a3a"/>
                    </g>
                  </g>
                  <path id="Path_93" data-name="Path 93" d="M1463.4,740.121h-1.141V725.472a6.752,6.752,0,0,0-13.5,0v14.2h-1.141v-14.2a7.893,7.893,0,0,1,15.785,0Z" transform="translate(-1443.777 -717.58)" fill="#0d1a3a"/>
                </g>
                <g id="Group_26" data-name="Group 26" transform="translate(25.668 21.24)">
                  <path id="Path_94" data-name="Path 94" d="M1480.858,716.383l-3.219-3.355-1.483,1.632-1.677-1.432-3.856,3.554a10.885,10.885,0,0,1-1.575-4.432c-.491-4.164,1.688-7.884,5.487-7.706a9,9,0,0,1,1.369.166c7.119,1.444,4.953,11.575,4.953,11.575Z" transform="translate(-1468.98 -704.637)" fill="#ddecc6"/>
                  <path id="Path_95" data-name="Path 95" d="M1475.915,704.808l-.291,7.8a27.387,27.387,0,0,0-3.964-1.266,6.3,6.3,0,0,0-2.6,1c-.491-4.164,1.688-7.884,5.487-7.706a9,9,0,0,1,1.369.166Z" transform="translate(-1468.989 -704.637)" fill="#336d93" opacity="0.3"/>
                </g>
                <g id="Group_27" data-name="Group 27" transform="translate(27.499 12.387)">
                  <path id="Path_96" data-name="Path 96" d="M1496.527,618.18v7.946l-3.753,3.53-4.8-3.969.058-11.591,1.877-1.266.239.194Z" transform="translate(-1487.97 -612.83)" fill="#f58a64"/>
                  <path id="Path_97" data-name="Path 97" d="M1516.056,619.987v7.558a9.419,9.419,0,0,1-2.949-.7c-3.776-1.517-3.651-8.966-3.434-12.019l6.383,5.156Z" transform="translate(-1507.499 -614.637)" fill="#0d1a3a"/>
                </g>
                <g id="Group_31" data-name="Group 31" transform="translate(23.3)">
                  <g id="Group_28" data-name="Group 28" transform="translate(5.715 3.819)">
                    <path id="Path_98" data-name="Path 98" d="M1515.27,529.191c.023.759-.023,1.534-.074,2.287-.188,2.647.176,6.839-1.415,9.035a3.387,3.387,0,0,1-2.487,1.426,5.9,5.9,0,0,1-3.035-.445,7.958,7.958,0,0,1-4.524-7.027c0-2.207-.331-5.476.775-7.774a4.749,4.749,0,0,1,4.54-2.692c.176-.006.354-.012.519-.012,2.653-.006,4.107.793,4.877,1.985a6.134,6.134,0,0,1,.822,3.217Z" transform="translate(-1503.69 -523.989)" fill="#f58a64"/>
                    <path id="Path_99" data-name="Path 99" d="M1506.712,538.067a6.365,6.365,0,0,0,1.557,3.428,7.958,7.958,0,0,1-4.524-7.027c0-2.207-.331-5.476.775-7.774a4.749,4.749,0,0,1,4.54-2.692c.177-.006.354-.012.519-.012a12.143,12.143,0,0,0-2.316,4.62,22.436,22.436,0,0,0-.554,9.457Z" transform="translate(-1503.698 -523.989)" fill="#f15c27"/>
                    <path id="Path_100" data-name="Path 100" d="M1522.978,529.182a5.4,5.4,0,0,1-.673.336c-1.7.719-4.215.787-7.342-.918a16.408,16.408,0,0,1-1.848-1.17,7.512,7.512,0,0,1-.9-.747,4.748,4.748,0,0,1,4.54-2.692c.177-.006.354-.012.519-.012,2.653-.006,4.107.793,4.877,1.985a6.136,6.136,0,0,1,.822,3.217Z" transform="translate(-1511.397 -523.98)" fill="#f15c27"/>
                    <path id="Path_101" data-name="Path 101" d="M1609.829,547.787c.023.759-.023,1.534-.074,2.287-.188,2.647.177,6.839-1.415,9.035a40.457,40.457,0,0,0,.844-8.579c-.023-.793-.023-1.609-.029-2.407a29.594,29.594,0,0,0-.148-3.554,6.135,6.135,0,0,1,.822,3.217Z" transform="translate(-1598.248 -542.584)" fill="#fff" opacity="0.7"/>
                  </g>
                  <g id="Group_29" data-name="Group 29">
                    <path id="Path_102" data-name="Path 102" d="M1464.9,489.879a6.3,6.3,0,0,1-4.951,2.789c-5.955.559-7.444-1.511-7.592-1.74.1.291,1.227,3.61-1.307,4.512l-.234,2.179-.65-.057-1.238,4.655a6.678,6.678,0,0,1-2.984-2.9,11.871,11.871,0,0,1-1.438-4.638c-.012-.1-.023-.194-.029-.285-.548-5.886,3.474-7.073,5.276-6.377a3.612,3.612,0,0,1,2.767-3.24c2.653-.65,5.778,1.3,5.778,1.3a6.6,6.6,0,0,1,5.6-1.528,2.476,2.476,0,0,1,1.774,2.367,4.925,4.925,0,0,1-.771,2.972Z" transform="translate(-1444.423 -484.382)" fill="#95425e"/>
                    <path id="Path_103" data-name="Path 103" d="M1465.685,486.906a2.764,2.764,0,0,0-2.311-1.877c-2.248-.114-4.757,1.825-4.757,1.825s-2.784-2.094-5.6-1.443-2.738,3.771-2.738,3.771-5.088-1.6-5.784,5.207c-.548-5.886,3.474-7.073,5.276-6.377a3.612,3.612,0,0,1,2.767-3.24c2.653-.65,5.778,1.3,5.778,1.3a6.6,6.6,0,0,1,5.6-1.528,2.477,2.477,0,0,1,1.774,2.367Z" transform="translate(-1444.441 -484.382)" fill="#fff" opacity="0.7"/>
                    <path id="Path_104" data-name="Path 104" d="M1478.241,528.766a6.3,6.3,0,0,1-4.951,2.789c-5.955.559-7.444-1.511-7.592-1.74.1.291,1.227,3.61-1.307,4.512l-.234,2.179-.65-.057-1.238,4.655a6.679,6.679,0,0,1-2.984-2.9,6.887,6.887,0,0,1,.239-3.24,13.766,13.766,0,0,0,.839-5.066,5.081,5.081,0,0,0,4-.342c2.174-1.107,2.059-2.133,2.059-2.133,3.747,2.744,9.309,2.6,11.819,1.346Z" transform="translate(-1457.767 -523.27)" fill="#56154a"/>
                  </g>
                  <g id="Group_30" data-name="Group 30" transform="translate(2.397 9.993)">
                    <path id="Path_105" data-name="Path 105" d="M1473.631,591.619l-.051,1.82a3.51,3.51,0,0,1-4.289-3.405v-.006a1.864,1.864,0,0,1,1.249-1.888c1.888-.65,2.647,1.3,2.932,2.538A7.34,7.34,0,0,1,1473.631,591.619Z" transform="translate(-1469.289 -588.01)" fill="#f58a64"/>
                    <path id="Path_106" data-name="Path 106" d="M1473.461,590.677c-.5-.861-1.444-2.2-2.561-2.07a2.01,2.01,0,0,0-1.62,1.42,1.864,1.864,0,0,1,1.249-1.888c1.888-.65,2.647,1.3,2.932,2.538Z" transform="translate(-1469.28 -588.01)" fill="#fff" opacity="0.7"/>
                    <path id="Path_107" data-name="Path 107" d="M1481.565,603.731a.322.322,0,0,1-.3-.2,5.338,5.338,0,0,0-2.232-2.384.322.322,0,0,1,.294-.572,5.938,5.938,0,0,1,2.532,2.709.321.321,0,0,1-.173.42.31.31,0,0,1-.123.025Z" transform="translate(-1477.937 -599.334)" fill="#f15c27"/>
                    <path id="Path_108" data-name="Path 108" d="M1485.518,612.069a.321.321,0,0,1-.321-.312,3.948,3.948,0,0,1,.624-2.131.322.322,0,1,1,.529.365,3.333,3.333,0,0,0-.51,1.748.323.323,0,0,1-.313.33Z" transform="translate(-1483.662 -607.415)" fill="#f15c27"/>
                  </g>
                </g>
                <g id="Group_36" data-name="Group 36" transform="translate(0 20.613)">
                  <g id="Group_32" data-name="Group 32" transform="translate(0.276 11.676)">
                    <path id="Path_109" data-name="Path 109" d="M1221.163,835.153s-3.526,16.051-5.876,20.906-7.752,2.818-9.24-.468a7.789,7.789,0,0,1-.337-3.53c.325-4.735,2.515-12.332,3.936-18.63,1.882-8.3,4.466-12.686,7.524-14.22.233.342.462.691.673,1.049C1220.313,824.446,1221.037,829.631,1221.163,835.153Z" transform="translate(-1205.667 -819.21)" fill="#c7dff4"/>
                    <path id="Path_110" data-name="Path 110" d="M1218.252,820.259a15.7,15.7,0,0,0-5.99,8.933c-1.5,5.612-5.538,22.383-5.538,22.383s-.245.2-.6.485c.325-4.735,2.515-12.332,3.935-18.63,1.882-8.3,4.466-12.686,7.524-14.22.233.342.462.691.673,1.049Z" transform="translate(-1206.076 -819.21)" fill="#fff" opacity="0.7"/>
                  </g>
                  <g id="Group_35" data-name="Group 35">
                    <g id="Group_33" data-name="Group 33" transform="translate(15.925)">
                      <path id="Path_111" data-name="Path 111" d="M1377.91,712.188c.08,1.124-.816,2.207-1.278,3.217a43.043,43.043,0,0,1-3.177,4.261c-.125.171-2.327-1.443-3.908-2.641l-1.123-.85c-.3-.234-.474-.37-.474-.37s7.016-17.294,7.557-17.568a.873.873,0,0,1,.411-.1c.36.017.61.365.439,1.227-.229,1.164-2.362,7.712-2.362,7.712a1.385,1.385,0,0,1,1.2.08c.616.348.5,1.392.5,1.392s1.01.234,1.2.97a3.887,3.887,0,0,1,.034,1.512,1.006,1.006,0,0,1,.5.194,1.24,1.24,0,0,1,.468.97Z" transform="translate(-1367.95 -698.134)" fill="#f58a64"/>
                      <path id="Path_112" data-name="Path 112" d="M1392.873,834.789c.08,1.123-.816,2.207-1.278,3.217a43.008,43.008,0,0,1-3.177,4.261c-.125.171-2.327-1.443-3.907-2.641,1.534-.507,3.554-.775,5.344-2.527a15.007,15.007,0,0,0,2.55-3.28,1.24,1.24,0,0,1,.468.97Z" transform="translate(-1382.913 -820.735)" fill="#f15c27"/>
                      <path id="Path_113" data-name="Path 113" d="M1375.928,698.13c-2.1,4.209-6.211,14.734-7.495,18.042-.3-.234-.474-.37-.474-.37s7.017-17.294,7.558-17.568a.873.873,0,0,1,.411-.1Z" transform="translate(-1367.959 -698.13)" fill="#fff" opacity="0.7"/>
                    </g>
                    <g id="Group_34" data-name="Group 34" transform="translate(0 16.575)">
                      <path id="Path_114" data-name="Path 114" d="M1225.408,875.895s-11.745,25.759-13.467,27.8a5.129,5.129,0,0,1-7.831-.313,6.031,6.031,0,0,1-.981-2.293,12.6,12.6,0,0,1-.3-2.789,16.3,16.3,0,0,1,1.911-7.992c2.037-3.291,13.621-20.284,13.621-20.284.365.137.713.274,1.043.422a11.574,11.574,0,0,1,5.567,4.524,4.725,4.725,0,0,1,.439.93Z" transform="translate(-1202.825 -870.019)" fill="#c7dff4"/>
                      <path id="Path_115" data-name="Path 115" d="M1203.88,893.8a43.882,43.882,0,0,0-1.072,4.483,16.3,16.3,0,0,1,1.911-7.991c2.037-3.291,13.621-20.284,13.621-20.284.365.137.713.274,1.043.422C1216.736,874.129,1204.889,890.505,1203.88,893.8Z" transform="translate(-1202.807 -870.01)" fill="#fff" opacity="0.7"/>
                      <path id="Path_116" data-name="Path 116" d="M1228.239,922.229s-11.745,25.759-13.467,27.8a5.129,5.129,0,0,1-7.831-.313,6.031,6.031,0,0,1-.981-2.293c1.791-2.356,5.59-7.318,7.056-8.841,1.945-2.019,1.123,5.539,1.123,5.539s2.248-7.935,3.3-10.707c.947-2.51,7.427-8.031,10.365-12.11a4.724,4.724,0,0,1,.439.93Z" transform="translate(-1205.656 -916.354)" fill="#336d93" opacity="0.3"/>
                    </g>
                    <path id="Path_117" data-name="Path 117" d="M1349.32,901s4.513,1.371,5.827,4.341Z" transform="translate(-1335.191 -881.437)" fill="#fff" opacity="0.7"/>
                  </g>
                </g>
              </g>
              <g id="Group_40" data-name="Group 40" transform="translate(12.122 59.462)">
                <g id="Group_38" data-name="Group 38">
                  <path id="Path_118" data-name="Path 118" d="M1444.657,1258.26l-.733,12.89-5.047,88.835h-56.317l-5.208-91.612-.572-10.113Z" transform="translate(-1372.125 -1243.094)" fill="#d88128"/>
                  <path id="Path_119" data-name="Path 119" d="M1395.964,1266.11l-18.612,2.263-.572-10.113h18.74Z" transform="translate(-1372.125 -1243.094)" fill="#d88128" opacity="0.3"/>
                  <path id="Path_120" data-name="Path 120" d="M1405.7,1100.99l-.16,2.688-1.094,18.226h-74.678l-.945-15.815-.309-5.1Z" transform="translate(-1328.51 -1100.99)" fill="#d88128"/>
                </g>
                <g id="Group_39" data-name="Group 39">
                  <path id="Path_121" data-name="Path 121" d="M1638.98,1258.26l-.842,14.851-1.916,33.668-3.021,53.206H1576.89l-1.061-18.7-4.276-75.173-.444-7.85Z" transform="translate(-1547.715 -1243.094)" fill="#f29820"/>
                  <path id="Path_122" data-name="Path 122" d="M1680.443,1761.39l-3.021,53.206h-56.311l-1.061-18.7c18.586,8.441,45.928-5.445,60.394-34.5Z" transform="translate(-1591.936 -1697.705)" fill="#d88128" opacity="0.3"/>
                  <path id="Path_123" data-name="Path 123" d="M1638.98,1258.26l-.842,14.851-18.624-1.961-47.96-5.041-.444-7.85Z" transform="translate(-1547.715 -1243.094)" fill="#d88128" opacity="0.3"/>
                  <ellipse id="Ellipse_35" data-name="Ellipse 35" cx="12.357" cy="26.037" rx="12.357" ry="26.037" transform="translate(44.973 36.313)" fill="#fff" opacity="0.7"/>
                  <path id="Path_124" data-name="Path 124" d="M1599.973,1100.99l-1.254,20.914h-74.685l-1.042-17.384-.212-3.53Z" transform="translate(-1504.046 -1100.99)" fill="#f29820"/>
                  <path id="Path_125" data-name="Path 125" d="M1424.437,1100.99l-1.254,20.914-1.479-18.458-16.168.231-58.079.842-18.638,1.569-.309-5.1Z" transform="translate(-1328.51 -1100.99)" fill="#fff" opacity="0.7"/>
                </g>
              </g>
              <g id="Group_41" data-name="Group 41" transform="translate(65.9 26.008)">
                <path id="Path_126" data-name="Path 126" d="M1887.506,756.732h2.21a1.327,1.327,0,0,0,1.326-1.326h0a1.327,1.327,0,0,0-1.326-1.326h-2.21a1.326,1.326,0,0,0-1.326,1.326h0A1.326,1.326,0,0,0,1887.506,756.732Z" transform="translate(-1886.18 -754.08)" fill="#0d1a3a"/>
                <path id="Path_127" data-name="Path 127" d="M1925.663,791.674a.644.644,0,0,1-.643-.643V767.579a5.149,5.149,0,0,0-5.143-5.143h-3.054a.643.643,0,1,1,0-1.286h3.054a6.437,6.437,0,0,1,6.429,6.429v23.452A.643.643,0,0,1,1925.663,791.674Z" transform="translate(-1913.287 -760.468)" fill="#c7dff4"/>
                <path id="Path_128" data-name="Path 128" d="M1953.532,1073.9H1938.96a2.893,2.893,0,0,1,2.893-2.893h8.786a2.893,2.893,0,0,1,2.893,2.893Z" transform="translate(-1933.87 -1040.447)" fill="#f29820"/>
              </g>
              <g id="Group_42" data-name="Group 42" transform="translate(48.323 26.008)">
                <path id="Path_129" data-name="Path 129" d="M1705.236,756.732h2.21a1.326,1.326,0,0,0,1.326-1.326h0a1.326,1.326,0,0,0-1.326-1.326h-2.21a1.327,1.327,0,0,0-1.326,1.326h0A1.327,1.327,0,0,0,1705.236,756.732Z" transform="translate(-1703.91 -754.08)" fill="#0d1a3a"/>
                <path id="Path_130" data-name="Path 130" d="M1743.383,791.674a.644.644,0,0,1-.643-.643V767.579a5.149,5.149,0,0,0-5.143-5.143h-3.054a.643.643,0,0,1,0-1.286h3.054a6.437,6.437,0,0,1,6.429,6.429v23.452A.644.644,0,0,1,1743.383,791.674Z" transform="translate(-1731.008 -760.468)" fill="#c7dff4"/>
                <path id="Path_131" data-name="Path 131" d="M1771.252,1073.9H1756.68a2.893,2.893,0,0,1,2.893-2.893h8.786a2.893,2.893,0,0,1,2.893,2.893Z" transform="translate(-1751.591 -1040.447)" fill="#f29820"/>
              </g>
            </g>
            <g id="Group_44" data-name="Group 44" transform="translate(60.428 220.143)">
              <rect id="Rectangle_13" data-name="Rectangle 13" width="465.789" height="7.135" transform="translate(0)" fill="#4b699f"/>
              <rect id="Rectangle_14" data-name="Rectangle 14" width="465.788" height="60.56" transform="translate(0.003 7.137)" fill="#fff"/>
              <path id="Path_132" data-name="Path 132" d="M486.268,2328.429v54.987H20.48v-60.56h54.1c41.242,33.18,176.9,39.673,256.437,16.3,24.057-7.066,46.719-12.755,67.388-16.3,29.309-5.027,54.62-5.754,74.222,0a67.993,67.993,0,0,1,13.643,5.574Z" transform="translate(-20.477 -2315.718)" fill="#336d93" opacity="0.3"/>
              <rect id="Rectangle_15" data-name="Rectangle 15" width="465.789" height="15.986" transform="translate(0 67.698)" fill="#4ea2d9"/>
            </g>
            <g id="Group_87" data-name="Group 87" transform="translate(0 155.545)">
              <g id="Group_53" data-name="Group 53" transform="translate(98.989 52.936)">
                <g id="Group_48" data-name="Group 48" transform="translate(55.405)">
                  <g id="Group_46" data-name="Group 46" transform="translate(1.998)">
                    <path id="Path_133" data-name="Path 133" d="M1238.891,2406.52l-.281,10.115h11.145l-1.031-9.646Z" transform="translate(-1217.102 -2383.31)" fill="#0d1a3a"/>
                    <g id="Group_45" data-name="Group 45" transform="translate(17.315 28.139)">
                      <path id="Path_134" data-name="Path 134" d="M1214.821,2464.95l-1.074-.059-18.617-1.015.782-5.289c0-.006.006-.006.012-.006.04-.006.216-.046.508-.111.006,0,.012-.006.023-.006,2.072-.432,9.725-1.774,17.093.315l1.273,6.171Z" transform="translate(-1195.13 -2457.64)" fill="#0d1a3a"/>
                      <path id="Path_135" data-name="Path 135" d="M1227.236,2464.95l-1.074-.059-1.162-4.77c-3.958-1.583-13.713-1.9-16.13-1.658,2.072-.432,9.725-1.774,17.093.315Z" transform="translate(-1207.545 -2457.64)" fill="#0d1a3a"/>
                    </g>
                    <path id="Path_136" data-name="Path 136" d="M1068.6,2533.485l-53.018-1.279s.321-16.93,6.066-22.68a3.756,3.756,0,0,1,1-.677c6.45-3.217,32.563-2.8,37.806.2,2.931,1.669,5.026,8.3,6.357,14.221C1068.021,2528.663,1068.6,2533.485,1068.6,2533.485Z" transform="translate(-1015.58 -2473.751)" fill="#0d1a3a"/>
                    <path id="Path_137" data-name="Path 137" d="M1162.706,2199.632c-1.131,3.195-5.355,3.195-5.355,3.195s-1.44,3.812-9.991,3.5-8.448-3.806-8.448-3.806c-5.458-3.4-3.4-8.036-.309-11.849s.514-11.019,2.99-14.221l1.131-2.681a8.513,8.513,0,0,1,8.493-7.934h.752a8.516,8.516,0,0,1,8.518,8.518v9.219a8.529,8.529,0,0,1-.437,2.7c.771,3.922,3.78,10.2,2.655,13.353Z" transform="translate(-1123.953 -2165.84)" fill="#0d1a3a"/>
                  </g>
                  <g id="Group_47" data-name="Group 47" transform="translate(0 39.448)">
                    <path id="Path_138" data-name="Path 138" d="M994.861,2585.091v45.715h55.9v-45.715a10.178,10.178,0,0,0-10.176-10.181h-35.541a10.176,10.176,0,0,0-10.182,10.181Z" transform="translate(-994.86 -2574.91)" fill="#0d1a3a"/>
                    <path id="Path_139" data-name="Path 139" d="M1017.33,2578.81a10.16,10.16,0,0,1,6.282-2.166h36.936a8.782,8.782,0,0,1,8.78,8.786v45.377h1.734v-45.715a10.178,10.178,0,0,0-10.176-10.182h-35.541A10.172,10.172,0,0,0,1017.33,2578.81Z" transform="translate(-1015.163 -2574.91)" fill="#0d1a3a"/>
                  </g>
                </g>
                <g id="Group_52" data-name="Group 52">
                  <g id="Group_50" data-name="Group 50" transform="translate(1.998)">
                    <path id="Path_140" data-name="Path 140" d="M664.351,2406.52l-.281,10.115h11.145l-1.03-9.646Z" transform="translate(-642.562 -2383.31)" fill="#0d1a3a"/>
                    <g id="Group_49" data-name="Group 49" transform="translate(17.315 28.139)">
                      <path id="Path_141" data-name="Path 141" d="M640.281,2464.95l-1.074-.059-18.617-1.015.782-5.289c0-.006.006-.006.012-.006.041-.006.216-.046.508-.111.006,0,.012-.006.023-.006,2.072-.432,9.725-1.774,17.093.315Z" transform="translate(-620.59 -2457.64)" fill="#0d1a3a"/>
                      <path id="Path_142" data-name="Path 142" d="M652.7,2464.95l-1.074-.059-1.162-4.77c-3.958-1.583-13.713-1.9-16.129-1.658,2.072-.432,9.725-1.774,17.093.315Z" transform="translate(-633.005 -2457.64)" fill="#0d1a3a"/>
                    </g>
                    <path id="Path_143" data-name="Path 143" d="M494.058,2533.485l-53.018-1.279s.321-16.93,6.066-22.68a3.756,3.756,0,0,1,1-.677c6.45-3.217,32.563-2.8,37.806.2,2.931,1.669,5.026,8.3,6.357,14.221C493.481,2528.663,494.058,2533.485,494.058,2533.485Z" transform="translate(-441.04 -2473.751)" fill="#0d1a3a"/>
                    <path id="Path_144" data-name="Path 144" d="M588.166,2199.632c-1.131,3.195-5.355,3.195-5.355,3.195s-1.44,3.812-9.991,3.5-8.448-3.806-8.448-3.806c-5.458-3.4-3.4-8.036-.309-11.849s.514-11.019,2.989-14.221l1.131-2.681a8.513,8.513,0,0,1,8.493-7.934h.752a8.516,8.516,0,0,1,8.518,8.518v9.219a8.528,8.528,0,0,1-.437,2.7c.771,3.922,3.78,10.2,2.655,13.353Z" transform="translate(-549.413 -2165.84)" fill="#0d1a3a"/>
                  </g>
                  <g id="Group_51" data-name="Group 51" transform="translate(0 39.448)">
                    <path id="Path_145" data-name="Path 145" d="M420.321,2585.091v45.715h55.9v-45.715a10.178,10.178,0,0,0-10.176-10.181H430.5a10.176,10.176,0,0,0-10.181,10.181Z" transform="translate(-420.32 -2574.91)" fill="#0d1a3a"/>
                    <path id="Path_146" data-name="Path 146" d="M442.79,2578.81a10.16,10.16,0,0,1,6.282-2.166h36.936a8.782,8.782,0,0,1,8.78,8.786v45.377h1.734v-45.715a10.178,10.178,0,0,0-10.176-10.182H450.806A10.172,10.172,0,0,0,442.79,2578.81Z" transform="translate(-440.623 -2574.91)" fill="#0d1a3a"/>
                  </g>
                </g>
              </g>
              <g id="Group_66" data-name="Group 66" transform="translate(46.741 34.237)">
                <g id="Group_59" data-name="Group 59" transform="translate(67.733)">
                  <g id="Group_57" data-name="Group 57" transform="translate(2.388)">
                    <g id="Group_54" data-name="Group 54" transform="translate(18.94)">
                      <path id="Path_147" data-name="Path 147" d="M804.672,2102.225h0a2.622,2.622,0,0,1-2.622-2.622v-4.51a2.622,2.622,0,0,1,2.622-2.622h0a2.622,2.622,0,0,1,2.622,2.622v4.51A2.622,2.622,0,0,1,804.672,2102.225Z" transform="translate(-802.05 -2080.847)" fill="#0d1a3a"/>
                      <rect id="Rectangle_16" data-name="Rectangle 16" width="21.275" height="31.407" rx="10.638" transform="translate(3.486)" fill="#0d1a3a"/>
                      <path id="Path_148" data-name="Path 148" d="M1045.632,2102.225h0a2.622,2.622,0,0,1-2.622-2.622v-4.51a2.622,2.622,0,0,1,2.622-2.622h0a2.622,2.622,0,0,1,2.622,2.622v4.51A2.622,2.622,0,0,1,1045.632,2102.225Z" transform="translate(-1019.773 -2080.847)" fill="#0d1a3a"/>
                    </g>
                    <path id="Path_149" data-name="Path 149" d="M872.767,2259.81l-.337,12.1h13.331l-1.232-11.538Z" transform="translate(-846.703 -2232.05)" fill="#0d1a3a"/>
                    <g id="Group_55" data-name="Group 55" transform="translate(20.712 33.659)">
                      <path id="Path_150" data-name="Path 150" d="M843.982,2329.716l-1.284-.07-22.268-1.215.935-6.326c0-.007.007-.007.014-.007.049-.007.258-.056.607-.133.007,0,.014-.007.028-.007,2.479-.517,11.633-2.123,20.446.377l1.523,7.381Z" transform="translate(-820.43 -2320.974)" fill="#0d1a3a"/>
                      <path id="Path_151" data-name="Path 151" d="M858.828,2329.717l-1.284-.07-1.39-5.7c-4.734-1.892-16.4-2.277-19.293-1.983,2.479-.517,11.633-2.123,20.446.377l1.523,7.381Z" transform="translate(-835.276 -2320.974)" fill="#0d1a3a"/>
                    </g>
                    <g id="Group_56" data-name="Group 56" transform="translate(0 39.307)">
                      <path id="Path_152" data-name="Path 152" d="M669.068,2411.69l-63.418-1.529s.384-20.25,7.255-27.128a4.5,4.5,0,0,1,1.2-.81c7.716-3.848,38.95-3.344,45.221.237,3.505,2,6.012,9.922,7.6,17.01,1.445,6.452,2.137,12.22,2.137,12.22Z" transform="translate(-605.65 -2379.549)" fill="#0d1a3a"/>
                      <path id="Path_153" data-name="Path 153" d="M746.165,2399.47c-1.543.209-2.939-.887-3.687-4.036-2.667-11.2-6.724-12.164-6.724-12.164-7.862-2.423-33.636-2.911-42.414-1.047,7.716-3.848,38.95-3.344,45.221.237C742.066,2384.457,744.573,2392.382,746.165,2399.47Z" transform="translate(-684.884 -2379.548)" fill="#0d1a3a"/>
                    </g>
                  </g>
                  <g id="Group_58" data-name="Group 58" transform="translate(0 47.184)">
                    <path id="Path_154" data-name="Path 154" d="M580.89,2473.408v54.682h66.86v-54.682a12.173,12.173,0,0,0-12.171-12.178H593.068a12.171,12.171,0,0,0-12.178,12.178Z" transform="translate(-580.89 -2461.23)" fill="#0d1a3a"/>
                    <path id="Path_155" data-name="Path 155" d="M607.75,2465.9a12.145,12.145,0,0,1,7.513-2.59h44.18a10.5,10.5,0,0,1,10.5,10.509V2528.1h2.074v-54.682a12.173,12.173,0,0,0-12.171-12.178H617.337a12.167,12.167,0,0,0-9.587,4.665Z" transform="translate(-605.16 -2461.239)" fill="#0d1a3a"/>
                  </g>
                </g>
                <g id="Group_65" data-name="Group 65" transform="translate(0)">
                  <g id="Group_63" data-name="Group 63" transform="translate(2.389)">
                    <g id="Group_60" data-name="Group 60" transform="translate(18.939)">
                      <path id="Path_156" data-name="Path 156" d="M102.292,2102.225h0a2.622,2.622,0,0,1-2.622-2.622v-4.51a2.622,2.622,0,0,1,2.622-2.622h0a2.622,2.622,0,0,1,2.622,2.622v4.51A2.622,2.622,0,0,1,102.292,2102.225Z" transform="translate(-99.67 -2080.847)" fill="#0d1a3a"/>
                      <path id="Path_157" data-name="Path 157" d="M146.458,2003.347h0a10.638,10.638,0,0,1-10.638-10.638v-10.131a10.638,10.638,0,0,1,10.638-10.638h0a10.638,10.638,0,0,1,10.638,10.638v10.131A10.638,10.638,0,0,1,146.458,2003.347Z" transform="translate(-132.334 -1971.94)" fill="#0d1a3a"/>
                      <path id="Path_158" data-name="Path 158" d="M343.242,2102.225h0a2.622,2.622,0,0,1-2.622-2.622v-4.51a2.622,2.622,0,0,1,2.622-2.622h0a2.622,2.622,0,0,1,2.622,2.622v4.51A2.622,2.622,0,0,1,343.242,2102.225Z" transform="translate(-317.384 -2080.847)" fill="#0d1a3a"/>
                    </g>
                    <path id="Path_159" data-name="Path 159" d="M170.386,2259.81l-.336,12.1h13.33l-1.231-11.538Z" transform="translate(-144.324 -2232.05)" fill="#0d1a3a"/>
                    <g id="Group_61" data-name="Group 61" transform="translate(20.711 33.659)">
                      <path id="Path_160" data-name="Path 160" d="M141.6,2329.716l-1.285-.07-22.268-1.215.935-6.326c0-.007.007-.007.014-.007.049-.007.258-.056.608-.133.007,0,.013-.007.028-.007,2.479-.517,11.633-2.123,20.446.377l1.523,7.381Z" transform="translate(-118.05 -2320.974)" fill="#0d1a3a"/>
                      <path id="Path_161" data-name="Path 161" d="M156.448,2329.717l-1.284-.07-1.39-5.7c-4.734-1.892-16.4-2.277-19.294-1.983,2.479-.517,11.633-2.123,20.446.377l1.523,7.381Z" transform="translate(-132.896 -2320.974)" fill="#0d1a3a"/>
                    </g>
                    <g id="Group_62" data-name="Group 62" transform="translate(0 39.307)">
                      <path id="Path_162" data-name="Path 162" d="M-33.3,2411.69l-63.417-1.529s.384-20.25,7.255-27.128a4.5,4.5,0,0,1,1.2-.81c7.716-3.848,38.95-3.344,45.221.237,3.505,2,6.012,9.922,7.6,17.01C-33.995,2405.922-33.3,2411.69-33.3,2411.69Z" transform="translate(96.72 -2379.549)" fill="#0d1a3a"/>
                      <path id="Path_163" data-name="Path 163" d="M43.785,2399.47c-1.543.209-2.939-.887-3.687-4.036-2.667-11.2-6.724-12.164-6.724-12.164-7.862-2.423-33.636-2.911-42.414-1.047,7.716-3.848,38.95-3.344,45.221.237,3.505,2,6.012,9.922,7.6,17.01Z" transform="translate(17.495 -2379.548)" fill="#0d1a3a"/>
                    </g>
                  </g>
                  <g id="Group_64" data-name="Group 64" transform="translate(0 47.184)">
                    <path id="Path_164" data-name="Path 164" d="M-121.49,2473.408v54.682h66.86v-54.682A12.173,12.173,0,0,0-66.8,2461.23h-42.511a12.167,12.167,0,0,0-9.587,4.665A12.143,12.143,0,0,0-121.49,2473.408Z" transform="translate(121.49 -2461.23)" fill="#0d1a3a"/>
                    <path id="Path_165" data-name="Path 165" d="M-94.63,2465.9a12.145,12.145,0,0,1,7.513-2.59h44.18a10.5,10.5,0,0,1,10.5,10.509V2528.1h2.074v-54.682a12.173,12.173,0,0,0-12.171-12.178H-85.043a12.167,12.167,0,0,0-9.587,4.665Z" transform="translate(97.22 -2461.239)" fill="#0d1a3a"/>
                  </g>
                </g>
              </g>
              <g id="Group_77" data-name="Group 77" transform="translate(0 18.069)">
                <g id="Group_73" data-name="Group 73" transform="translate(75.785)">
                  <g id="Group_71" data-name="Group 71" transform="translate(2.694)">
                    <g id="Group_68" data-name="Group 68" transform="translate(21.359)">
                      <path id="Path_166" data-name="Path 166" d="M429.574,1956.8H434.6a.444.444,0,0,1,.444.443v10.113a.444.444,0,0,1-.444.444h-5.027a.444.444,0,0,1-.444-.444v-10.113A.444.444,0,0,1,429.574,1956.8Z" transform="translate(-429.13 -1942.092)" fill="#376f94"/>
                      <path id="Path_167" data-name="Path 167" d="M481.9,1856.288h0a12,12,0,0,1-12-12v-11.425a12,12,0,0,1,12-12h0a12,12,0,0,1,12,12v11.425A12,12,0,0,1,481.9,1856.288Z" transform="translate(-465.968 -1819.27)" fill="#376f94"/>
                      <g id="Group_67" data-name="Group 67" transform="translate(2.578)">
                        <path id="Path_168" data-name="Path 168" d="M482.513,1817.677c.008.008,0,.016,0,.024-.425,2.544-.851,4.457-.851,4.457h-2.922l-3.6,11.986H460.526l-3.315-7.694c-.826-3.5-1.63-7.591-1.252-11.292s1.93-7.024,5.835-8.969a16.773,16.773,0,0,1,14.317-.59s6.82-2.527,7.213,2.441a45.073,45.073,0,0,1-.811,9.639Z" transform="translate(-455.863 -1804.288)" fill="#0d1a3a"/>
                        <path id="Path_169" data-name="Path 169" d="M483.423,1817.668c.142-2.828.291-9.316-1.134-10.245-1.843-1.2-4.717.315-4.717.315a17.246,17.246,0,0,0-12.237-1.119c-5.111,1.308-7.434,5.457-8.465,8.529.378-3.7,1.93-7.024,5.835-8.969a16.772,16.772,0,0,1,14.317-.59s6.82-2.528,7.213,2.441a45.071,45.071,0,0,1-.811,9.639Z" transform="translate(-456.773 -1804.279)" fill="#4ea2d9" opacity="0.3"/>
                      </g>
                      <path id="Path_170" data-name="Path 170" d="M703.827,1967.809h0a2.956,2.956,0,0,1-2.957-2.957v-5.086a2.957,2.957,0,0,1,2.957-2.957h0a2.957,2.957,0,0,1,2.957,2.957v5.086A2.957,2.957,0,0,1,703.827,1967.809Z" transform="translate(-674.665 -1942.101)" fill="#376f94"/>
                    </g>
                    <path id="Path_171" data-name="Path 171" d="M508.879,2145.51l-.379,13.644h15.033l-1.39-13.013Z" transform="translate(-479.487 -2112.604)" fill="#376f94"/>
                    <g id="Group_69" data-name="Group 69" transform="translate(23.356 39.556)">
                      <path id="Path_172" data-name="Path 172" d="M476.4,2224.34l-1.449-.079-25.112-1.37,1.055-7.134c0-.008.008-.008.015-.008.055-.008.291-.063.685-.15.008,0,.015-.008.032-.008,2.8-.583,13.12-2.394,23.057.425l1.717,8.323Z" transform="translate(-449.84 -2214.48)" fill="#334b7d"/>
                      <path id="Path_173" data-name="Path 173" d="M493.145,2224.332l-1.449-.079-1.567-6.434c-5.339-2.134-18.5-2.567-21.758-2.236,2.8-.582,13.12-2.393,23.057.426l1.717,8.323Z" transform="translate(-466.583 -2214.471)" fill="#4ea2d9"/>
                    </g>
                    <g id="Group_70" data-name="Group 70" transform="translate(0 45.928)">
                      <path id="Path_174" data-name="Path 174" d="M279.158,2316.793l-71.518-1.724s.433-22.837,8.181-30.594a5.057,5.057,0,0,1,1.355-.913c8.7-4.339,43.926-3.772,51,.268,3.953,2.252,6.78,11.19,8.576,19.183,1.63,7.276,2.41,13.781,2.41,13.781Z" transform="translate(-207.64 -2280.546)" fill="#334b7d"/>
                      <path id="Path_175" data-name="Path 175" d="M366.1,2303.013c-1.741.236-3.315-1-4.158-4.552-3.008-12.631-7.584-13.718-7.584-13.718-8.867-2.733-37.933-3.284-47.831-1.181,8.7-4.339,43.926-3.772,51,.268C361.48,2286.082,364.307,2295.02,366.1,2303.013Z" transform="translate(-296.994 -2280.546)" fill="#4ea2d9"/>
                    </g>
                  </g>
                  <g id="Group_72" data-name="Group 72" transform="translate(0 54.81)">
                    <path id="Path_176" data-name="Path 176" d="M179.7,2386.393v61.667h75.4v-61.667a13.728,13.728,0,0,0-13.725-13.733H193.434a13.727,13.727,0,0,0-13.734,13.734Z" transform="translate(-179.7 -2372.659)" fill="#0d1a3a"/>
                    <path id="Path_177" data-name="Path 177" d="M210.01,2377.91a13.693,13.693,0,0,1,8.474-2.922h49.824a11.847,11.847,0,0,1,11.844,11.852v61.21h2.339v-61.667a13.728,13.728,0,0,0-13.725-13.733H220.822A13.719,13.719,0,0,0,210.01,2377.91Z" transform="translate(-207.087 -2372.65)" fill="#4ea2d9"/>
                  </g>
                </g>
                <g id="Group_76" data-name="Group 76" transform="translate(0 45.928)">
                  <g id="Group_74" data-name="Group 74" transform="translate(2.694)">
                    <path id="Path_178" data-name="Path 178" d="M-506.722,2316.793l-71.518-1.724s.433-22.837,8.181-30.594a5.057,5.057,0,0,1,1.355-.913c8.7-4.339,43.926-3.772,51,.268,3.953,2.252,6.78,11.19,8.576,19.183,1.63,7.276,2.41,13.781,2.41,13.781Z" transform="translate(578.24 -2280.546)" fill="#334b7d"/>
                    <path id="Path_179" data-name="Path 179" d="M-419.787,2303.013c-1.741.236-3.315-1-4.158-4.552-3.008-12.631-7.584-13.718-7.584-13.718-8.867-2.733-37.933-3.284-47.831-1.181,8.7-4.339,43.926-3.772,51,.268C-424.41,2286.082-421.583,2295.02-419.787,2303.013Z" transform="translate(488.895 -2280.546)" fill="#4ea2d9"/>
                  </g>
                  <g id="Group_75" data-name="Group 75" transform="translate(0 8.882)">
                    <path id="Path_180" data-name="Path 180" d="M-606.179,2386.393v61.667h75.4v-61.667A13.728,13.728,0,0,0-544.5,2372.66h-47.942a13.719,13.719,0,0,0-10.812,5.26,13.7,13.7,0,0,0-2.922,8.474Z" transform="translate(606.18 -2372.659)" fill="#0d1a3a"/>
                    <path id="Path_181" data-name="Path 181" d="M-575.879,2377.91a13.693,13.693,0,0,1,8.474-2.922h49.823a11.847,11.847,0,0,1,11.844,11.852v61.21h2.339v-61.667a13.728,13.728,0,0,0-13.725-13.733h-47.942a13.719,13.719,0,0,0-10.812,5.26Z" transform="translate(578.802 -2372.65)" fill="#4ea2d9"/>
                  </g>
                </g>
              </g>
              <g id="Group_86" data-name="Group 86" transform="translate(32.052)">
                <g id="Group_84" data-name="Group 84" transform="translate(2.981)">
                  <rect id="Rectangle_17" data-name="Rectangle 17" width="26.56" height="39.207" rx="13.28" transform="translate(27.996 5.91)" fill="#376f94"/>
                  <g id="Group_78" data-name="Group 78" transform="translate(31.786 40.23)">
                    <path id="Path_182" data-name="Path 182" d="M90.559,2037.57l-.419,15.1h16.642l-1.538-14.4Z" transform="translate(-89.809 -2037.234)" fill="#fff"/>
                    <path id="Path_183" data-name="Path 183" d="M104.04,2049.841H86.71l.438-15.761,15.287.727Zm-16.669-.643h15.954l-1.471-13.775-14.081-.67-.4,14.445Z" transform="translate(-86.71 -2034.08)" fill="#231f20"/>
                  </g>
                  <g id="Group_81" data-name="Group 81" transform="translate(25.486 47.608)">
                    <g id="Group_79" data-name="Group 79" transform="translate(0 0.001)">
                      <path id="Path_184" data-name="Path 184" d="M54.623,2124.821l-1.6-.087-27.8-1.517,1.168-7.9c0-.009.009-.009.017-.009.061-.009.322-.07.758-.166.009,0,.017-.009.035-.009,3.095-.645,14.523-2.65,25.524.471Z" transform="translate(-24.851 -2113.587)" fill="#fff"/>
                      <path id="Path_185" data-name="Path 185" d="M51.561,2122.18l-30.171-1.646,1.26-8.521.3-.009c-.006,0,.113-.03.3-.072l.443-.1c3.269-.679,14.693-2.631,25.66.479l.188.053,2.024,9.813Zm-29.433-2.25,28.635,1.562-1.776-8.614c-10.777-3-21.97-1.082-25.173-.415l-.066.015-.361.08-.177.04-1.081,7.331Z" transform="translate(-21.39 -2110.604)" fill="#231f20"/>
                    </g>
                    <g id="Group_80" data-name="Group 80" transform="translate(2.283)">
                      <path id="Path_186" data-name="Path 186" d="M73.164,2124.83l-1.6-.087-1.735-7.122c-5.91-2.363-20.477-2.842-24.085-2.475,3.095-.645,14.523-2.65,25.524.47l1.9,9.214Z" transform="translate(-45.674 -2113.595)" fill="#fff"/>
                      <path id="Path_187" data-name="Path 187" d="M72.949,2122.17l-2.258-.123-1.751-7.192c-5.909-2.27-20.273-2.749-23.781-2.395l-.1-.634c3.246-.676,14.69-2.641,25.677.475l.188.053,2.024,9.813Zm-1.747-.739.949.052-1.776-8.613a54.479,54.479,0,0,0-20.653-1.151c5.934.1,15.139.814,19.61,2.6l.154.061,1.717,7.051Z" transform="translate(-45.06 -2110.592)" fill="#231f20"/>
                    </g>
                  </g>
                  <g id="Group_82" data-name="Group 82" transform="translate(0 54.98)">
                    <path id="Path_188" data-name="Path 188" d="M-163.731,2227.164l-79.169-1.909s.479-25.28,9.057-33.867a5.613,5.613,0,0,1,1.5-1.011c9.633-4.8,48.625-4.176,56.452.3,4.376,2.493,7.505,12.387,9.493,21.235,1.8,8.055,2.667,15.255,2.667,15.255Z" transform="translate(242.9 -2187.038)" fill="#334b7d"/>
                    <path id="Path_189" data-name="Path 189" d="M-67.485,2211.909c-1.927.261-3.67-1.107-4.6-5.039-3.33-13.982-8.395-15.185-8.395-15.185-9.815-3.025-41.99-3.635-52.948-1.308,9.633-4.8,48.625-4.176,56.452.3,4.376,2.493,7.505,12.387,9.493,21.235Z" transform="translate(143.987 -2187.038)" fill="#4ea2d9"/>
                  </g>
                  <path id="Path_190" data-name="Path 190" d="M-23.194,1825.353c-1.69,4.767-8,4.767-8,4.767s-2.152,5.7-14.917,5.234-12.609-5.69-12.609-5.69c-8.154-5.078-5.079-12-.462-17.688s.768-16.458,4.461-21.232l.917-4.767,26.148-.768s-.208,4.871-.169,10.079a67.011,67.011,0,0,0,.631,9.917c1.079,5.846,5.7,15.379,4,20.146Z" transform="translate(81.06 -1768.98)" fill="#0d1a3a"/>
                  <path id="Path_191" data-name="Path 191" d="M282.218,1919.8c-1.69,4.767-8,4.767-8,4.767,9.214-1.925,6.35-10.047,3.759-18.683-1.849-6.164-.988-13.194-.391-16.146a67.009,67.009,0,0,0,.631,9.917c1.079,5.846,5.7,15.379,4,20.146Z" transform="translate(-224.352 -1863.429)" fill="#4ea2d9" opacity="0.3"/>
                  <g id="Group_83" data-name="Group 83" transform="translate(12.967)">
                    <path id="Path_192" data-name="Path 192" d="M-55.474,1718c-1.873,2.627-5.514,5.078-10.06,6.314-11.38,3.076-17.382,6.457-27.533,5.378s-18.611-8.766-14.15-12.914a14.6,14.6,0,0,1,3.791-2.569c3.681-1.743,7.829-1.847,11.9-1.281,0,0,16.3-6.151,29.685-4.3,8.031,1.112,9.188,5.43,6.367,9.377Z" transform="translate(108.437 -1699.463)" fill="#0d1a3a"/>
                    <path id="Path_193" data-name="Path 193" d="M-8.518,1717.987c1.183-3.459.045-6.061-5.547-7.3-7.283-1.619-21.979,4.988-28.723,4.175-4.942-.592-10.112-1.19-13.682-.663,3.681-1.743,7.829-1.847,11.9-1.281,0,0,16.3-6.151,29.685-4.3,8.031,1.112,9.188,5.43,6.367,9.377Z" transform="translate(61.481 -1699.454)" fill="#4ea2d9" opacity="0.3"/>
                    <path id="Path_194" data-name="Path 194" d="M66.36,1633.442s-.208.2-.631.533a22.8,22.8,0,0,1-13.208,4.39c-9.078.306-12.772-4.148-12.772-4.148s1.437-11.881,4.747-15.36l.007-.007a3.174,3.174,0,0,1,1.093-.787c4.155-1.691,15.074-1.691,16.764,1.079s4,14.3,4,14.3Z" transform="translate(-25.46 -1616.905)" fill="#0d1a3a"/>
                  </g>
                </g>
                <g id="Group_85" data-name="Group 85" transform="translate(0 64.813)">
                  <path id="Path_195" data-name="Path 195" d="M-273.81,2304.212v68.265h83.467v-68.265a15.2,15.2,0,0,0-15.194-15.2h-53.07a15.186,15.186,0,0,0-11.968,5.823A15.165,15.165,0,0,0-273.81,2304.212Z" transform="translate(273.81 -2289.009)" fill="#0d1a3a"/>
                  <path id="Path_196" data-name="Path 196" d="M-240.28,2294.825a15.166,15.166,0,0,1,9.38-3.234h55.153a13.114,13.114,0,0,1,13.111,13.119v67.758h2.589V2304.2A15.2,15.2,0,0,0-175.24,2289h-53.07a15.186,15.186,0,0,0-11.968,5.823Z" transform="translate(243.513 -2289)" fill="#4ea2d9"/>
                </g>
              </g>
            </g>
            <g id="Group_149" data-name="Group 149" transform="translate(268.728 155.545)">
              <g id="Group_96" data-name="Group 96" transform="translate(0 52.936)">
                <g id="Group_91" data-name="Group 91">
                  <g id="Group_89" data-name="Group 89" transform="translate(0.882)">
                    <path id="Path_197" data-name="Path 197" d="M2411.693,2406.52l.281,10.115H2400.83l1.03-9.646Z" transform="translate(-2380.463 -2383.31)" fill="#0d1a3a"/>
                    <g id="Group_88" data-name="Group 88" transform="translate(16.014 28.139)">
                      <path id="Path_198" data-name="Path 198" d="M2355.69,2464.95l1.074-.059,18.617-1.015-.782-5.289c0-.006-.006-.006-.012-.006-.041-.006-.216-.046-.508-.111-.006,0-.011-.006-.023-.006-2.072-.432-9.725-1.774-17.093.315Z" transform="translate(-2355.69 -2457.64)" fill="#0d1a3a"/>
                      <path id="Path_199" data-name="Path 199" d="M2355.69,2464.95l1.074-.059,1.162-4.77c3.958-1.583,13.713-1.9,16.13-1.658-2.073-.432-9.725-1.774-17.093.315Z" transform="translate(-2355.69 -2457.64)" fill="#0d1a3a"/>
                    </g>
                    <path id="Path_200" data-name="Path 200" d="M2189.63,2533.485l53.018-1.279s-.321-16.93-6.066-22.68a3.755,3.755,0,0,0-1-.677c-6.45-3.217-32.563-2.8-37.806.2-2.931,1.669-5.026,8.3-6.357,14.221C2190.208,2528.663,2189.63,2533.485,2189.63,2533.485Z" transform="translate(-2189.63 -2473.751)" fill="#0d1a3a"/>
                    <path id="Path_201" data-name="Path 201" d="M2335.236,2199.632c1.131,3.195,5.355,3.195,5.355,3.195s1.44,3.812,9.99,3.5,8.448-3.806,8.448-3.806c5.458-3.4,3.4-8.036.309-11.849s-.514-11.019-2.99-14.221l-1.131-2.681a8.513,8.513,0,0,0-8.493-7.934h-.752a8.516,8.516,0,0,0-8.518,8.518v9.219a8.529,8.529,0,0,0,.437,2.7c-.771,3.922-3.78,10.2-2.655,13.353Z" transform="translate(-2320.97 -2165.84)" fill="#0d1a3a"/>
                  </g>
                  <g id="Group_90" data-name="Group 90" transform="translate(0 39.448)">
                    <path id="Path_202" data-name="Path 202" d="M2236.387,2585.091v45.715h-55.9v-45.715a10.178,10.178,0,0,1,10.176-10.181h35.541a10.175,10.175,0,0,1,10.181,10.181Z" transform="translate(-2180.489 -2574.91)" fill="#0d1a3a"/>
                    <path id="Path_203" data-name="Path 203" d="M2234.212,2578.81a10.16,10.16,0,0,0-6.282-2.166h-36.936a8.782,8.782,0,0,0-8.781,8.786v45.377h-1.734v-45.715a10.178,10.178,0,0,1,10.176-10.182H2226.2A10.173,10.173,0,0,1,2234.212,2578.81Z" transform="translate(-2180.48 -2574.91)" fill="#0d1a3a"/>
                  </g>
                </g>
                <g id="Group_95" data-name="Group 95" transform="translate(55.405)">
                  <g id="Group_93" data-name="Group 93" transform="translate(0.882)">
                    <path id="Path_204" data-name="Path 204" d="M2986.224,2406.52l.281,10.115H2975.36l1.031-9.646Z" transform="translate(-2954.994 -2383.31)" fill="#0d1a3a"/>
                    <g id="Group_92" data-name="Group 92" transform="translate(16.013 28.139)">
                      <path id="Path_205" data-name="Path 205" d="M2930.22,2464.95l1.074-.059,18.616-1.015-.782-5.289c0-.006-.006-.006-.012-.006-.04-.006-.216-.046-.508-.111-.006,0-.011-.006-.023-.006-2.073-.432-9.726-1.774-17.093.315Z" transform="translate(-2930.22 -2457.64)" fill="#0d1a3a"/>
                      <path id="Path_206" data-name="Path 206" d="M2930.22,2464.95l1.074-.059,1.162-4.77c3.958-1.583,13.713-1.9,16.129-1.658-2.072-.432-9.725-1.774-17.093.315Z" transform="translate(-2930.22 -2457.64)" fill="#0d1a3a"/>
                    </g>
                    <path id="Path_207" data-name="Path 207" d="M2764.17,2533.485l53.019-1.279s-.322-16.93-6.066-22.68a3.755,3.755,0,0,0-1-.677c-6.45-3.217-32.563-2.8-37.806.2-2.93,1.669-5.026,8.3-6.357,14.221C2764.748,2528.663,2764.17,2533.485,2764.17,2533.485Z" transform="translate(-2764.17 -2473.751)" fill="#0d1a3a"/>
                    <path id="Path_208" data-name="Path 208" d="M2909.776,2199.632c1.131,3.195,5.355,3.195,5.355,3.195s1.44,3.812,9.991,3.5,8.448-3.806,8.448-3.806c5.458-3.4,3.4-8.036.309-11.849s-.514-11.019-2.989-14.221l-1.131-2.681a8.513,8.513,0,0,0-8.493-7.934h-.752a8.516,8.516,0,0,0-8.518,8.518v9.219a8.529,8.529,0,0,0,.437,2.7c-.771,3.922-3.78,10.2-2.655,13.353Z" transform="translate(-2895.51 -2165.84)" fill="#0d1a3a"/>
                  </g>
                  <g id="Group_94" data-name="Group 94" transform="translate(0 39.448)">
                    <path id="Path_209" data-name="Path 209" d="M2810.927,2585.091v45.715h-55.9v-45.715a10.178,10.178,0,0,1,10.176-10.181h35.541a10.176,10.176,0,0,1,10.182,10.181Z" transform="translate(-2755.029 -2574.91)" fill="#0d1a3a"/>
                    <path id="Path_210" data-name="Path 210" d="M2808.752,2578.81a10.159,10.159,0,0,0-6.281-2.166h-36.936a8.782,8.782,0,0,0-8.78,8.786v45.377h-1.734v-45.715a10.178,10.178,0,0,1,10.176-10.182h35.541A10.17,10.17,0,0,1,2808.752,2578.81Z" transform="translate(-2755.02 -2574.91)" fill="#0d1a3a"/>
                  </g>
                </g>
              </g>
              <g id="Group_115" data-name="Group 115" transform="translate(28.96 34.237)">
                <g id="Group_102" data-name="Group 102">
                  <g id="Group_100" data-name="Group 100" transform="translate(1.054)">
                    <g id="Group_97" data-name="Group 97" transform="translate(15.998)">
                      <path id="Path_211" data-name="Path 211" d="M2901.192,2102.225h0a2.622,2.622,0,0,0,2.622-2.622v-4.51a2.622,2.622,0,0,0-2.622-2.622h0a2.622,2.622,0,0,0-2.622,2.622v4.51A2.622,2.622,0,0,0,2901.192,2102.225Z" transform="translate(-2875.334 -2080.847)" fill="#0d1a3a"/>
                      <path id="Path_212" data-name="Path 212" d="M2706.817,2003.347h0a10.638,10.638,0,0,0,10.638-10.638v-10.131a10.638,10.638,0,0,0-10.638-10.638h0a10.638,10.638,0,0,0-10.638,10.638v10.131A10.638,10.638,0,0,0,2706.817,2003.347Z" transform="translate(-2692.461 -1971.94)" fill="#0d1a3a"/>
                      <path id="Path_213" data-name="Path 213" d="M2660.242,2102.225h0a2.622,2.622,0,0,0,2.622-2.622v-4.51a2.622,2.622,0,0,0-2.622-2.622h0a2.622,2.622,0,0,0-2.622,2.622v4.51A2.622,2.622,0,0,0,2660.242,2102.225Z" transform="translate(-2657.62 -2080.847)" fill="#0d1a3a"/>
                    </g>
                    <path id="Path_214" data-name="Path 214" d="M2757.335,2259.81l.335,12.1h-13.33l1.232-11.538Z" transform="translate(-2719.979 -2232.05)" fill="#0d1a3a"/>
                    <g id="Group_98" data-name="Group 98" transform="translate(19.153 33.659)">
                      <path id="Path_215" data-name="Path 215" d="M2690.331,2329.716l1.284-.07,22.268-1.215-.935-6.326c0-.007-.007-.007-.013-.007-.049-.007-.259-.056-.608-.133-.007,0-.013-.007-.028-.007-2.479-.517-11.633-2.123-20.446.377l-1.523,7.381Z" transform="translate(-2690.33 -2320.974)" fill="#0d1a3a"/>
                      <path id="Path_216" data-name="Path 216" d="M2690.331,2329.717l1.284-.07,1.39-5.7c4.734-1.892,16.4-2.277,19.293-1.983-2.479-.517-11.633-2.123-20.446.377l-1.523,7.381Z" transform="translate(-2690.33 -2320.974)" fill="#0d1a3a"/>
                    </g>
                    <g id="Group_99" data-name="Group 99" transform="translate(0 39.307)">
                      <path id="Path_217" data-name="Path 217" d="M2491.72,2411.69l63.417-1.529s-.384-20.25-7.255-27.128a4.494,4.494,0,0,0-1.2-.81c-7.716-3.848-38.949-3.344-45.22.237-3.506,2-6.012,9.922-7.6,17.01C2492.412,2405.922,2491.72,2411.69,2491.72,2411.69Z" transform="translate(-2491.72 -2379.549)" fill="#0d1a3a"/>
                      <path id="Path_218" data-name="Path 218" d="M2513.88,2399.47c1.543.209,2.939-.887,3.687-4.036,2.667-11.2,6.724-12.164,6.724-12.164,7.862-2.423,33.636-2.911,42.413-1.047-7.716-3.848-38.949-3.344-45.221.237C2517.978,2384.457,2515.472,2392.382,2513.88,2399.47Z" transform="translate(-2511.743 -2379.548)" fill="#0d1a3a"/>
                    </g>
                  </g>
                  <g id="Group_101" data-name="Group 101" transform="translate(0 47.184)">
                    <path id="Path_219" data-name="Path 219" d="M2547.65,2473.408v54.682h-66.86v-54.682a12.173,12.173,0,0,1,12.171-12.178h42.511a12.171,12.171,0,0,1,12.178,12.178Z" transform="translate(-2480.79 -2461.23)" fill="#0d1a3a"/>
                    <path id="Path_220" data-name="Path 220" d="M2545.06,2465.9a12.145,12.145,0,0,0-7.513-2.59h-44.18a10.5,10.5,0,0,0-10.5,10.509V2528.1h-2.074v-54.682a12.173,12.173,0,0,1,12.17-12.178h42.511a12.167,12.167,0,0,1,9.587,4.665Z" transform="translate(-2480.791 -2461.239)" fill="#0d1a3a"/>
                  </g>
                </g>
                <g id="Group_108" data-name="Group 108" transform="translate(67.733)">
                  <g id="Group_106" data-name="Group 106" transform="translate(1.055)">
                    <g id="Group_103" data-name="Group 103" transform="translate(15.997)">
                      <path id="Path_221" data-name="Path 221" d="M3603.572,2102.225h0a2.622,2.622,0,0,0,2.622-2.622v-4.51a2.622,2.622,0,0,0-2.622-2.622h0a2.622,2.622,0,0,0-2.622,2.622v4.51A2.622,2.622,0,0,0,3603.572,2102.225Z" transform="translate(-3577.714 -2080.847)" fill="#0d1a3a"/>
                      <path id="Path_222" data-name="Path 222" d="M3409.2,2003.347h0a10.638,10.638,0,0,0,10.638-10.638v-10.131a10.638,10.638,0,0,0-10.638-10.638h0a10.638,10.638,0,0,0-10.638,10.638v10.131A10.638,10.638,0,0,0,3409.2,2003.347Z" transform="translate(-3394.842 -1971.94)" fill="#0d1a3a"/>
                      <path id="Path_223" data-name="Path 223" d="M3362.622,2102.225h0a2.622,2.622,0,0,0,2.622-2.622v-4.51a2.622,2.622,0,0,0-2.622-2.622h0a2.622,2.622,0,0,0-2.622,2.622v4.51A2.622,2.622,0,0,0,3362.622,2102.225Z" transform="translate(-3360 -2080.847)" fill="#0d1a3a"/>
                    </g>
                    <path id="Path_224" data-name="Path 224" d="M3459.714,2259.81l.336,12.1h-13.33l1.232-11.538Z" transform="translate(-3422.36 -2232.05)" fill="#0d1a3a"/>
                    <g id="Group_104" data-name="Group 104" transform="translate(19.152 33.659)">
                      <path id="Path_225" data-name="Path 225" d="M3392.712,2329.716l1.284-.07,22.268-1.215-.935-6.326c0-.007-.007-.007-.015-.007-.049-.007-.258-.056-.607-.133-.007,0-.014-.007-.028-.007-2.479-.517-11.633-2.123-20.446.377l-1.523,7.381Z" transform="translate(-3392.71 -2320.974)" fill="#0d1a3a"/>
                      <path id="Path_226" data-name="Path 226" d="M3392.721,2329.717l1.284-.07,1.39-5.7c4.734-1.892,16.4-2.277,19.293-1.983-2.479-.517-11.633-2.123-20.446.377l-1.523,7.381Z" transform="translate(-3392.719 -2320.974)" fill="#0d1a3a"/>
                    </g>
                    <g id="Group_105" data-name="Group 105" transform="translate(0 39.307)">
                      <path id="Path_227" data-name="Path 227" d="M3194.11,2411.69l63.417-1.529s-.384-20.25-7.255-27.128a4.5,4.5,0,0,0-1.2-.81c-7.716-3.848-38.95-3.344-45.221.237-3.505,2-6.012,9.922-7.6,17.01C3194.8,2405.922,3194.11,2411.69,3194.11,2411.69Z" transform="translate(-3194.11 -2379.549)" fill="#0d1a3a"/>
                      <path id="Path_228" data-name="Path 228" d="M3216.26,2399.47c1.543.209,2.939-.887,3.687-4.036,2.667-11.2,6.724-12.164,6.724-12.164,7.862-2.423,33.636-2.911,42.414-1.047-7.716-3.848-38.95-3.344-45.221.237C3220.358,2384.457,3217.852,2392.382,3216.26,2399.47Z" transform="translate(-3214.124 -2379.548)" fill="#0d1a3a"/>
                    </g>
                  </g>
                  <g id="Group_107" data-name="Group 107" transform="translate(0 47.184)">
                    <path id="Path_229" data-name="Path 229" d="M3250.03,2473.408v54.682h-66.86v-54.682a12.173,12.173,0,0,1,12.171-12.178h42.511a12.17,12.17,0,0,1,12.177,12.178Z" transform="translate(-3183.17 -2461.23)" fill="#0d1a3a"/>
                    <path id="Path_230" data-name="Path 230" d="M3247.44,2465.9a12.145,12.145,0,0,0-7.513-2.59h-44.18a10.5,10.5,0,0,0-10.5,10.509V2528.1h-2.074v-54.682a12.174,12.174,0,0,1,12.171-12.178h42.511a12.167,12.167,0,0,1,9.588,4.665Z" transform="translate(-3183.17 -2461.239)" fill="#0d1a3a"/>
                  </g>
                </g>
                <g id="Group_114" data-name="Group 114" transform="translate(135.466 0)">
                  <g id="Group_112" data-name="Group 112" transform="translate(1.055 0)">
                    <g id="Group_109" data-name="Group 109" transform="translate(15.997)">
                      <path id="Path_231" data-name="Path 231" d="M4305.962,2102.225h0a2.622,2.622,0,0,0,2.622-2.622v-4.51a2.622,2.622,0,0,0-2.622-2.622h0a2.622,2.622,0,0,0-2.622,2.622v4.51A2.621,2.621,0,0,0,4305.962,2102.225Z" transform="translate(-4280.103 -2080.847)" fill="#0d1a3a"/>
                      <rect id="Rectangle_18" data-name="Rectangle 18" width="21.275" height="31.407" rx="10.638" transform="translate(24.994 31.407) rotate(180)" fill="#0d1a3a"/>
                      <path id="Path_232" data-name="Path 232" d="M4065,2102.225h0a2.622,2.622,0,0,0,2.622-2.622v-4.51a2.622,2.622,0,0,0-2.622-2.622h0a2.622,2.622,0,0,0-2.622,2.622v4.51A2.622,2.622,0,0,0,4065,2102.225Z" transform="translate(-4062.38 -2080.847)" fill="#0d1a3a"/>
                    </g>
                    <path id="Path_233" data-name="Path 233" d="M4162.095,2259.81l.336,12.1H4149.1l1.232-11.538Z" transform="translate(-4124.74 -2232.05)" fill="#0d1a3a"/>
                    <g id="Group_110" data-name="Group 110" transform="translate(19.153 33.659)">
                      <path id="Path_234" data-name="Path 234" d="M4095.1,2329.716l1.284-.07,22.268-1.215-.936-6.326c0-.007-.007-.007-.014-.007-.049-.007-.258-.056-.607-.133-.006,0-.014-.007-.028-.007-2.479-.517-11.633-2.123-20.446.377l-1.523,7.381Z" transform="translate(-4095.1 -2320.974)" fill="#0d1a3a"/>
                      <path id="Path_235" data-name="Path 235" d="M4095.1,2329.717l1.284-.07,1.39-5.7c4.734-1.892,16.4-2.277,19.293-1.983-2.479-.517-11.633-2.123-20.446.377l-1.523,7.381Z" transform="translate(-4095.1 -2320.974)" fill="#0d1a3a"/>
                    </g>
                    <g id="Group_111" data-name="Group 111" transform="translate(0 39.307)">
                      <path id="Path_236" data-name="Path 236" d="M3896.49,2411.69l63.417-1.529s-.383-20.25-7.254-27.128a4.5,4.5,0,0,0-1.2-.81c-7.715-3.848-38.95-3.344-45.22.237-3.505,2-6.012,9.922-7.6,17.01-1.445,6.452-2.137,12.22-2.137,12.22Z" transform="translate(-3896.49 -2379.549)" fill="#0d1a3a"/>
                      <path id="Path_237" data-name="Path 237" d="M3918.65,2399.47c1.543.209,2.939-.887,3.687-4.036,2.667-11.2,6.724-12.164,6.724-12.164,7.863-2.423,33.636-2.911,42.414-1.047-7.716-3.848-38.95-3.344-45.22.237-3.505,2-6.012,9.922-7.6,17.01Z" transform="translate(-3916.513 -2379.548)" fill="#0d1a3a"/>
                    </g>
                  </g>
                  <g id="Group_113" data-name="Group 113" transform="translate(0 47.184)">
                    <path id="Path_238" data-name="Path 238" d="M3952.419,2473.408v54.682h-66.86v-54.682a12.173,12.173,0,0,1,12.171-12.178h42.511a12.171,12.171,0,0,1,12.178,12.178Z" transform="translate(-3885.559 -2461.23)" fill="#0d1a3a"/>
                    <path id="Path_239" data-name="Path 239" d="M3949.819,2465.9a12.144,12.144,0,0,0-7.513-2.59h-44.18a10.5,10.5,0,0,0-10.5,10.509V2528.1h-2.074v-54.682a12.173,12.173,0,0,1,12.171-12.178h42.511a12.166,12.166,0,0,1,9.587,4.665Z" transform="translate(-3885.55 -2461.239)" fill="#0d1a3a"/>
                  </g>
                </g>
              </g>
              <g id="Group_130" data-name="Group 130" transform="translate(59.105 18.069)">
                <g id="Group_122" data-name="Group 122">
                  <g id="Group_120" data-name="Group 120" transform="translate(1.189)">
                    <g id="Group_117" data-name="Group 117" transform="translate(18.043)">
                      <path id="Path_240" data-name="Path 240" d="M3267.507,1967.809h0a2.956,2.956,0,0,0,2.957-2.957v-5.086a2.957,2.957,0,0,0-2.957-2.957h0a2.957,2.957,0,0,0-2.957,2.957v5.086A2.957,2.957,0,0,0,3267.507,1967.809Z" transform="translate(-3238.346 -1942.101)" fill="#376f94"/>
                      <path id="Path_241" data-name="Path 241" d="M3048.3,1856.288h0a12,12,0,0,0,12-12v-11.425a12,12,0,0,0-12-12h0a12,12,0,0,0-12,12v11.425A12,12,0,0,0,3048.3,1856.288Z" transform="translate(-3032.107 -1819.27)" fill="#376f94"/>
                      <g id="Group_116" data-name="Group 116" transform="translate(2.028)">
                        <path id="Path_242" data-name="Path 242" d="M3014.719,1817.677c-.008.008,0,.016,0,.024.425,2.544.85,4.457.85,4.457h2.922l3.6,11.986h14.615l3.315-7.694c.826-3.5,1.63-7.591,1.252-11.292s-1.93-7.024-5.835-8.969a16.773,16.773,0,0,0-14.317-.59s-6.82-2.527-7.213,2.441a45.061,45.061,0,0,0,.811,9.639Z" transform="translate(-3013.858 -1804.288)" fill="#0d1a3a"/>
                        <path id="Path_243" data-name="Path 243" d="M3014.71,1817.668c-.142-2.828-.291-9.316,1.134-10.245,1.843-1.2,4.717.315,4.717.315a17.246,17.246,0,0,1,12.238-1.119c5.111,1.308,7.434,5.457,8.465,8.529-.378-3.7-1.929-7.024-5.835-8.969a16.772,16.772,0,0,0-14.316-.59s-6.82-2.528-7.213,2.441a45.077,45.077,0,0,0,.811,9.639Z" transform="translate(-3013.849 -1804.279)" fill="#4ea2d9" opacity="0.3"/>
                      </g>
                      <path id="Path_244" data-name="Path 244" d="M2995.777,1967.809h0a2.956,2.956,0,0,0,2.957-2.957v-5.086a2.957,2.957,0,0,0-2.957-2.957h0a2.957,2.957,0,0,0-2.957,2.957v5.086A2.957,2.957,0,0,0,2995.777,1967.809Z" transform="translate(-2992.82 -1942.101)" fill="#376f94"/>
                    </g>
                    <path id="Path_245" data-name="Path 245" d="M3105.265,2145.51l.379,13.644h-15.034l1.389-13.013Z" transform="translate(-3063.137 -2112.604)" fill="#376f94"/>
                    <g id="Group_118" data-name="Group 118" transform="translate(21.601 39.556)">
                      <path id="Path_246" data-name="Path 246" d="M3029.72,2224.34l1.449-.079,25.112-1.37-1.055-7.134c0-.008-.008-.008-.016-.008-.055-.008-.291-.063-.685-.15-.008,0-.015-.008-.032-.008-2.8-.583-13.12-2.394-23.058.425l-1.716,8.323Z" transform="translate(-3029.72 -2214.48)" fill="#334b7d"/>
                      <path id="Path_247" data-name="Path 247" d="M3029.72,2224.332l1.449-.079,1.567-6.434c5.34-2.134,18.5-2.567,21.759-2.236-2.8-.582-13.12-2.393-23.058.426l-1.716,8.323Z" transform="translate(-3029.72 -2214.471)" fill="#4ea2d9"/>
                    </g>
                    <g id="Group_119" data-name="Group 119" transform="translate(0 45.928)">
                      <path id="Path_248" data-name="Path 248" d="M2805.721,2316.793l71.518-1.724s-.433-22.837-8.182-30.594a5.053,5.053,0,0,0-1.355-.913c-8.7-4.339-43.926-3.772-51,.268-3.953,2.252-6.78,11.19-8.576,19.183-1.63,7.276-2.41,13.781-2.41,13.781Z" transform="translate(-2805.72 -2280.546)" fill="#334b7d"/>
                      <path id="Path_249" data-name="Path 249" d="M2830.72,2303.013c1.74.236,3.315-1,4.158-4.552,3.008-12.631,7.583-13.718,7.583-13.718,8.867-2.733,37.933-3.284,47.831-1.181-8.7-4.339-43.926-3.772-51,.268C2835.343,2286.082,2832.516,2295.02,2830.72,2303.013Z" transform="translate(-2828.309 -2280.546)" fill="#4ea2d9"/>
                    </g>
                  </g>
                  <g id="Group_121" data-name="Group 121" transform="translate(0 54.81)">
                    <path id="Path_250" data-name="Path 250" d="M2868.8,2386.393v61.667h-75.4v-61.667a13.728,13.728,0,0,1,13.725-13.733h47.942a13.727,13.727,0,0,1,13.734,13.734Z" transform="translate(-2793.399 -2372.659)" fill="#0d1a3a"/>
                    <path id="Path_251" data-name="Path 251" d="M2865.87,2377.91a13.693,13.693,0,0,0-8.474-2.922h-49.823a11.847,11.847,0,0,0-11.844,11.852v61.21h-2.338v-61.667a13.728,13.728,0,0,1,13.725-13.733h47.942A13.719,13.719,0,0,1,2865.87,2377.91Z" transform="translate(-2793.39 -2372.65)" fill="#4ea2d9"/>
                  </g>
                </g>
                <g id="Group_129" data-name="Group 129" transform="translate(75.786)">
                  <g id="Group_127" data-name="Group 127" transform="translate(1.189)">
                    <g id="Group_124" data-name="Group 124" transform="translate(18.042)">
                      <path id="Path_252" data-name="Path 252" d="M4053.4,1967.809h0a2.956,2.956,0,0,0,2.957-2.957v-5.086a2.957,2.957,0,0,0-2.957-2.957h0a2.957,2.957,0,0,0-2.957,2.957v5.086A2.957,2.957,0,0,0,4053.4,1967.809Z" transform="translate(-4024.236 -1942.101)" fill="#376f94"/>
                      <path id="Path_253" data-name="Path 253" d="M3834.187,1856.288h0a12,12,0,0,0,12-12v-11.425a12,12,0,0,0-12-12h0a12,12,0,0,0-12,12v11.425A12,12,0,0,0,3834.187,1856.288Z" transform="translate(-3817.996 -1819.27)" fill="#376f94"/>
                      <g id="Group_123" data-name="Group 123" transform="translate(2.028)">
                        <path id="Path_254" data-name="Path 254" d="M3800.6,1817.677c-.008.008,0,.016,0,.024.425,2.544.851,4.457.851,4.457h2.922l3.6,11.986h14.615l3.316-7.694c.826-3.5,1.63-7.591,1.251-11.292s-1.929-7.024-5.835-8.969a16.773,16.773,0,0,0-14.317-.59s-6.82-2.527-7.213,2.441a45.06,45.06,0,0,0,.811,9.639Z" transform="translate(-3799.738 -1804.288)" fill="#0d1a3a"/>
                        <path id="Path_255" data-name="Path 255" d="M3800.59,1817.668c-.142-2.828-.291-9.316,1.134-10.245,1.843-1.2,4.717.315,4.717.315a17.246,17.246,0,0,1,12.238-1.119c5.111,1.308,7.434,5.457,8.465,8.529-.378-3.7-1.93-7.024-5.835-8.969a16.772,16.772,0,0,0-14.316-.59s-6.82-2.528-7.213,2.441a45.046,45.046,0,0,0,.811,9.639Z" transform="translate(-3799.729 -1804.279)" fill="#4ea2d9" opacity="0.3"/>
                      </g>
                      <path id="Path_256" data-name="Path 256" d="M3781.657,1967.809h0a2.956,2.956,0,0,0,2.957-2.957v-5.086a2.957,2.957,0,0,0-2.957-2.957h0a2.956,2.956,0,0,0-2.957,2.957v5.086A2.957,2.957,0,0,0,3781.657,1967.809Z" transform="translate(-3778.7 -1942.101)" fill="#376f94"/>
                    </g>
                    <path id="Path_257" data-name="Path 257" d="M3891.145,2145.51l.379,13.644H3876.49l1.39-13.013Z" transform="translate(-3849.018 -2112.604)" fill="#376f94"/>
                    <g id="Group_125" data-name="Group 125" transform="translate(21.6 39.556)">
                      <path id="Path_258" data-name="Path 258" d="M3815.6,2224.34l1.449-.079,25.112-1.37-1.055-7.134c0-.008-.008-.008-.015-.008-.055-.008-.291-.063-.685-.15-.008,0-.016-.008-.032-.008-2.8-.583-13.12-2.394-23.057.425l-1.717,8.323Z" transform="translate(-3815.6 -2214.48)" fill="#334b7d"/>
                      <path id="Path_259" data-name="Path 259" d="M3815.6,2224.332l1.449-.079,1.567-6.434c5.339-2.134,18.5-2.567,21.758-2.236-2.8-.582-13.12-2.393-23.057.426l-1.717,8.323Z" transform="translate(-3815.6 -2214.471)" fill="#4ea2d9"/>
                    </g>
                    <g id="Group_126" data-name="Group 126" transform="translate(0 45.928)">
                      <path id="Path_260" data-name="Path 260" d="M3591.61,2316.793l71.518-1.724s-.433-22.837-8.181-30.594a5.068,5.068,0,0,0-1.354-.913c-8.7-4.339-43.926-3.772-51,.268-3.953,2.252-6.781,11.19-8.576,19.183-1.63,7.276-2.41,13.781-2.41,13.781Z" transform="translate(-3591.61 -2280.546)" fill="#334b7d"/>
                      <path id="Path_261" data-name="Path 261" d="M3616.6,2303.013c1.74.236,3.315-1,4.158-4.552,3.008-12.631,7.583-13.718,7.583-13.718,8.867-2.733,37.933-3.284,47.831-1.181-8.7-4.339-43.926-3.772-51,.268C3621.223,2286.082,3618.4,2295.02,3616.6,2303.013Z" transform="translate(-3614.19 -2280.546)" fill="#4ea2d9"/>
                    </g>
                  </g>
                  <g id="Group_128" data-name="Group 128" transform="translate(0 54.81)">
                    <path id="Path_262" data-name="Path 262" d="M3654.68,2386.393v61.667h-75.4v-61.667a13.728,13.728,0,0,1,13.725-13.733h47.942a13.727,13.727,0,0,1,13.734,13.734Z" transform="translate(-3579.28 -2372.659)" fill="#0d1a3a"/>
                    <path id="Path_263" data-name="Path 263" d="M3651.76,2377.91a13.693,13.693,0,0,0-8.474-2.922h-49.823a11.847,11.847,0,0,0-11.844,11.852v61.21h-2.338v-61.667a13.728,13.728,0,0,1,13.725-13.733h47.942A13.719,13.719,0,0,1,3651.76,2377.91Z" transform="translate(-3579.28 -2372.65)" fill="#4ea2d9"/>
                  </g>
                </g>
              </g>
              <g id="Group_148" data-name="Group 148" transform="translate(94.774)">
                <g id="Group_137" data-name="Group 137" transform="translate(85.889 2.862)">
                  <g id="Group_135" data-name="Group 135" transform="translate(1.328)">
                    <g id="Group_132" data-name="Group 132" transform="translate(20.148)">
                      <path id="Path_264" data-name="Path 264" d="M.444,0H6.161A.444.444,0,0,1,6.6.444v11.4a.444.444,0,0,1-.444.444H.444A.444.444,0,0,1,0,11.841V.444A.444.444,0,0,1,.444,0Z" transform="translate(35.871 28.71) rotate(180)" fill="#376f94"/>
                      <rect id="Rectangle_19" data-name="Rectangle 19" width="26.795" height="39.555" rx="13.398" transform="translate(31.48 41.341) rotate(180)" fill="#376f94"/>
                      <g id="Group_131" data-name="Group 131" transform="translate(2.265)">
                        <path id="Path_265" data-name="Path 265" d="M4301.072,1661.54c-.008.009,0,.017,0,.026.475,2.841.95,4.978.95,4.978h3.263l4.02,13.385h16.322l3.7-8.592c.924-3.913,1.82-8.478,1.4-12.612s-2.154-7.845-6.517-10.017a18.734,18.734,0,0,0-15.989-.66s-7.616-2.823-8.056,2.726a50.378,50.378,0,0,0,.906,10.764Z" transform="translate(-4300.109 -1646.587)" fill="#0d1a3a"/>
                        <path id="Path_266" data-name="Path 266" d="M4301.081,1661.549c-.158-3.157-.325-10.4,1.266-11.442,2.058-1.345,5.268.352,5.268.352a19.256,19.256,0,0,1,13.667-1.249c5.708,1.46,8.3,6.095,9.455,9.525-.422-4.133-2.154-7.845-6.517-10.017a18.733,18.733,0,0,0-15.989-.66s-7.616-2.823-8.056,2.726a50.379,50.379,0,0,0,.906,10.764Z" transform="translate(-4300.118 -1646.596)" fill="#4ea2d9" opacity="0.3"/>
                      </g>
                      <path id="Path_267" data-name="Path 267" d="M.444,0H6.161A.444.444,0,0,1,6.6.444v11.4a.444.444,0,0,1-.444.444H.444A.444.444,0,0,1,0,11.841V.444A.444.444,0,0,1,.444,0Z" transform="translate(6.605 28.71) rotate(180)" fill="#376f94"/>
                    </g>
                    <path id="Path_268" data-name="Path 268" d="M4402.216,2027.67l.423,15.238H4385.85l1.552-14.533Z" transform="translate(-4355.168 -1990.921)" fill="#376f94"/>
                    <g id="Group_133" data-name="Group 133" transform="translate(24.124 44.176)">
                      <path id="Path_269" data-name="Path 269" d="M4317.85,2115.7l1.619-.088,28.045-1.531-1.178-7.967c0-.009-.009-.009-.018-.009-.062-.009-.325-.07-.765-.167-.009,0-.018-.009-.035-.009-3.122-.651-14.651-2.673-25.75.474l-1.917,9.3Z" transform="translate(-4317.85 -2104.692)" fill="#334b7d"/>
                      <path id="Path_270" data-name="Path 270" d="M4317.85,2115.7l1.619-.088,1.75-7.185c5.963-2.383,20.658-2.867,24.3-2.5-3.122-.651-14.651-2.673-25.75.474l-1.917,9.3Z" transform="translate(-4317.85 -2104.684)" fill="#4ea2d9"/>
                    </g>
                    <g id="Group_134" data-name="Group 134" transform="translate(0 51.292)">
                      <path id="Path_271" data-name="Path 271" d="M4067.69,2218.954l79.872-1.926s-.484-25.5-9.138-34.167a5.625,5.625,0,0,0-1.513-1.02c-9.718-4.846-49.056-4.212-56.953.3-4.415,2.515-7.572,12.5-9.577,21.424C4068.561,2211.691,4067.69,2218.954,4067.69,2218.954Z" transform="translate(-4067.69 -2178.474)" fill="#334b7d"/>
                      <path id="Path_272" data-name="Path 272" d="M4095.6,2203.563c1.943.264,3.7-1.117,4.643-5.083,3.36-14.106,8.469-15.32,8.469-15.32,9.9-3.052,42.362-3.667,53.417-1.319-9.718-4.846-49.056-4.212-56.953.3-4.415,2.515-7.572,12.5-9.577,21.424Z" transform="translate(-4092.909 -2178.474)" fill="#4ea2d9"/>
                    </g>
                  </g>
                  <g id="Group_136" data-name="Group 136" transform="translate(0 61.212)">
                    <path id="Path_273" data-name="Path 273" d="M4138.127,2296.678v68.869H4053.92v-68.869a15.332,15.332,0,0,1,15.329-15.338h53.541a15.328,15.328,0,0,1,15.336,15.338Z" transform="translate(-4053.92 -2281.34)" fill="#0d1a3a"/>
                    <path id="Path_274" data-name="Path 274" d="M4134.874,2287.214a15.3,15.3,0,0,0-9.463-3.262h-55.642a13.231,13.231,0,0,0-13.227,13.236v68.359h-2.611v-68.869a15.332,15.332,0,0,1,15.329-15.338H4122.8a15.321,15.321,0,0,1,12.075,5.875Z" transform="translate(-4053.929 -2281.34)" fill="#4ea2d9"/>
                  </g>
                </g>
                <g id="Group_147" data-name="Group 147">
                  <g id="Group_145" data-name="Group 145" transform="translate(1.317)">
                    <rect id="Rectangle_20" data-name="Rectangle 20" width="26.56" height="39.207" rx="13.28" transform="translate(51.174 45.118) rotate(180)" fill="#376f94"/>
                    <g id="Group_138" data-name="Group 138" transform="translate(30.054 40.23)">
                      <path id="Path_275" data-name="Path 275" d="M3508.512,2037.57l.419,15.1H3492.29l1.538-14.4Z" transform="translate(-3491.932 -2037.234)" fill="#fff"/>
                      <path id="Path_276" data-name="Path 276" d="M3505.91,2049.841h-17.33l1.605-15.034,15.287-.727Zm-16.614-.643h15.954l-.4-14.445-14.081.67L3489.3,2049.2Z" transform="translate(-3488.58 -2034.08)" fill="#231f20"/>
                    </g>
                    <g id="Group_141" data-name="Group 141" transform="translate(23.513 47.61)">
                      <g id="Group_139" data-name="Group 139">
                        <path id="Path_277" data-name="Path 277" d="M3424.88,2124.821l1.6-.087,27.8-1.517-1.168-7.9c0-.009-.009-.009-.017-.009-.061-.009-.322-.07-.758-.166-.009,0-.017-.009-.035-.009-3.094-.645-14.523-2.65-25.524.471l-1.9,9.214Z" transform="translate(-3424.481 -2113.588)" fill="#fff"/>
                        <path id="Path_278" data-name="Path 278" d="M3420.75,2122.183l2.023-9.813.188-.053c10.952-3.106,22.355-1.165,25.646-.483l.084.019.379.084c.187.042.3.069.343.074l.273.042.02.286,1.217,8.2-30.172,1.645Zm2.575-9.3-1.776,8.614,28.634-1.562-1.085-7.332-.168-.037-.429-.1c-3.2-.666-14.395-2.585-25.175.415Z" transform="translate(-3420.75 -2110.607)" fill="#231f20"/>
                      </g>
                      <g id="Group_140" data-name="Group 140" transform="translate(0 0)">
                        <path id="Path_279" data-name="Path 279" d="M3424.871,2124.83l1.6-.087,1.735-7.122c5.91-2.363,20.477-2.842,24.085-2.475-3.094-.645-14.523-2.65-25.524.47l-1.9,9.214Z" transform="translate(-3424.472 -2113.597)" fill="#fff"/>
                        <path id="Path_280" data-name="Path 280" d="M3420.75,2122.185l2.023-9.813.188-.053c10.988-3.115,22.432-1.152,25.677-.475l-.1.634c-3.507-.354-17.873.125-23.78,2.395l-1.752,7.192-2.259.123Zm2.575-9.3-1.776,8.613.949-.052,1.718-7.052.154-.061c4.47-1.787,13.676-2.5,19.61-2.6a54.483,54.483,0,0,0-20.653,1.15Z" transform="translate(-3420.75 -2110.609)" fill="#231f20"/>
                      </g>
                    </g>
                    <g id="Group_142" data-name="Group 142" transform="translate(0 54.98)">
                      <path id="Path_281" data-name="Path 281" d="M3176.93,2227.164l79.169-1.909s-.479-25.28-9.057-33.867a5.609,5.609,0,0,0-1.5-1.011c-9.633-4.8-48.625-4.176-56.452.3-4.376,2.493-7.505,12.387-9.493,21.235-1.8,8.055-2.667,15.255-2.667,15.255Z" transform="translate(-3176.93 -2187.038)" fill="#334b7d"/>
                      <path id="Path_282" data-name="Path 282" d="M3204.59,2211.909c1.926.261,3.67-1.107,4.6-5.039,3.33-13.982,8.395-15.185,8.395-15.185,9.816-3.025,41.991-3.635,52.948-1.308-9.633-4.8-48.625-4.176-56.453.3-4.376,2.493-7.505,12.387-9.493,21.235Z" transform="translate(-3201.923 -2187.038)" fill="#4ea2d9"/>
                    </g>
                    <path id="Path_283" data-name="Path 283" d="M3394.356,1825.353c1.69,4.767,8,4.767,8,4.767s2.152,5.7,14.917,5.234,12.609-5.69,12.609-5.69c8.154-5.078,5.079-12,.462-17.688s-.768-16.458-4.461-21.232l-.917-4.767-26.148-.768s.208,4.871.169,10.079a67,67,0,0,1-.631,9.917c-1.079,5.846-5.7,15.379-4,20.146Z" transform="translate(-3373.053 -1768.98)" fill="#0d1a3a"/>
                    <path id="Path_284" data-name="Path 284" d="M3394.365,1919.8c1.69,4.767,8,4.767,8,4.767-9.214-1.925-6.349-10.047-3.759-18.683,1.849-6.164.989-13.194.39-16.146a67,67,0,0,1-.631,9.917c-1.079,5.846-5.7,15.379-4,20.146Z" transform="translate(-3373.062 -1863.429)" fill="#4ea2d9" opacity="0.3"/>
                    <g id="Group_144" data-name="Group 144" transform="translate(11.848)">
                      <path id="Path_285" data-name="Path 285" d="M3301.18,1718c1.873,2.627,5.514,5.078,10.06,6.314,11.38,3.076,17.382,6.457,27.533,5.378s18.611-8.766,14.15-12.914a14.6,14.6,0,0,0-3.791-2.569c-3.681-1.743-7.83-1.847-11.9-1.281,0,0-16.3-6.151-29.685-4.3-8.031,1.112-9.188,5.43-6.367,9.377Z" transform="translate(-3299.788 -1699.463)" fill="#0d1a3a"/>
                      <path id="Path_286" data-name="Path 286" d="M3301.18,1717.987c-1.183-3.459-.045-6.061,5.547-7.3,7.283-1.619,21.979,4.988,28.723,4.175,4.942-.592,10.112-1.19,13.682-.663-3.681-1.743-7.83-1.847-11.9-1.281,0,0-16.3-6.151-29.685-4.3-8.031,1.112-9.188,5.43-6.367,9.377Z" transform="translate(-3299.789 -1699.454)" fill="#4ea2d9" opacity="0.3"/>
                      <g id="Group_143" data-name="Group 143" transform="translate(13.455)">
                        <path id="Path_287" data-name="Path 287" d="M3439.31,1633.442s.208.2.631.533a22.8,22.8,0,0,0,13.208,4.39c9.078.306,12.771-4.148,12.771-4.148s-1.437-11.881-4.747-15.36l-.007-.007a3.174,3.174,0,0,0-1.093-.787c-4.156-1.691-15.073-1.691-16.764,1.079s-4,14.3-4,14.3Z" transform="translate(-3439.31 -1616.905)" fill="#0d1a3a"/>
                        <path id="Path_288" data-name="Path 288" d="M3439.31,1633.442s.208.2.631.533c.611-2.276,3.245-11.783,5.26-13.8,1.977-1.977,8.974-2.849,15.965-1.327a3.174,3.174,0,0,0-1.093-.787c-4.156-1.691-15.073-1.691-16.764,1.079s-4,14.3-4,14.3Z" transform="translate(-3439.31 -1616.905)" fill="#4ea2d9" opacity="0.3"/>
                      </g>
                    </g>
                  </g>
                  <g id="Group_146" data-name="Group 146" transform="translate(0 64.813)">
                    <path id="Path_289" data-name="Path 289" d="M3246.747,2304.212v68.265H3163.28v-68.265a15.2,15.2,0,0,1,15.194-15.2h53.07a15.194,15.194,0,0,1,15.2,15.2Z" transform="translate(-3163.279 -2289.009)" fill="#0d1a3a"/>
                    <path id="Path_290" data-name="Path 290" d="M3243.5,2294.825a15.165,15.165,0,0,0-9.38-3.234H3178.97a13.114,13.114,0,0,0-13.111,13.119v67.758h-2.589V2304.2a15.2,15.2,0,0,1,15.194-15.2h53.071a15.186,15.186,0,0,1,11.969,5.823Z" transform="translate(-3163.27 -2289)" fill="#4ea2d9"/>
                  </g>
                </g>
              </g>
            </g>
          </g>
        </g>
        <g id="Group_152" data-name="Group 152" transform="translate(4.816 90.353)">
          <path id="Path_292" data-name="Path 292" d="M4358.618,939.363c-17.816,9.589-35.553,53.763-13.778,54.579S4388.991,923.016,4358.618,939.363Z" transform="translate(-3921.571 -936.94)" fill="#388aca"/>
          <path id="Path_293" data-name="Path 293" d="M64.077,1178.94c-14.408,0-21.269,50.966-3.611,52.972S80.932,1178.94,64.077,1178.94Z" transform="translate(-49.935 -1155.603)" fill="#334b7d"/>
        </g>
      </g>
    </g>
  </g>
</svg>
