<svg xmlns="http://www.w3.org/2000/svg" id="iMedEvent" width="489.61" height="130.55" viewBox="0 0 489.61 130.55">
  <path id="Path_2" data-name="Path 2" d="M65.279,0A65.275,65.275,0,1,0,130.55,65.279,65.348,65.348,0,0,0,65.279,0ZM3.8,84.983a5.267,5.267,0,0,0,1.5,1.243,62.19,62.19,0,0,0,5.22,12.31,3.942,3.942,0,0,1-1.2-1.145v-.016H9.313a64.078,64.078,0,0,1-5.5-12.392ZM59.672,129.57a11.524,11.524,0,0,1-2.816-1.334c1.548.082,3.137.14,4.726.165a5.545,5.545,0,0,0,1.326,1.367Q61.277,129.706,59.672,129.57Zm-18.955-4.611A50.357,50.357,0,0,1,33.43,120.8c.255.066.5.14.766.2,1.07.255,2.248.486,3.491.7A39.378,39.378,0,0,0,46.2,126.8q-.568-.111-1.087-.222c-1.49-.494-2.956-1.029-4.4-1.622ZM.856,69.133C.8,68.2.766,67.214.749,66.127A63.78,63.78,0,0,1,1.6,54.9a4.4,4.4,0,0,0,1.811,1.746,67.544,67.544,0,0,0-.856,11.593c.008.922.049,1.877.1,2.824A3.638,3.638,0,0,1,.865,69.133Zm106.2-53.019a1.655,1.655,0,0,1-.445.708A66.745,66.745,0,0,0,95.391,8.876a1.349,1.349,0,0,0,.321-.511,65.028,65.028,0,0,1,11.346,7.756Zm9.823,10.416a2.029,2.029,0,0,1-.543.84,67.274,67.274,0,0,0-9.271-10.144,2.023,2.023,0,0,0,.469-.692,65.126,65.126,0,0,1,9.346,10ZM82.208,2.981a64.283,64.283,0,0,1,12.96,5.1,1.1,1.1,0,0,1-.313.494A65.833,65.833,0,0,0,82.068,3.2a.789.789,0,0,0,.132-.222Zm28.555,107a36.123,36.123,0,0,1-4.718,1.416,57.729,57.729,0,0,0,6.291-10.375,45.689,45.689,0,0,0,5.566-1.647A59.2,59.2,0,0,1,110.764,109.981ZM72.756,127.915c-1.663.091-3.45.156-5.3.189.165-1.153.321-2.734.445-4.7,2.668-.049,5.3-.148,7.831-.28A18.213,18.213,0,0,1,72.756,127.915Zm-16.377,0a20.117,20.117,0,0,1-4.628-4.784c2.4.132,4.916.214,7.452.263a21.149,21.149,0,0,0,2.174,4.7c-1.672-.033-3.351-.091-5.006-.181Zm-32.722-15.76c.445.124.906.239,1.408.362,1.309.313,2.816.609,4.471.9a46.967,46.967,0,0,0,7.592,7.831c-1.12-.2-2.19-.412-3.154-.642-.453-.107-.906-.231-1.35-.354a53.642,53.642,0,0,1-8.959-8.094Zm73.4,8.028c-1.523.354-3.277.683-5.2.988a43.763,43.763,0,0,0,6.562-7.872c2.511-.387,4.776-.807,6.727-1.252a49.47,49.47,0,0,1-8.086,8.143ZM86.284,121.9c-.585.066-1.177.124-1.77.181a40.507,40.507,0,0,0,4.677-7.658c.84-.082,1.672-.165,2.495-.255,2.215-.247,4.3-.51,6.217-.8a43.663,43.663,0,0,1-6.579,7.88c-1.6.239-3.285.453-5.031.65Zm-9.922.8a49.924,49.924,0,0,0,2.553-7.5c3.4-.189,6.678-.428,9.757-.725a40.725,40.725,0,0,1-4.652,7.658c-2.429.231-5.006.42-7.658.568Zm-14.582,5.41a20.438,20.438,0,0,1-2.133-4.7c1.293.025,2.594.033,3.886.033s2.635-.008,3.928-.033c-.107,1.984-.239,3.557-.379,4.7-1.688.025-3.475.025-5.311,0Zm-17.695-5.928a41.282,41.282,0,0,1-5.961-7.641c2.758.272,5.723.5,8.835.675a41.828,41.828,0,0,0,4.035,7.493c-2.4-.14-4.718-.313-6.908-.535Zm23.846.832c.132-2.042.247-4.537.346-7.419,3.458-.066,6.875-.181,10.144-.362a50.485,50.485,0,0,1-2.5,7.5c-2.6.14-5.286.231-7.979.28ZM61.286,5.838a56.358,56.358,0,0,0-2.231,7.089c-2.042-.033-4.076-.107-6.044-.214a39.24,39.24,0,0,1,4.866-7c1.087.058,2.231.1,3.409.124Zm2.116.025c.609,0,1.21,0,1.8-.016.189,1.886.379,4.273.568,7.089-2.124.033-4.249.033-6.324,0a55.983,55.983,0,0,1,2.166-7.089C62.216,5.854,62.809,5.863,63.4,5.863Zm5.714-.148a44.575,44.575,0,0,1,3.384,7c-1.993.107-4.125.181-6.34.222-.214-2.783-.428-5.163-.642-7.089,1.2-.025,2.413-.066,3.6-.124ZM80.8,3.985A61.693,61.693,0,0,1,92.731,9.757a25.748,25.748,0,0,1-2.915.856A55.912,55.912,0,0,0,79.285,4.446a14.082,14.082,0,0,0,1.507-.461ZM51.462,122.744a41.491,41.491,0,0,1-4-7.493c3.1.173,6.357.288,9.683.346a64.5,64.5,0,0,0,1.927,7.419c-2.553-.049-5.113-.14-7.608-.272Zm40.33-9.033c-.782.082-1.581.165-2.388.247a65.043,65.043,0,0,0,3.631-10c.955-.091,1.943-.189,2.915-.3,2.544-.28,5.023-.593,7.378-.947a57.375,57.375,0,0,1-5.122,10.177c-1.968.3-4.133.576-6.431.832ZM79.03,114.741a99.4,99.4,0,0,0,1.96-9.881c4-.222,7.872-.511,11.5-.856a65.7,65.7,0,0,1-3.6,10c-3.162.3-6.48.543-9.864.733Zm-11.552,8.275c-2.693.049-5.369.049-7.962,0a65.869,65.869,0,0,1-1.877-7.427c1.639.025,3.3.041,4.973.041s3.425-.016,5.146-.049c-.074,2.907-.173,5.4-.28,7.427Zm-29.659-8.95a59.05,59.05,0,0,1-4.735-10c3.277.329,6.793.6,10.441.8a74.433,74.433,0,0,0,3.228,9.881c-3.154-.181-6.167-.412-8.942-.692ZM29.634,113a56.782,56.782,0,0,1-6.06-10.153c2.676.445,5.7.84,8.992,1.177a59.656,59.656,0,0,0,4.751,9.988C34.509,113.728,31.923,113.382,29.634,113Zm-10.9-81.451c.576.165,1.186.321,1.82.469,1.433.338,3.03.667,4.751.955A82.612,82.612,0,0,0,20.28,45.6c-1.993-.338-3.821-.708-5.434-1.1-.741-.173-1.416-.354-2.034-.527a73.553,73.553,0,0,1,5.92-12.433Zm28.523,83.229a73.6,73.6,0,0,1-3.195-9.873c3.59.2,7.427.329,11.412.4.461,3.623.988,6.925,1.573,9.823-3.343-.058-6.637-.181-9.782-.354Zm-34.64-70.22c.683.189,1.375.371,2.067.535,1.614.387,3.442.749,5.434,1.1a86.552,86.552,0,0,0-2.923,13.8c-2.083-.354-4.043-.749-5.821-1.169-.766-.181-1.515-.379-2.215-.576a74.563,74.563,0,0,1,3.458-13.685ZM52.368,13.133a73.129,73.129,0,0,0-4.29,9.395c-2.725-.156-5.336-.354-7.756-.593a62.643,62.643,0,0,1,6.414-9.23c1.754.173,3.648.321,5.632.436Zm6.579.247c-.692,2.791-1.342,5.978-1.927,9.477-2.915-.049-5.772-.156-8.489-.3a72.387,72.387,0,0,1,4.232-9.395c1.993.107,4.068.181,6.175.222Zm3.565.033c1.087,0,2.19-.008,3.294-.025.181,2.742.362,5.928.543,9.477-3.03.049-6.011.049-8.868,0,.568-3.508,1.194-6.7,1.861-9.477,1.037.016,2.1.025,3.162.025Zm10.169-.263A95.472,95.472,0,0,1,75.7,22.545c-2.915.156-5.9.263-8.884.313-.2-3.557-.4-6.744-.609-9.477,2.166-.041,4.348-.115,6.48-.231Zm6.628-.486a66.584,66.584,0,0,1,5.418,9.222c-2.676.255-5.558.469-8.555.634a93.313,93.313,0,0,0-3.088-9.395c2.182-.124,4.282-.28,6.225-.461Zm1.877-.189c1.466-.156,2.841-.338,4.084-.527a62.5,62.5,0,0,1,7.575,8.967c-1.68.255-3.524.486-5.492.708-.716.082-1.441.148-2.166.222a66.666,66.666,0,0,0-5.467-9.222l1.466-.148Zm8.777-1.4a64.039,64.039,0,0,1,9.28,8.654c-1.729.4-3.73.774-5.961,1.112a62.508,62.508,0,0,0-7.608-8.967c1.564-.239,3.005-.511,4.29-.807ZM67.782,115.144c-3.434.058-6.875.058-10.218,0-.576-2.931-1.087-6.241-1.523-9.823q2.977.049,5.953.049c1.984,0,3.993-.016,5.961-.049-.033,3.574-.091,6.875-.173,9.815ZM19.037,89.586a80.067,80.067,0,0,1-1.943-13.751c3.1.519,6.579.972,10.367,1.359a100.018,100.018,0,0,0,1.548,13.7C25.369,90.516,22.018,90.08,19.037,89.586ZM117.17,58.132c-2.643.609-5.706,1.186-9.107,1.713a97.789,97.789,0,0,0-2.931-13.792c3.145-.478,6-1.021,8.506-1.6A80.591,80.591,0,0,1,117.17,58.132Zm-21.112,45c-.947.107-1.9.206-2.849.3a92.588,92.588,0,0,0,2.38-12.013c1.128-.107,2.182-.222,3.2-.329,2.931-.321,5.673-.675,8.16-1.054a73.747,73.747,0,0,1-3.384,12.137c-2.314.354-4.842.675-7.518.972Zm-3.392.346c-3.672.346-7.567.642-11.577.856.543-3.722.963-7.732,1.252-11.939,4.364-.239,8.629-.552,12.68-.939a93.873,93.873,0,0,1-2.363,12.022Zm-59.754.066a80.953,80.953,0,0,1-3.261-12.013c3.565.362,7.435.659,11.519.889a110.286,110.286,0,0,0,2.248,11.931c-3.672-.206-7.2-.478-10.507-.807ZM66.374,23.376c.173,3.516.338,7.361.494,11.421-3.59.066-7.279.066-10.951,0,.42-4.018.922-7.855,1.482-11.421,1.441.025,2.907.033,4.389.033s3.047-.016,4.586-.041Zm2.108,52.64v-.889c-.066-4.043-.132-7.954-.206-11.651,4.578-.082,9.115-.247,13.5-.478.231,3.919.371,7.831.42,11.635.016.889.025,1.844.025,2.915-4.5.239-9.115.4-13.71.486,0-.667-.016-1.35-.025-2.026ZM43.937,104.374a110.474,110.474,0,0,1-2.215-11.931c4.043.222,8.267.371,12.573.453.288,4.158.667,8.16,1.12,11.89-3.862-.074-7.723-.206-11.478-.412ZM25.748,33.059c2.52.42,5.327.79,8.349,1.1a101.553,101.553,0,0,0-3.87,12.771c-3.483-.362-6.67-.774-9.486-1.243a83.723,83.723,0,0,1,5-12.623ZM47.881,23.039a109.637,109.637,0,0,0-3.491,11.355c-3.368-.189-6.6-.436-9.609-.741a84.354,84.354,0,0,1,5.245-11.223c2.421.247,5.056.453,7.855.609Zm9.049.329c-.576,3.516-1.1,7.353-1.54,11.429-3.606-.066-7.139-.189-10.49-.371a110.437,110.437,0,0,1,3.442-11.355c2.742.148,5.632.255,8.588.3Zm28.037-.988a96.854,96.854,0,0,1,4.512,11.206c-3.368.321-6.925.585-10.581.782-.766-4.026-1.639-7.839-2.594-11.355,2.981-.165,5.887-.379,8.662-.642Zm2.577-.263c2.017-.222,3.911-.469,5.64-.725a78.562,78.562,0,0,1,6.291,11c-2.133.321-4.422.609-6.818.873-.815.091-1.688.181-2.668.272a95.155,95.155,0,0,0-4.562-11.206c.716-.066,1.416-.14,2.116-.214ZM67.9,48.877c4.257-.074,8.5-.222,12.6-.445.535,4.52.955,9.214,1.243,13.948-4.348.231-8.884.4-13.479.478C68.169,58.321,68.046,53.62,67.9,48.877ZM108.45,75.053c-2.618.4-5.492.766-8.547,1.1-.963.107-2.017.214-3.3.346.008-.922,0-1.869,0-2.907-.049-3.878-.272-7.789-.642-11.635,1.021-.1,2.083-.206,3.269-.338,2.964-.329,5.788-.692,8.407-1.079a98.994,98.994,0,0,1,.832,11.585c.008.98.008,1.96,0,2.931Zm-12.425,1.5c-4.216.4-8.662.733-13.216.98,0-1.037,0-1.993-.016-2.915-.049-3.862-.2-7.773-.428-11.643,4.537-.247,8.917-.576,13.018-.963.371,3.862.585,7.765.634,11.618.016,1.046.016,2,0,2.923ZM81.064,48.408c4.265-.239,8.349-.543,12.137-.906a137.21,137.21,0,0,1,2.124,13.883c-4.142.4-8.506.716-12.993.963-.3-4.718-.716-9.411-1.268-13.948Zm8.6-14.261a123.706,123.706,0,0,1,3.417,12.771c-3.829.362-7.9.667-12.088.9-.552-4.446-1.219-8.777-1.984-12.87,3.656-.2,7.238-.461,10.663-.79Zm3.145-.321c2.495-.272,4.817-.576,6.917-.889a92.071,92.071,0,0,1,4.735,12.606c-2.388.362-5.006.7-7.8,1-1,.107-2.026.214-3.038.313A120.271,120.271,0,0,0,90.179,34.1c.955-.091,1.828-.181,2.643-.272ZM96.782,47.14c2.8-.3,5.443-.65,7.855-1.013a98.668,98.668,0,0,1,2.915,13.792c-2.618.4-5.443.758-8.39,1.079-1.161.124-2.231.239-3.261.338a135.809,135.809,0,0,0-2.141-13.883c1.021-.1,2.034-.206,3.03-.313Zm-18.3-12.178c.758,4.142,1.416,8.465,1.943,12.87-4.109.222-8.325.371-12.54.445-.14-4.52-.3-8.868-.469-12.927,3.755-.066,7.468-.2,11.058-.387Zm-57.9,11.305c2.824.469,6.027.889,9.518,1.252A110.586,110.586,0,0,0,27.864,61.4c-3.722-.387-7.147-.832-10.194-1.334a86.708,86.708,0,0,1,2.907-13.8Zm21.063,45.6c-.56-4.372-.93-8.975-1.087-13.66,4.216.231,8.621.387,13.092.469.107,4.677.313,9.271.609,13.644C49.923,92.237,45.682,92.089,41.639,91.867ZM27.954,76.626c-.041-.939-.066-1.894-.074-2.931a113.822,113.822,0,0,1,.445-11.61c3.664.371,7.641.675,11.824.906-.222,3.878-.3,7.8-.255,11.643.008.93.033,1.886.066,2.907-4.232-.239-8.267-.552-12-.922Zm12.573.955c-.025-.84-.049-1.746-.066-2.923-.049-3.87.041-7.781.255-11.635,4.092.222,8.432.379,12.9.461-.074,3.854-.091,7.773-.041,11.651.008.98.033,1.951.049,2.907-4.471-.082-8.876-.239-13.1-.469ZM34.575,34.2c2.972.3,6.233.552,9.675.741-1.013,4.1-1.869,8.432-2.544,12.878-3.886-.214-7.575-.5-10.976-.848A101.5,101.5,0,0,1,34.566,34.2ZM53.628,62.858c-4.422-.082-8.753-.239-12.878-.461.28-4.7.758-9.395,1.416-13.948,3.886.214,7.938.354,12.038.428-.28,4.586-.469,9.288-.568,13.981ZM41.623,48.416c-.675,4.562-1.161,9.255-1.441,13.948-4.191-.231-8.16-.543-11.8-.906A111.418,111.418,0,0,1,30.6,47.568c3.4.338,7.106.626,11.025.848Zm13.71-13.067c-.445,4.109-.807,8.456-1.087,12.927-4.142-.074-8.168-.222-11.989-.428.667-4.446,1.507-8.777,2.5-12.878C48.2,35.159,51.759,35.283,55.332,35.349ZM54.221,62.867c.091-4.677.28-9.379.543-13.981,2.067.033,4.15.049,6.233.049s4.232-.016,6.332-.058c.124,4.405.239,9.107.338,13.981-4.545.074-9.066.074-13.438,0Zm-14.245,15.3c.165,4.7.535,9.3,1.1,13.66-4.059-.231-7.946-.527-11.544-.889a99.29,99.29,0,0,1-1.548-13.7c3.722.379,7.756.683,12,.922Zm14.253-.115Q54.2,76.6,54.18,75.135c-.049-3.87-.041-7.781.033-11.643,2.2.033,4.422.058,6.661.058s4.537-.016,6.8-.058c.074,3.705.14,7.625.189,11.651.008.98.025,1.951.033,2.915-4.537.082-9.132.082-13.668,0Zm.576-29.766c.272-4.463.626-8.8,1.046-12.927,1.8.033,3.631.041,5.467.041s3.714-.016,5.566-.049c.165,4.422.3,8.769.42,12.927-4.166.074-8.366.074-12.507,0Zm6.25,30.449c2.289,0,4.578-.025,6.851-.058.049,4.866.082,9.461.091,13.652-4.364.074-8.794.074-13.166,0-.288-4.372-.486-8.967-.593-13.644q3.4.062,6.81.058ZM95.086,90.87c-4.026.387-8.3.7-12.722.947.288-4.348.436-8.942.445-13.66,4.628-.255,9.066-.585,13.207-.98a124.334,124.334,0,0,1-.93,13.7Zm11.972-1.441c-2.528.379-5.3.741-8.242,1.062-.947.107-1.96.206-3.162.329a119.877,119.877,0,0,0,.939-13.7c1.079-.107,2.19-.222,3.327-.346,3-.329,5.854-.7,8.522-1.1a88.5,88.5,0,0,1-1.383,13.751Zm-7.122-57.1a79.523,79.523,0,0,0-6.324-11c2.264-.346,4.29-.733,6.036-1.136a72.524,72.524,0,0,1,7.691,10.745C105.181,31.437,102.694,31.907,99.936,32.327Zm-24.1-9.271c.93,3.491,1.779,7.312,2.536,11.355-3.574.189-7.271.321-10.984.387-.173-4.1-.354-7.938-.552-11.429,3.03-.058,6.052-.165,8.992-.321Zm29.115,22.413a92.3,92.3,0,0,0-4.759-12.606c2.783-.428,5.286-.9,7.452-1.4a77.862,77.862,0,0,1,5.772,12.417C110.928,44.455,108.079,44.991,104.951,45.468ZM32.829,21.491c2,.338,4.282.634,6.768.889A83.48,83.48,0,0,0,34.319,33.6c-3.022-.313-5.813-.675-8.292-1.087a74.378,74.378,0,0,1,6.81-11.025ZM17.588,60.685c3.063.511,6.5.963,10.218,1.342a112.253,112.253,0,0,0-.453,11.635c.016,1,.041,1.976.074,2.907-3.812-.4-7.3-.856-10.367-1.367-.049-.972-.082-1.951-.091-2.94A87.811,87.811,0,0,1,17.6,60.676Zm50.367,44.11c-4.026.066-8.053.066-11.98,0-.436-3.664-.807-7.666-1.1-11.9,2.133.033,4.282.058,6.455.058s4.446-.016,6.67-.058c0,4.232-.008,8.234-.049,11.9ZM81.788,91.842c-4.241.222-8.679.387-13.2.469,0-4.29-.025-8.876-.074-13.652,4.611-.082,9.214-.247,13.7-.486,0,4.693-.148,9.288-.428,13.668ZM118.24,73.225c-2.693.626-5.813,1.21-9.263,1.737.016-.947.016-1.927,0-2.9a99.553,99.553,0,0,0-.84-11.61c3.409-.527,6.48-1.1,9.123-1.713a80.326,80.326,0,0,1,.988,11.552c.016.93.008,1.894-.016,2.94ZM39.877,21.894c-2.429-.247-4.677-.543-6.686-.873a63.162,63.162,0,0,1,8.316-9c1.449.239,3.08.453,4.833.642a62.669,62.669,0,0,0-6.455,9.23ZM80.52,104.366c-3.936.206-7.971.354-12.013.42.049-3.771.074-7.773.074-11.9,4.413-.082,8.843-.239,13.158-.461-.28,4.216-.7,8.226-1.227,11.939Zm35.95-16.682c-2.585.6-5.574,1.161-8.9,1.672A88.292,88.292,0,0,0,108.96,75.6c3.475-.535,6.587-1.12,9.255-1.737a74,74,0,0,1-1.737,13.817Zm-8.736-56.839A72.663,72.663,0,0,0,100.018,20.1a33.583,33.583,0,0,0,4.216-1.26,70.457,70.457,0,0,1,8.7,10.457,39.852,39.852,0,0,1-5.187,1.54Zm-8.11-11.2a64.18,64.18,0,0,0-9.3-8.654,24.383,24.383,0,0,0,2.964-.889,65.8,65.8,0,0,1,10.5,8.316,33.478,33.478,0,0,1-4.166,1.235ZM37.358,11.132c.313.091.667.181,1.07.28.8.189,1.7.371,2.693.543a62.363,62.363,0,0,0-8.341,9c-1.433-.247-2.742-.511-3.886-.782-.445-.107-.9-.222-1.367-.354a65.177,65.177,0,0,1,9.831-8.687ZM29.115,91.48a79.35,79.35,0,0,0,3.277,12.013c-3.294-.338-6.34-.741-9.057-1.194a68.869,68.869,0,0,1-4.158-12.12C22.182,90.673,25.525,91.117,29.115,91.48Zm49.42,23.294c-3.343.173-6.793.3-10.251.362.091-2.841.165-6.052.214-9.823,3.993-.074,8-.214,11.948-.42a98.548,98.548,0,0,1-1.919,9.881Zm33.611-14.212c-2.371.552-5.089,1.062-8.078,1.515a72.952,72.952,0,0,0,3.392-12.137c3.318-.511,6.3-1.07,8.868-1.663a64.94,64.94,0,0,1-4.191,12.277Zm1.688-56.782a78.6,78.6,0,0,0-5.8-12.417,40.384,40.384,0,0,0,5.22-1.564A71.074,71.074,0,0,1,119.772,42a47.371,47.371,0,0,1-5.945,1.77ZM27.106,20.272c.453.124.947.255,1.49.387,1.145.272,2.429.535,3.821.774A74.839,74.839,0,0,0,25.583,32.45c-1.762-.3-3.368-.626-4.776-.963-.642-.156-1.21-.3-1.746-.453a70.381,70.381,0,0,1,8.045-10.77Zm78.462,91.249c-1.984.461-4.29.9-6.834,1.285a57.95,57.95,0,0,0,5.13-10.177c2.981-.453,5.673-.963,8.02-1.5a57.082,57.082,0,0,1-6.307,10.391ZM78.915,4.537A54.638,54.638,0,0,1,89.446,10.7q-1.853.42-4.2.782a47.028,47.028,0,0,0-8.6-6.513C77.5,4.833,78.256,4.685,78.915,4.537Zm-2.66.494a46.42,46.42,0,0,1,8.58,6.5c-1.2.181-2.495.346-3.862.494-.511.058-1.037.107-1.556.165a41.309,41.309,0,0,0-6.159-6.8c.222-.025.445-.041.667-.066h.033c.807-.091,1.581-.189,2.306-.3Zm-3.376.4A39.9,39.9,0,0,1,79,12.236c-1.935.181-3.977.338-6.085.453A45.337,45.337,0,0,0,69.462,5.7c1.21-.066,2.363-.156,3.425-.255ZM52.615,12.7c-1.96-.107-3.8-.255-5.5-.42a42.792,42.792,0,0,1,7.353-6.818c.93.091,1.96.173,3.063.239A40.311,40.311,0,0,0,52.615,12.7ZM46.7,12.236c-1.713-.173-3.294-.387-4.718-.618A50.95,50.95,0,0,1,51.5,5.072c.774.132,1.647.239,2.577.346A42.936,42.936,0,0,0,46.7,12.236Zm-5.122-.683c-1-.173-1.943-.354-2.8-.56-.313-.074-.6-.156-.889-.231A58.623,58.623,0,0,1,49.149,4.57c.189.049.387.107.6.156.412.1.873.189,1.359.272a51.129,51.129,0,0,0-9.527,6.546Zm-29.346,32.9A74.332,74.332,0,0,0,8.769,58.132,23.5,23.5,0,0,1,3.8,56.189a67.291,67.291,0,0,1,3.8-13.545,22.185,22.185,0,0,0,4.644,1.811ZM9.066,58.865c.683.2,1.424.387,2.2.568,1.77.42,3.746.815,5.854,1.177a87.3,87.3,0,0,0-.634,11.618c.008.972.041,1.943.091,2.9-2.124-.362-4.109-.758-5.9-1.186-.79-.189-1.548-.387-2.264-.585-.049-.972-.091-1.96-.1-2.948a74.493,74.493,0,0,1,.758-11.544Zm108.524-.832a80.177,80.177,0,0,0-3.549-13.668,48.308,48.308,0,0,0,5.97-1.779,71.1,71.1,0,0,1,3.969,13.545,50.718,50.718,0,0,1-6.39,1.91Zm-4.348-28.852a69.594,69.594,0,0,0-8.7-10.457,8.628,8.628,0,0,0,2.338-1.309,67.716,67.716,0,0,1,9.263,10.153A10.165,10.165,0,0,1,113.242,29.181ZM104.1,18.3A66.585,66.585,0,0,0,93.588,9.98a6.324,6.324,0,0,0,1.622-.914,66.533,66.533,0,0,1,11.215,7.954A8.365,8.365,0,0,1,104.1,18.3ZM47.658,4a5.474,5.474,0,0,0,1.136.461,59.07,59.07,0,0,0-11.256,6.2A11.932,11.932,0,0,1,35.283,9.8,64.1,64.1,0,0,1,47.658,4ZM34.731,10.128a11.781,11.781,0,0,0,2.281.906,65.288,65.288,0,0,0-9.84,8.687,16.13,16.13,0,0,1-3.236-1.252,66.958,66.958,0,0,1,10.795-8.333ZM14.319,29.865a19.365,19.365,0,0,0,4.059,1.589,73.958,73.958,0,0,0-5.937,12.433,22.025,22.025,0,0,1-4.619-1.8,68.185,68.185,0,0,1,6.5-12.211ZM10.638,74.559c1.779.428,3.779.823,5.961,1.194A78.833,78.833,0,0,0,18.543,89.5c-2.05-.354-3.952-.733-5.649-1.136-.832-.206-1.548-.387-2.2-.568A69.369,69.369,0,0,1,8.44,73.982c.708.2,1.449.4,2.2.568Zm2.306,14.385c1.7.4,3.631.79,5.739,1.153a67.576,67.576,0,0,0,4.158,12.12c-1.844-.313-3.557-.659-5.1-1.029-.758-.181-1.416-.354-2.009-.519a63.2,63.2,0,0,1-4.866-12.26c.65.181,1.342.362,2.075.535Zm4.916,12.771c1.564.371,3.318.725,5.229,1.054a56.977,56.977,0,0,0,6.06,10.153c-1.573-.272-3.014-.56-4.265-.865-.659-.156-1.227-.3-1.721-.445a58.375,58.375,0,0,1-7.106-10.358c.568.156,1.169.313,1.811.469Zm19.819,19.638a46.45,46.45,0,0,1-7.649-7.847c2.289.379,4.833.708,7.584.988a41.491,41.491,0,0,0,5.961,7.633c-2.116-.222-4.1-.478-5.9-.782Zm80.545-22.586a44.007,44.007,0,0,1-5.632,1.688,64.739,64.739,0,0,0,4.183-12.277,50.853,50.853,0,0,0,6.208-1.844,61.919,61.919,0,0,1-4.759,12.425Zm4.924-13.051a47.459,47.459,0,0,1-6.233,1.861,74.516,74.516,0,0,0,1.737-13.808,52.141,52.141,0,0,0,6.488-1.935,66.968,66.968,0,0,1-1.993,13.883ZM125.165,71.2a49.245,49.245,0,0,1-6.5,1.935c.025-.93.033-1.9.016-2.89a80.6,80.6,0,0,0-1-11.593,50.407,50.407,0,0,0,6.406-1.91,71.112,71.112,0,0,1,1.1,11.5c.016,1,0,1.993-.025,2.956Zm-5.056-29.313a71.153,71.153,0,0,0-6.53-12.2,10.392,10.392,0,0,0,2.915-1.63,67.073,67.073,0,0,1,6.933,11.972,11.7,11.7,0,0,1-3.318,1.853ZM81.9,3.392a65.155,65.155,0,0,1,12.771,5.36,6.165,6.165,0,0,1-1.614.881,61.814,61.814,0,0,0-11.939-5.78A3.318,3.318,0,0,0,81.9,3.392Zm-58.4,15.488a16.34,16.34,0,0,0,3.261,1.285,70.137,70.137,0,0,0-8.061,10.762,19.337,19.337,0,0,1-4.026-1.573,67.889,67.889,0,0,1,8.827-10.474ZM3.689,56.815A24.2,24.2,0,0,0,8.67,58.75a74.777,74.777,0,0,0-.774,11.6c.016.972.049,1.943.1,2.882a24.184,24.184,0,0,1-5.039-1.976c-.058-.947-.091-1.943-.107-2.964a67.74,67.74,0,0,1,.84-11.478ZM76.115,4.652A36.042,36.042,0,0,0,67.3,1.07,48.122,48.122,0,0,1,78.248,4.257C77.581,4.405,76.873,4.537,76.115,4.652Zm-2.4.313c-.288.033-.576.058-.865.091a23.741,23.741,0,0,0-6.34-3.886.889.889,0,0,0,.156-.025,35.12,35.12,0,0,1,9.016,3.574c-.609.091-1.268.173-1.976.255Zm-4.5.362A16.394,16.394,0,0,0,65.7,1.243c.124-.008.239-.016.354-.033a22.869,22.869,0,0,1,6.406,3.87c-1.029.1-2.108.181-3.236.239Zm-3.746.14c-.214-1.82-.42-3.228-.626-4.183.173,0,.346-.008.519-.016a15.7,15.7,0,0,1,3.516,4.084c-1.12.058-2.264.1-3.4.115Zm-3.714,0a16.3,16.3,0,0,1,2.306-4.183h.543c.181.972.371,2.38.552,4.183-1.153.016-2.3.016-3.4,0Zm-.321,0c-1.062-.016-2.149-.058-3.228-.115a18.894,18.894,0,0,1,5.163-4.084c.132,0,.272.016.4.016a16.878,16.878,0,0,0-2.347,4.183Zm-3.59-.132c-.988-.058-1.96-.132-2.9-.222A29.2,29.2,0,0,1,62.76,1.219a2.027,2.027,0,0,1,.214.016,20.1,20.1,0,0,0-5.122,4.092Zm-3.3-.255c-.889-.091-1.7-.2-2.437-.313a42.062,42.062,0,0,1,10.1-3.606h.041A30.286,30.286,0,0,0,54.55,5.08ZM51.693,4.7c-.568-.1-1.1-.206-1.556-.313-.107-.025-.2-.049-.3-.082A54.143,54.143,0,0,1,61.36,1.128a43,43,0,0,0-9.667,3.565ZM7.32,42.479A67.334,67.334,0,0,0,3.508,56.008,3.715,3.715,0,0,1,1.721,54.1,63.836,63.836,0,0,1,5.607,40.767,4.018,4.018,0,0,0,7.32,42.479Zm117.005,13.5a71.312,71.312,0,0,0-3.985-13.537,11.888,11.888,0,0,0,3.335-1.861,66.257,66.257,0,0,1,4.216,13.4A12.619,12.619,0,0,1,124.325,55.983Zm-7.616-28.127a2.565,2.565,0,0,0,.568-.8,64.506,64.506,0,0,1,6.949,11.931,2.737,2.737,0,0,1-.576.823,66.977,66.977,0,0,0-6.941-11.956ZM78.668,4.166a48.474,48.474,0,0,0-10.2-3.1A58.007,58.007,0,0,1,80.1,3.746a14.213,14.213,0,0,1-1.441.42ZM49.429,4.2a7.638,7.638,0,0,1-1.12-.412A62.209,62.209,0,0,1,60.182,1.112,54.716,54.716,0,0,0,49.42,4.2Zm-2.017-.354a64.276,64.276,0,0,0-12.392,5.8,1.865,1.865,0,0,1-.823-.832A64.725,64.725,0,0,1,47.033,3.425,1.1,1.1,0,0,0,47.411,3.845ZM34.492,9.98a66.251,66.251,0,0,0-10.8,8.341A2.5,2.5,0,0,1,22.512,17.1,64.687,64.687,0,0,1,33.677,9.132a2.027,2.027,0,0,0,.815.856ZM14.064,29.708a68.084,68.084,0,0,0-6.513,12.2,3.465,3.465,0,0,1-1.68-1.779,64.264,64.264,0,0,1,6.694-11.948,3.478,3.478,0,0,0,1.5,1.523ZM8.036,73.875a69.077,69.077,0,0,0,2.248,13.8,23.22,23.22,0,0,1-4.825-1.894,63.9,63.9,0,0,1-2.454-13.85,24.7,24.7,0,0,0,5.031,1.951Zm2.413,14.409a63.9,63.9,0,0,0,4.842,12.252,20.5,20.5,0,0,1-4.331-1.713A61.979,61.979,0,0,1,5.665,86.449a24.279,24.279,0,0,0,4.784,1.844ZM15.6,101.122a58.543,58.543,0,0,0,7.057,10.334,17.4,17.4,0,0,1-3.582-1.424,61.251,61.251,0,0,1-7.723-10.54,22.421,22.421,0,0,0,4.241,1.622ZM47.14,126.993a38.985,38.985,0,0,1-8.86-5.179c1.7.28,3.623.527,5.706.741a29.135,29.135,0,0,0,6.768,4.932c-1.293-.14-2.52-.3-3.623-.486Zm4.29.56a28.1,28.1,0,0,1-6.917-4.949c2.116.206,4.389.387,6.76.519a20.949,20.949,0,0,0,4.595,4.776c-1.573-.091-3.071-.206-4.446-.346ZM62,128.426c.807.008,1.622.016,2.429.016.873,0,1.754-.008,2.618-.025a8.3,8.3,0,0,1-.272,1.383c-.5.008-1,.041-1.5.041-.626,0-1.243-.033-1.861-.049A4.7,4.7,0,0,1,62,128.417Zm5.105,1.375a7.944,7.944,0,0,0,.3-1.383c1.647-.033,3.343-.091,5.039-.173a6.492,6.492,0,0,1-1.894,1.367C69.413,129.7,68.268,129.768,67.107,129.8Zm9.09-6.686c2.569-.14,5.089-.329,7.493-.552a22.826,22.826,0,0,1-5.484,4.965c-1.564.148-3.244.28-5,.379a19.166,19.166,0,0,0,2.989-4.792Zm8-.6c.659-.066,1.3-.132,1.943-.2,1.647-.181,3.219-.379,4.677-.593a32.447,32.447,0,0,1-7.732,5.22c-1.021.156-2.157.3-3.376.436l-.124.016c-.263.025-.535.058-.8.082a23.944,23.944,0,0,0,5.4-4.957Zm7.188-.881c1.828-.28,3.508-.593,5-.922a43.939,43.939,0,0,1-8.069,4.875c-.79.3-1.581.585-2.38.856-.65.132-1.342.255-2.075.379A33.594,33.594,0,0,0,91.389,121.633Zm9.576-2.577a28.346,28.346,0,0,1-3.318,1,50.055,50.055,0,0,0,8-8.11,39.225,39.225,0,0,0,4.586-1.342,56.02,56.02,0,0,1-8.7,8.078c-.189.132-.379.255-.568.379ZM118.339,99.22a14.141,14.141,0,0,0,2.635-1.334A65.353,65.353,0,0,1,112.6,109.15a13.079,13.079,0,0,1-1.309.626,59.44,59.44,0,0,0,7.057-10.556Zm3.1-2.149a11.223,11.223,0,0,1-2.791,1.523,62.344,62.344,0,0,0,4.718-12.4,13.025,13.025,0,0,0,3.392-1.844,61.984,61.984,0,0,1-2.791,7.773c-.774,1.688-1.622,3.343-2.536,4.949Zm5.533-13.454a12.079,12.079,0,0,1-3.442,1.943A66.4,66.4,0,0,0,125.5,71.693a13.649,13.649,0,0,0,3.606-1.984,63.771,63.771,0,0,1-2.133,13.907Zm2.166-14.6a12.349,12.349,0,0,1-3.615,2.026c.025-.955.033-1.919.025-2.874a70.127,70.127,0,0,0-1.112-11.577,13.18,13.18,0,0,0,3.582-1.984,66.3,66.3,0,0,1,1.153,11.421c.008,1,0,2-.033,2.981ZM81.261,3.211a3.863,3.863,0,0,1-.79.412A58.347,58.347,0,0,0,69.544,1,63.556,63.556,0,0,1,81.261,3.219Zm-33.232.42a1.13,1.13,0,0,1-.4-.379,65.321,65.321,0,0,1,11.346-2.2A62.265,62.265,0,0,0,48.037,3.631ZM22.051,17.505a2.781,2.781,0,0,0,1.194,1.227A68.6,68.6,0,0,0,14.4,29.206a3.032,3.032,0,0,1-1.466-1.54,65.436,65.436,0,0,1,9.115-10.161Zm1.079,94.51a54.329,54.329,0,0,0,8.786,8.028,15.477,15.477,0,0,1-1.828-.683c-1.482-.963-2.915-1.993-4.306-3.071a60.224,60.224,0,0,1-5.986-5.517,20.971,20.971,0,0,0,3.335,1.235ZM81.615,2.816a.56.56,0,0,1-.148.214,64,64,0,0,0-9.642-1.984A64.1,64.1,0,0,1,81.615,2.816ZM97.021,120.554c1.062-.255,1.993-.519,2.816-.79a65.042,65.042,0,0,1-8.884,4.735A46.055,46.055,0,0,0,97.021,120.554Zm31.116-66.811a65.963,65.963,0,0,0-4.232-13.356,2.824,2.824,0,0,0,.593-.8,64.475,64.475,0,0,1,4.166,13.438A2.847,2.847,0,0,1,128.137,53.743ZM2.124,78.561l-.033-.132h0L1.433,74.7c-.222-1.532-.387-3.047-.5-4.52a5.084,5.084,0,0,0,1.746,1.556A64.486,64.486,0,0,0,5.089,85.543,3.509,3.509,0,0,1,3.458,83.8H3.434c-.5-1.672-.939-3.359-1.3-5.08h.025c-.008-.058-.025-.107-.033-.156ZM10.91,99.253A61.39,61.39,0,0,0,18.321,109.5a.114.114,0,0,0-.033-.025A64.956,64.956,0,0,1,10.013,98.61a6.319,6.319,0,0,0,.9.642Zm20.47,20.931c.4.148.832.288,1.317.428,1.375.963,2.8,1.836,4.257,2.66q-2.865-1.408-5.574-3.088Zm18.288,7.723c-.436-.14-.873-.3-1.3-.453.963.14,2,.272,3.1.379a22.84,22.84,0,0,0,2.338.955c-1.392-.255-2.775-.535-4.133-.881Zm2.585,0c1.276.124,2.635.222,4.059.3a12.348,12.348,0,0,0,2.454,1.293c-1.112-.115-2.207-.247-3.3-.42a22.582,22.582,0,0,1-3.219-1.177ZM71.2,129.545a7.79,7.79,0,0,0,1.713-1.342c1.639-.091,3.2-.206,4.669-.338a15.791,15.791,0,0,1-2.816,1.26c-1.177.173-2.371.313-3.565.42Zm7.04-1.746h.1c.4-.049.807-.091,1.21-.14.914-.1,1.77-.214,2.585-.321-.56.239-1.12.469-1.688.667-1.482.354-2.981.667-4.5.922A16.016,16.016,0,0,0,78.239,127.8Zm4.784-.585.906-.148c-.56.165-1.12.329-1.688.478.263-.115.519-.214.782-.338Zm27.732-16.83c.4-.165.766-.329,1.112-.494a65.2,65.2,0,0,1-6.4,5.846A56.919,56.919,0,0,0,110.755,110.385ZM127.709,81.7a64.751,64.751,0,0,0,1.68-12.244,2.549,2.549,0,0,0,.321-.354A64.236,64.236,0,0,1,127.709,81.7Zm2.05-13.413a3.345,3.345,0,0,1-.354.445c.025-.93.041-1.861.025-2.767a65.779,65.779,0,0,0-1.177-11.569,3.656,3.656,0,0,0,.527-.65,64.893,64.893,0,0,1,1.054,11.528c0,1.013-.033,2.017-.074,3.014ZM66,.733c-.107.016-.231.041-.387.058A11.223,11.223,0,0,1,63.188.774c.7-.025,1.392-.049,2.091-.049.239,0,.478.016.716.016Z" fill="#4bb8e9"/>
  <g id="Group_4" data-name="Group 4" transform="translate(148.278 35.143)">
    <path id="Path_3" data-name="Path 3" d="M190.323,50.471H180.08V42.69h10.243Zm0,37.9H180.08V54.111h10.243Z" transform="translate(-180.08 -42.682)" fill="#0e446c"/>
    <path id="Path_4" data-name="Path 4" d="M202.04,42.7h15l9.074,30.062h.124L235.19,42.7h15.06V88.382H239.513l.371-34.2-.124-.124-9.749,34.319H222.3l-9.749-34.319-.124.124.371,34.2H202.056V42.7Z" transform="translate(-183.958 -42.684)" fill="#2bace2"/>
    <path id="Path_5" data-name="Path 5" d="M301.231,79.836a20.1,20.1,0,0,1-6.974,8.769,16.67,16.67,0,0,1-9.749,3.088A18.176,18.176,0,0,1,266.36,73.545c0-9.568,7.534-18.395,17.967-18.395s18.082,8.275,18.082,18.7a14.068,14.068,0,0,1-.247,2.717H276.48c.618,4.076,4.01,6.48,8.028,6.48a7.276,7.276,0,0,0,6.233-3.211h10.5ZM292.157,69.65a8.1,8.1,0,0,0-15.562,0h15.554Z" transform="translate(-195.317 -44.882)" fill="#2bace2"/>
    <path id="Path_6" data-name="Path 6" d="M350.865,88.372h-9.749V84.667h-.124c-.865,1.416-3.335,4.817-10.243,4.817-10.367,0-17.16-8.028-17.16-18.337,0-11.6,8.275-18.214,16.978-18.214a13.125,13.125,0,0,1,10.062,4.076V42.69h10.243V88.372Zm-18.452-8.456c6.422,0,8.761-5.245,8.761-8.827a8.407,8.407,0,0,0-8.646-8.58,8.563,8.563,0,0,0-8.7,8.58,8.4,8.4,0,0,0,8.58,8.827Z" transform="translate(-203.658 -42.682)" fill="#2bace2"/>
    <path id="Path_7" data-name="Path 7" d="M366.88,42.7h25.369V52.94h-14.2v7.1h13.767V70.28H378.054v7.839h14.2V88.362H366.88V42.68Z" transform="translate(-213.069 -42.68)" fill="#0e446c"/>
    <path id="Path_8" data-name="Path 8" d="M423.31,90.822H413.5L401.21,56.56h10.614l6.546,21.359h.124l6.546-21.359h10.614Z" transform="translate(-219.132 -45.131)" fill="#0e446c"/>
    <path id="Path_9" data-name="Path 9" d="M478.451,79.836a20.1,20.1,0,0,1-6.974,8.769,16.67,16.67,0,0,1-9.749,3.088A18.176,18.176,0,0,1,443.58,73.545c0-9.568,7.534-18.395,17.967-18.395s18.082,8.275,18.082,18.7a14.068,14.068,0,0,1-.247,2.717H453.7c.618,4.076,4.01,6.48,8.028,6.48a7.276,7.276,0,0,0,6.233-3.211h10.5ZM469.377,69.65a8.1,8.1,0,0,0-15.562,0h15.554Z" transform="translate(-226.614 -44.882)" fill="#0e446c"/>
    <path id="Path_10" data-name="Path 10" d="M492.75,56.317h9.568v3.639h.124c1.046-1.663,3.211-4.817,9.321-4.817a14.728,14.728,0,0,1,8.761,2.964c1.853,1.606,3.952,4.323,3.952,11.05V90.571H514.232v-18.7c0-2.4,0-7.1-5.369-7.1C503,64.774,503,69.838,503,71.937V90.579H492.758V56.317Z" transform="translate(-235.298 -44.88)" fill="#0e446c"/>
    <path id="Path_11" data-name="Path 11" d="M550.257,54.121h4.94V61.9h-4.94V88.382H540.014V61.9H534.95V54.121h5.064V42.7h10.243V54.121Z" transform="translate(-242.75 -42.684)" fill="#0e446c"/>
    <path id="Path_12" data-name="Path 12" d="M577.529,65.943c-.066-.741-.189-2.594-3.211-2.594-2.157,0-2.9,1.359-2.9,2.281,0,1.853,2.528,2.9,5.245,3.705,5.8,1.606,11.972,3.335,11.972,10.737S582.28,91.74,574.688,91.74c-5.187,0-13.026-2.347-13.948-11.355h10.185a3.643,3.643,0,0,0,3.886,3.145c1.729,0,3.582-.988,3.582-2.651,0-2.651-2.528-2.964-9.074-5.492-4.446-1.416-8.152-4.323-8.152-8.95,0-6.793,6.175-11.3,13.273-11.3,4.5,0,12.285,1.787,13.15,10.8H577.529Z" transform="translate(-247.305 -44.88)" fill="#0e446c"/>
  </g>
  <g id="Group_5" data-name="Group 5" transform="translate(148.434 90.335)">
    <path id="Path_13" data-name="Path 13" d="M180.27,110.94H182.1v12.45H180.27Z" transform="translate(-180.27 -109.927)" fill="#0e446c"/>
    <path id="Path_14" data-name="Path 14" d="M193.6,110.94h1.828l7.155,9.436V110.94h1.828v12.45h-1.828l-7.155-9.436v9.436H193.6Z" transform="translate(-182.624 -109.927)" fill="#0e446c"/>
    <path id="Path_15" data-name="Path 15" d="M221.146,112.644H217.07v-1.7h10v1.7h-4.092V123.39h-1.828V112.644Z" transform="translate(-186.769 -109.927)" fill="#0e446c"/>
    <path id="Path_16" data-name="Path 16" d="M241.114,112.644v3.549h6.6v1.7h-6.6v3.788h7.3v1.7H239.27V110.94h9.148v1.7h-7.3Z" transform="translate(-190.689 -109.927)" fill="#0e446c"/>
    <path id="Path_17" data-name="Path 17" d="M267.36,118.878l3.17,4.512h-2.1l-3.047-4.331h-2.865v4.331H260.69V110.94h5.237c2.627,0,4.619,1.688,4.619,4.059A3.992,3.992,0,0,1,267.36,118.878Zm-4.842-1.523h3.154c1.795,0,3.005-.889,3.005-2.355s-1.21-2.355-3.005-2.355h-3.154Z" transform="translate(-194.472 -109.927)" fill="#0e446c"/>
    <path id="Path_18" data-name="Path 18" d="M282.98,110.94h1.828l7.155,9.436V110.94h1.828v12.45h-1.828l-7.155-9.436v9.436H282.98Z" transform="translate(-198.409 -109.927)" fill="#0e446c"/>
    <path id="Path_19" data-name="Path 19" d="M315.731,120.854h-6.488l-1.087,2.536H306.13l5.344-12.45H313.5l5.344,12.45h-2.026Zm-.708-1.647-2.536-5.9-2.536,5.9h5.072Z" transform="translate(-202.497 -109.927)" fill="#0e446c"/>
    <path id="Path_20" data-name="Path 20" d="M333.236,112.644H329.16v-1.7h10v1.7h-4.092V123.39h-1.828V112.644Z" transform="translate(-206.564 -109.927)" fill="#0e446c"/>
    <path id="Path_21" data-name="Path 21" d="M351.38,110.94h1.828v12.45H351.38Z" transform="translate(-210.488 -109.927)" fill="#0e446c"/>
    <path id="Path_22" data-name="Path 22" d="M363.85,117.111a6.447,6.447,0,1,1,6.464,6.447A6.533,6.533,0,0,1,363.85,117.111Zm11.034,0a4.578,4.578,0,1,0-4.562,4.767A4.715,4.715,0,0,0,374.884,117.111Z" transform="translate(-212.69 -109.881)" fill="#0e446c"/>
    <path id="Path_23" data-name="Path 23" d="M390.03,110.94h1.828l7.155,9.436V110.94h1.828v12.45h-1.828l-7.155-9.436v9.436H390.03Z" transform="translate(-217.314 -109.927)" fill="#0e446c"/>
    <path id="Path_24" data-name="Path 24" d="M422.781,120.854h-6.488l-1.087,2.536H413.18l5.344-12.45h2.026l5.344,12.45h-2.026l-1.087-2.536Zm-.708-1.647-2.536-5.9-2.536,5.9h5.072Z" transform="translate(-221.402 -109.927)" fill="#0e446c"/>
    <path id="Path_25" data-name="Path 25" d="M446.61,121.685v1.7h-8.44V110.94h1.844v10.745Z" transform="translate(-225.815 -109.927)" fill="#0e446c"/>
    <path id="Path_26" data-name="Path 26" d="M471.5,117.111a6.535,6.535,0,0,1,6.472-6.431,6.365,6.365,0,0,1,4.586,1.96l-1.285,1.235a4.51,4.51,0,0,0-3.294-1.507,4.758,4.758,0,0,0,0,9.51,4.51,4.51,0,0,0,3.294-1.507l1.285,1.235a6.464,6.464,0,0,1-4.586,1.96,6.554,6.554,0,0,1-6.472-6.447Z" transform="translate(-231.701 -109.881)" fill="#0e446c"/>
    <path id="Path_27" data-name="Path 27" d="M494.95,110.94h1.828l4.364,8.135,4.364-8.135h1.828v12.45h-1.828v-8.86l-4.364,8.135-4.364-8.135v8.86H494.95Z" transform="translate(-235.843 -109.927)" fill="#0e446c"/>
    <path id="Path_28" data-name="Path 28" d="M522.934,112.644v3.549h6.6v1.7h-6.6v3.788h7.3v1.7H521.09V110.94h9.148v1.7h-7.3Z" transform="translate(-240.459 -109.927)" fill="#0e446c"/>
    <path id="Path_29" data-name="Path 29" d="M546.774,109.71h1.96l-6.324,14.8h-1.96Z" transform="translate(-243.878 -109.71)" fill="#0e446c"/>
    <path id="Path_30" data-name="Path 30" d="M558.93,117.111a6.535,6.535,0,0,1,6.472-6.431,6.365,6.365,0,0,1,4.586,1.96l-1.284,1.235a4.51,4.51,0,0,0-3.294-1.507,4.758,4.758,0,0,0,0,9.51,4.51,4.51,0,0,0,3.294-1.507l1.284,1.235a6.464,6.464,0,0,1-4.586,1.96,6.554,6.554,0,0,1-6.472-6.447Z" transform="translate(-247.142 -109.881)" fill="#0e446c"/>
    <path id="Path_31" data-name="Path 31" d="M583.964,112.644v3.549h6.6v1.7h-6.6v3.788h7.3v1.7H582.12V110.94h9.148v1.7h-7.3Z" transform="translate(-251.237 -109.927)" fill="#0e446c"/>
  </g>
  <g id="Group_6" data-name="Group 6" transform="translate(17.456 27.909)">
    <path id="Path_32" data-name="Path 32" d="M66.5,57.621c.436-1.087.84-2.1,1.26-3.1.239-.576.469-1.153.741-1.7a2.827,2.827,0,0,1,3.269-1.82,24.29,24.29,0,0,1,2.5.552c.173.041.329.107.659.222a7.828,7.828,0,0,0-.28-1.037c-.3-.683-.618-1.367-.963-2.026a3.316,3.316,0,0,1-.2-3.005c.2-.461.074-.716-.28-1.062a6.138,6.138,0,0,1,1.9-10.276,5.9,5.9,0,0,1,6.151.939,6.127,6.127,0,0,1,2.149,5.945A6.5,6.5,0,0,1,81.37,44.85a.6.6,0,0,0-.156.8,2.983,2.983,0,0,1,0,2.643c-.4.881-.815,1.754-1.21,2.643a4.851,4.851,0,0,0-.2.823c.321-.1.511-.165.692-.214.758-.189,1.507-.436,2.281-.56a3.111,3.111,0,0,1,3.574,1.984c.634,1.474,1.2,2.981,1.836,4.578-.782.025-1.5.074-2.215.074A10.822,10.822,0,0,0,80.6,59.136a1.416,1.416,0,0,0-.782,1.235c-.074,2.042-.132,4.092-.206,6.134-.008.3.091.436.4.436,2.758-.016,5.533.156,8.234-.568a8.784,8.784,0,0,0,2.371-1.07c.716-.445.807-1.013.543-1.877a1.79,1.79,0,0,0-1.548-1.268c-.98,0-1.968.1-2.948.14-1.367.058-2.734.124-4.1.148a2.477,2.477,0,0,1-1.013-.3c.881-.543,1.894-.214,2.808-.436a1.72,1.72,0,0,1,.008-.206c-.807-.148-1.606-.3-2.413-.436-.008-.049-.025-.1-.033-.148a5.029,5.029,0,0,1,.519-.42,6.379,6.379,0,0,1,3.063-.716,13.045,13.045,0,0,1,6.39.9c.329.165.659.321.972.5,2.775,1.6,2.791,4.85.815,6.917a9.7,9.7,0,0,1-5.443,2.594,42.774,42.774,0,0,1-7.806.543c-.98.008-.988.008-1.013,1q-.111,3.483-.206,6.958v.733c.428-.091.8-.148,1.161-.247a9.388,9.388,0,0,0,3.73-1.787A3.944,3.944,0,0,0,85.5,73.76a3.184,3.184,0,0,0-1.754-1.951c.461-.066.774-.1,1.079-.148,1.729-.28,3.458-.543,5.179-.873a.659.659,0,0,1,.865.4,7.308,7.308,0,0,1-.091,6.612,10.561,10.561,0,0,1-6.768,5.821c-1.392.42-2.832.692-4.265.972-.535.107-.741.329-.733.856.016,1.5,0,2.989,0,4.553a3.247,3.247,0,0,0,2.651-1.663A2.4,2.4,0,0,0,81.238,85c1.507-.469,2.981-.922,4.578-1.416.132.815.313,1.589.379,2.38.255,3.285-1.293,5.607-4.018,7.229a21.95,21.95,0,0,1-2.841,1.268c-.321.132-.5.272-.511.65-.016.749-.1,1.5-.14,2.24a5.6,5.6,0,0,0,.033.568,3.66,3.66,0,0,0,1.293-1.4c.4-.741-.156-1.145-.486-1.564.972-.453,1.9-.9,2.841-1.317.659-.3.807-.222,1.013.469a4.615,4.615,0,0,1-1.877,5.2,14.836,14.836,0,0,1-2.429,1.359c-.379.189-.576.379-.56.815.025.725,0,1.449,0,2.166.066.033.132.074.2.107.206-.239.519-.445.6-.716a1.734,1.734,0,0,0-.082-1,4.177,4.177,0,0,0-.552-.873c.65-.28,1.252-.527,1.844-.8a.691.691,0,0,1,.914.206,3.574,3.574,0,0,1,.066,4.2,5.729,5.729,0,0,1-2.75,2.256.583.583,0,0,0-.436.642c0,.782-.066,1.564-.107,2.355,0,.132.016.272.025.436a1.691,1.691,0,0,0,.618-2.256c-.329-.7-.329-.692.387-1.029.445-.214.865-.453,1.326-.692a3.507,3.507,0,0,1-.115,3.672,12.329,12.329,0,0,1-1.7,2.059,2.623,2.623,0,0,0-.593,2.141c.066.025.132.041.189.066.082-.247.288-.543.222-.733-.3-.873.28-1.219.848-1.647a2.32,2.32,0,0,1,.338,2.618,5.615,5.615,0,0,1-.815,1.416,6.28,6.28,0,0,0-1.3,3.541,23.092,23.092,0,0,1-.338,2.454c-.272-2.989-.543-5.978-.823-9.033-.469.263-.4.593-.346.914.189,1.128.387,2.256.585,3.4-.132.008-.181.025-.2.008a7.475,7.475,0,0,1-1.787-3.812,2.059,2.059,0,0,1,1.293-2.3.726.726,0,0,0,.494-.84c-.074-.873-.124-1.746-.181-2.651-.725.428-.725,1-.074,3.047-.379.2-.758.4-1.128.593a3.967,3.967,0,0,1,.247-6.39,1.634,1.634,0,0,0,.84-1.762,15.515,15.515,0,0,1-.008-1.762c-.469.428-.955.758-.873,1.326a6.108,6.108,0,0,0,.609,1.441c-.4.272-.865.634-1.367.914a.722.722,0,0,1-.609-.107,3.416,3.416,0,0,1-.519-4.957,6.289,6.289,0,0,1,2.215-1.663c.156-.074.379-.247.379-.371,0-.988-.041-1.968-.074-2.956a.535.535,0,0,0-.074-.189c-1.128.124-1.573.84-1.062,1.779a8.554,8.554,0,0,0,.914,1.169c-.79.511-1.622,1.046-2.487,1.606a4.759,4.759,0,0,1-.313-7.666,16.145,16.145,0,0,1,2.429-1.573c.28-.165.436-.3.42-.659-.041-1.392-.041-2.775-.066-4.166-.008-.642-.2-.807-.84-.774a2.235,2.235,0,0,0-2.075,3.277,3.665,3.665,0,0,0,2.017,1.984c-.914.708-1.8,1.424-2.734,2.075a.928.928,0,0,1-.832-.033,6.563,6.563,0,0,1-3.261-5.5,4.866,4.866,0,0,1,1.466-3.376,8.28,8.28,0,0,1,5.5-2.981c.321-.033.552-.124.535-.535-.091-2.725-.173-5.443-.255-8.168,0-.033-.025-.066-.058-.14-1.8-.033-3.6-.025-5.122,1.21a3.126,3.126,0,0,0-.725,3.664,5.541,5.541,0,0,0,3.294,3.03c.494.181.98.362,1.606.6A10.779,10.779,0,0,0,68.92,83a12.047,12.047,0,0,1-4.66-4.471,8.044,8.044,0,0,1-1.21-3.886,6.351,6.351,0,0,1,3.4-5.961A12.8,12.8,0,0,1,73.061,67c.453,0,.914-.049,1.367-.033.469.016.667-.173.659-.642-.025-1.2-.016-2.413-.058-3.615-.025-.766-.14-1.532-.132-2.3a1.328,1.328,0,0,0-.758-1.219,10.769,10.769,0,0,0-4.652-1.507c-.741-.066-1.49-.025-2.24-.033h-.782Z" transform="translate(-28.59 -33.894)" fill="#0e446c"/>
    <path id="Path_33" data-name="Path 33" d="M64.774,51.325c-1.285.173-1.993-.124-2.478-1.1-.4-.815-.667-1.7-1.021-2.536A20.057,20.057,0,0,0,60,44.844c-1.3-2.083-3.4-2.709-5.887-1.844a27.607,27.607,0,0,0-5.591,2.874A50.587,50.587,0,0,1,35.848,51.9a15.381,15.381,0,0,1-6.381.725,8.606,8.606,0,0,1-6.834-4.973A14.908,14.908,0,0,1,21.2,43.231c.412.156.749.255,1.062.412a22.144,22.144,0,0,0,11.206,1.943,30.546,30.546,0,0,0,11.7-3.4,35.637,35.637,0,0,1,8.292-2.94,10.7,10.7,0,0,1,6.1.3,8.425,8.425,0,0,1,1.96,1.161,3.052,3.052,0,0,1,1.177,2.38c.115,1.82.214,3.648.313,5.476a2.824,2.824,0,0,0,1.754,2.767Z" transform="translate(-21.2 -34.786)" fill="#0e446c"/>
    <path id="Path_34" data-name="Path 34" d="M86.87,51.36a3.7,3.7,0,0,0,1.787-3.491c.025-1.573.148-3.137.2-4.71a3.426,3.426,0,0,1,1.367-2.577,7.55,7.55,0,0,1,5.492-1.564,26.236,26.236,0,0,1,9.3,2.553c1.943.848,3.837,1.811,5.83,2.511a25.158,25.158,0,0,0,16.666.371c.9-.3,1.754-.7,2.775-1.12-.132.683-.206,1.276-.362,1.836a10.954,10.954,0,0,1-3.5,5.7,9.074,9.074,0,0,1-6.925,1.8,23.855,23.855,0,0,1-8.621-2.561c-3.359-1.721-6.637-3.623-9.938-5.451a15.4,15.4,0,0,0-4.5-1.943,4.391,4.391,0,0,0-4.644,1.877,13.828,13.828,0,0,0-1.721,3.829,11.28,11.28,0,0,1-.939,2.083,2.059,2.059,0,0,1-2.248.865Z" transform="translate(-32.797 -34.796)" fill="#0e446c"/>
    <path id="Path_35" data-name="Path 35" d="M93.31,46.182a3.927,3.927,0,0,1,4.858-1.606,35.159,35.159,0,0,1,4.092,1.96c2.923,1.581,5.772,3.285,8.72,4.817a26.465,26.465,0,0,0,7.831,2.742,17.082,17.082,0,0,0,5.83.049,4.824,4.824,0,0,1-.173.7,7.568,7.568,0,0,1-4.38,4.059,10.8,10.8,0,0,1-11.742-1.811c-2.116-1.737-4.051-3.689-6.068-5.541-.98-.906-1.919-1.861-2.94-2.709a11,11,0,0,0-6.027-2.66Z" transform="translate(-33.935 -35.728)" fill="#0e446c"/>
    <path id="Path_36" data-name="Path 36" d="M60.853,46.18c-3.047.288-5.319,1.935-7.419,3.9-1.779,1.68-3.532,3.392-5.319,5.064a19.969,19.969,0,0,1-5.377,3.821,10.659,10.659,0,0,1-9.016-.231,7.471,7.471,0,0,1-3.9-3.681,8.552,8.552,0,0,1-.329-.955c4.866.823,9.239-.527,13.413-2.61,3.112-1.556,6.1-3.376,9.156-5.056,1.153-.634,2.33-1.227,3.524-1.762a4.162,4.162,0,0,1,5.278,1.49Z" transform="translate(-22.664 -35.727)" fill="#0e446c"/>
    <path id="Path_37" data-name="Path 37" d="M39.03,61.283c1.07-.074,2.058-.074,3.03-.231a13.279,13.279,0,0,0,6.76-3.409c2.091-1.844,4.076-3.821,6.1-5.747a18.072,18.072,0,0,1,4.932-3.689,6.547,6.547,0,0,1,2.874-.568.665.665,0,0,1,.494.338c.247.626.42,1.285.634,1.919.107.329.016.527-.338.585a11.27,11.27,0,0,0-5.7,3.1c-2.264,2.067-4.372,4.3-6.546,6.464a19.147,19.147,0,0,1-4.5,3.714,4.841,4.841,0,0,1-4.422.387,9.029,9.029,0,0,1-3.31-2.89Z" transform="translate(-24.349 -36.321)" fill="#0e446c"/>
    <path id="Path_38" data-name="Path 38" d="M116.458,61.232a1.621,1.621,0,0,1-.124.379,8.713,8.713,0,0,1-2.841,2.445,4.985,4.985,0,0,1-5.1-.543,21.25,21.25,0,0,1-2.9-2.413c-2.544-2.437-5.047-4.924-7.575-7.386a12.984,12.984,0,0,0-4.965-3.03,2.483,2.483,0,0,0-.8-.173c-.511,0-.527-.255-.4-.634.189-.552.4-1.1.543-1.663a.727.727,0,0,1,.848-.585,7.019,7.019,0,0,1,3.483,1.013,29.488,29.488,0,0,1,4.891,4.043c1.935,1.811,3.821,3.672,5.83,5.393a12.685,12.685,0,0,0,6.085,2.964,20.207,20.207,0,0,0,2.231.181c.231.016.461,0,.79,0Z" transform="translate(-33.649 -36.32)" fill="#0e446c"/>
    <path id="Path_39" data-name="Path 39" d="M50.336,64.688c2.874-2.841,5.7-5.64,8.522-8.448a15.6,15.6,0,0,1,4.8-3.574,14.849,14.849,0,0,1,2.133-.659.6.6,0,0,1,.519.2c.288.412.519.873.79,1.359-2.553.3-4.068,1.976-5.377,3.87-1.326,1.919-2.561,3.9-3.895,5.821a8.057,8.057,0,0,1-1.614,1.77,4.083,4.083,0,0,1-4.208.461c-.593-.231-1.153-.543-1.688-.79Z" transform="translate(-26.343 -37.092)" fill="#0e446c"/>
    <path id="Path_40" data-name="Path 40" d="M107.093,64.619a6.8,6.8,0,0,1-3.886,1.177,4.061,4.061,0,0,1-2.413-1.037,21.028,21.028,0,0,1-3.409-4.611c-.733-1.112-1.424-2.256-2.223-3.327-1.523-2.058-2.544-2.841-4.932-3.3.231-.428.445-.848.692-1.252s.65-.3,1-.214a9.064,9.064,0,0,1,3.961,1.91c1.112.972,2.223,1.951,3.285,2.981,2.38,2.3,4.726,4.628,7.089,6.941.247.239.519.453.84.725Z" transform="translate(-33.391 -37.088)" fill="#0e446c"/>
    <path id="Path_41" data-name="Path 41" d="M72.124,66.575c-.832.148-1.663.3-2.495.436a1.458,1.458,0,0,0,.008.189c.906.28,1.927-.107,2.8.346a1.49,1.49,0,0,0,.025.189,4.076,4.076,0,0,1-1.062.222c-1.622-.058-3.236-.165-4.858-.247-.675-.033-1.35-.082-2.026-.066a1.856,1.856,0,0,0-1.746,1.548,1.668,1.668,0,0,0,.832,1.861,8.463,8.463,0,0,0,3.2,1.062c.593.107,1.186.173,1.951.288-2.108.741-4.084,1.457-5.476,3.252-2-1.062-3.87-2.24-4.273-4.767A3.707,3.707,0,0,1,60.7,67.061a10.056,10.056,0,0,1,5.541-1.828,10.147,10.147,0,0,1,5.2.741c.239.124.469.255.708.387a1.791,1.791,0,0,1-.008.214Z" transform="translate(-27.867 -39.423)" fill="#0e446c"/>
    <path id="Path_42" data-name="Path 42" d="M97.518,62.1a2.605,2.605,0,0,1-3.384-.947c-.387-.782-.749-1.581-1.1-2.38-.543-1.227-1.079-2.454-1.63-3.714A4.338,4.338,0,0,1,93.244,56.1a21.767,21.767,0,0,1,4.273,6Z" transform="translate(-33.597 -37.632)" fill="#0e446c"/>
    <path id="Path_43" data-name="Path 43" d="M62.24,62.191c.379-2.248,4.175-6.727,6-7.081a.4.4,0,0,1,0,.14c-.675,1.515-1.326,3.03-2.042,4.529a7.574,7.574,0,0,1-1.169,1.877,2.391,2.391,0,0,1-2.791.535Z" transform="translate(-28.448 -37.641)" fill="#0e446c"/>
  </g>
</svg>