<svg xmlns="http://www.w3.org/2000/svg" width="29" height="27" viewBox="0 0 29 27">
  <g id="Page-1" transform="translate(-2 -3)">
    <g id="icon-70-document-file-pdf">
      <path id="document-file-pdf" d="M21,26v2a2,2,0,0,1-2,2H4a2,2,0,0,1-2-2.007V5.007A2.008,2.008,0,0,1,4.009,3H14V9a2,2,0,0,0,2.006,2H21v2H12.007A3,3,0,0,0,9,16v7a3,3,0,0,0,3.007,3ZM15,3V9a1,1,0,0,0,.991,1H21L15,3ZM11.995,14A2,2,0,0,0,10,15.992v7.016A2,2,0,0,0,11.995,25H29.005A2,2,0,0,0,31,23.008V15.992A2,2,0,0,0,29.005,14ZM25,19V17h4V16H24v7h1V20h3V19ZM12,18v5h1V20h2a2,2,0,1,0,0-4H12v2Zm1-1v2h2a1,1,0,0,0,0-2Zm5-1v7h3a2,2,0,0,0,2-2.006V18.006A2,2,0,0,0,21,16Zm1,1v5h2a1,1,0,0,0,1-1V18a1,1,0,0,0-1-1Z" fill="#e1575b" fill-rule="evenodd"/>
    </g>
  </g>
</svg>
