<svg xmlns="http://www.w3.org/2000/svg" width="29" height="27" viewBox="0 0 29 27">
  <g id="Page-1" transform="translate(-2 -3)">
    <g id="icon-96-document-file-xls">
      <path id="document-file-xls" d="M21,26v2a2,2,0,0,1-2,2H4a2,2,0,0,1-2-2.007V5.007A2.008,2.008,0,0,1,4.009,3H14V9a2,2,0,0,0,2.006,2H21v2H12.007A3,3,0,0,0,9,16v7a3,3,0,0,0,3.007,3ZM15,3V9a1,1,0,0,0,.991,1H21L15,3ZM11.995,14A2,2,0,0,0,10,15.992v7.016A2,2,0,0,0,11.995,25H29.005A2,2,0,0,0,31,23.008V15.992A2,2,0,0,0,29.005,14ZM14,19.5,12,16h1l1.5,2.625L16,16h1l-2,3.5L17,23H16l-1.5-2.625L13,23H12l2-3.5ZM23,22v1H18V16h1v6Zm3-6a2,2,0,1,0,0,4h.991A1,1,0,1,1,27,22H26a1,1,0,0,1-1-1v-.011H24V21a2,2,0,0,0,2,2H27a2,2,0,1,0,0-4h-.991A1,1,0,1,1,26,17h1a1,1,0,0,1,1,1h1a2,2,0,0,0-2-2Z" fill="#81bf3b" fill-rule="evenodd"/>
    </g>
  </g>
</svg>
