<svg xmlns="http://www.w3.org/2000/svg" width="36.589" height="42.461" viewBox="0 0 36.589 42.461">
  <g id="spaeker" transform="translate(-0.016 0.003)">
    <path id="Path_314" data-name="Path 314" d="M35.116,78.751c-3.295,0-6.59-.006-9.885.008-.343,0-.431-.087-.424-.425q.033-1.623,0-3.246c-.006-.317.08-.4.4-.4,1.518.017,3.037,0,4.555.012a.9.9,0,0,0,.726-.3c1.812-1.975,3.636-3.94,5.447-5.917a2.432,2.432,0,0,0,.657-1.957,2.585,2.585,0,0,0-4.445-1.564q-1.961,1.945-3.9,3.909a.957.957,0,0,1-.758.307q-8.649-.012-17.3,0a1.02,1.02,0,0,1-.8-.341C8.122,67.554,6.837,66.281,5.56,65a2.569,2.569,0,0,0-2.227-.826,2.593,2.593,0,0,0-1.559,4.368c1.792,1.951,3.594,3.891,5.385,5.842a.947.947,0,0,0,.769.316c1.5-.012,3-.008,4.507,0,.133,0,.346-.114.387.146.037.242-.173.235-.314.278-.8.248-1.595.5-2.4.731a.7.7,0,0,0-.581.767c.012.517-.034,1.037.014,1.549.046.488-.135.576-.589.572-2.7-.022-5.395-.013-8.092-.011-.706,0-.84.14-.841.856,0,1.341-.011,2.681,0,4.022A2.062,2.062,0,0,0,2.129,85.78a5.687,5.687,0,0,0,.872,0c.431-.048.568.081.565.543-.019,4.409-.013,8.819-.012,13.228,0,.724.116.837.842.837H31.58c.832,0,.92-.086.92-.908q0-6.226,0-12.453c0-.386-.132-.89.06-1.129.229-.285.756-.09,1.153-.1a2.125,2.125,0,0,0,2.319-2.312c0-1.276,0-2.552,0-3.828,0-.813-.1-.913-.918-.913ZM8.246,73.628a.706.706,0,0,1-.579-.259q-2.5-2.734-5.016-5.457a1.52,1.52,0,0,1-.057-2.238,1.544,1.544,0,0,1,2.238.155c1.349,1.346,2.7,2.689,4.038,4.047a1.2,1.2,0,0,0,.932.394q9.038-.015,18.074,0a1.15,1.15,0,0,0,.889-.382q2.026-2.051,4.073-4.081a1.556,1.556,0,0,1,1.8-.412,1.482,1.482,0,0,1,.51,2.353c-1.731,1.918-3.5,3.8-5.246,5.707a.6.6,0,0,1-.524.165q-2.423,0-4.846,0c-.642,0-.786.15-.787.8,0,1.308-.01,2.617.007,3.925,0,.307-.064.409-.394.408q-4.53-.02-9.061,0c-.34,0-.441-.089-.43-.43.025-.726.014-1.453,0-2.18a.337.337,0,0,1,.3-.4c.882-.246,1.756-.525,2.629-.8a.358.358,0,0,1,.48.142,2.959,2.959,0,0,0,4.557-.008,2.052,2.052,0,0,0-.643-3.174c-1.707-.936-3.967.035-4.244,1.692-.031.186-.149.223-.292.266-.9.276-1.809.556-2.763.849-.008-.123-.015-.187-.016-.251-.018-.76-.1-.843-.886-.843-1.583,0-3.166-.006-4.749.007Zm10.105-.454a2.033,2.033,0,0,1,2.317-.335.987.987,0,0,1,.271,1.616,2.034,2.034,0,0,1-1.433.627,2.1,2.1,0,0,1-.867-.2,1.014,1.014,0,0,1-.287-1.71Zm-6.8,3.379c.016,0,.032,0,.048-.01.386-.109.947-.424,1.117-.279.272.233.048.779.1,1.179-.042.427.17.965-.083,1.226s-.8.07-1.21.078c-.922.016-.922.008-.924-.931a1.2,1.2,0,0,1,.952-1.262ZM30.94,99.324q-6.466-.015-12.934-.007c-4.3,0-8.59-.007-12.885.011-.414,0-.494-.113-.492-.506q.023-6.273,0-12.545c0-.36.066-.491.463-.49q12.957.019,25.915,0c.354,0,.418.114.418.438q-.016,6.321,0,12.642C31.435,99.282,31.287,99.325,30.94,99.324Zm4.026-18.953c-.031,1.033-.006,2.066-.012,3.1,0,.878-.359,1.231-1.237,1.231H2.334c-.881,0-1.229-.349-1.234-1.232-.006-1.049.018-2.1-.013-3.147-.012-.4.093-.509.5-.508q8.233.02,16.467.01c5.489,0,10.913.006,16.37-.012.456,0,.558.129.545.559Z" transform="translate(0 -57.929)" fill="#333"/>
    <path id="Path_315" data-name="Path 315" d="M151.767,0A4.535,4.535,0,1,0,156.2,4.57,4.545,4.545,0,0,0,151.767,0Zm-.183,7.98a3.451,3.451,0,1,1,.211-6.9,3.451,3.451,0,0,1-.212,6.9Z" transform="translate(-132.832 0)" fill="#333"/>
    <path id="Path_316" data-name="Path 316" d="M217.283,312.445c0-.417-.232-.606-.646-.6-.5.008-1,0-1.5,0-.484,0-.968.011-1.451,0a.572.572,0,0,0-.672.631q-.015,1.5,0,3a.57.57,0,0,0,.63.632q1.5,0,3,0a.559.559,0,0,0,.638-.615c0-1.015.006-2.03,0-3.046Zm-2.142,2.584q-1.022,0-1.022-1.072a.9.9,0,0,1,1.006-1.029.94.94,0,0,1,1.068,1.063A.923.923,0,0,1,215.141,315.029Z" transform="translate(-192.341 -281.61)" fill="#333"/>
    <path id="Path_317" data-name="Path 317" d="M102.144,314v-1.547a.529.529,0,0,0-.587-.6c-1.015,0-2.029,0-3.045,0a.557.557,0,0,0-.627.624q-.01,1.5,0,3a.567.567,0,0,0,.622.638c1.015,0,2.029.009,3.045,0a.538.538,0,0,0,.593-.605c0-.5,0-1,0-1.5Zm-2.134,1.032a.926.926,0,0,1-1.037-1.058.915.915,0,0,1,1.039-1.045.952.952,0,0,1,1.051,1.073.921.921,0,0,1-1.054,1.031Z" transform="translate(-88.376 -281.615)" fill="#333"/>
    <path id="Path_318" data-name="Path 318" d="M159.866,312.45a.543.543,0,0,0-.613-.591q-1.5.006-3,0c-.446,0-.645.22-.64.656,0,.485,0,.969,0,1.453,0,.5.006,1,0,1.5-.006.449.222.648.654.648h2.955a.571.571,0,0,0,.648-.617q.016-1.526,0-3.052Zm-2.118,2.594a.92.92,0,0,1-1.05-1.034.939.939,0,0,1,1.054-1.07,1.052,1.052,0,0,1,0,2.1Z" transform="translate(-140.507 -281.624)" fill="#333"/>
  </g>
</svg>
