<svg xmlns="http://www.w3.org/2000/svg" width="95.163" height="95.062" viewBox="0 0 95.163 95.062">
  <g id="sponsar" transform="translate(0.017 -0.007)">
    <path id="Path_319" data-name="Path 319" d="M94.481,267.3c-1.442-2.986-4.641-4.1-8.108-2.859a18.947,18.947,0,0,0-6.54,4.2,21.4,21.4,0,0,1-12.438,6.038c-.628.071-.795-.023-.9-.677a8,8,0,0,0-8.41-6.984,223.472,223.472,0,0,1-24.983-.31,23.178,23.178,0,0,0-11.848,1.754,31.78,31.78,0,0,0-8.361,5.718c-.44.412-.689.445-1.077-.022a18.552,18.552,0,0,0-1.311-1.323c-1.085-1.062-1.644-1.065-2.716-.019q-3.367,3.284-6.734,6.575c-1.421,1.387-1.425,1.835-.045,3.206l16.694,16.583q3.688,3.661,7.376,7.321c.867.858,1.538.954,2.292.218q3.823-3.732,7.588-7.523a1.323,1.323,0,0,0,.018-2.005,4.174,4.174,0,0,0-.712-.51c.061-.094.12-.188.181-.283h.96c6.8,0,13.6.061,20.393-.012a39.331,39.331,0,0,0,29.771-13.38c2.816-3.088,5.531-6.273,8.22-9.475a5.443,5.443,0,0,0,.689-6.23ZM31.7,298.538c-1.644,1.636-3.314,3.25-4.923,4.919-.579.6-.771.035-1.046-.235Q15.449,293.056,5.177,282.876c-.465-.459-.907-.946-1.4-1.371-.394-.342-.373-.561,0-.922,1.572-1.523,3.147-3.047,4.648-4.641.545-.579.787-.406,1.248.053q7.014,6.99,14.065,13.942,3.868,3.829,7.731,7.66a6.824,6.824,0,0,0,.648.5c-.2.214-.3.33-.414.437Zm60.1-26.953c-3.815,4.384-7.268,9.112-11.683,12.935a36.648,36.648,0,0,1-24.863,9.12c-3.367-.01-6.734,0-10.1,0-4.25,0-8.5-.018-12.748.016a2.176,2.176,0,0,1-1.7-.718q-7.867-7.87-15.784-15.692c-.463-.459-.567-.689-.008-1.174,3.595-3.12,7.484-5.655,12.289-6.471a20.887,20.887,0,0,1,4.986-.08,242.564,242.564,0,0,0,25.868.347,5.155,5.155,0,0,1,1.511,10.192,10.4,10.4,0,0,1-1.658.116c-5.818.008-11.636.018-17.454-.014-.8,0-1.158.108-1.111,1.046.088,1.75.022,1.754,1.754,1.754,5.622,0,11.243-.014,16.867,0,3.726.012,6.469-1.535,8.016-4.986a.706.706,0,0,1,.736-.463A23.47,23.47,0,0,0,81.5,270.942a17.423,17.423,0,0,1,5.679-3.748,4.411,4.411,0,0,1,2.965-.265c1.972.616,2.983,3.132,1.656,4.656Z" transform="translate(0 -212.147)" fill="#fff"/>
    <path id="Path_320" data-name="Path 320" d="M252.792,29.266a3.393,3.393,0,0,0-.014-5.706c-.153-.122-.318-.23-.469-.353-1.093-.881-1.114-1.016-.379-2.243.084-.139.182-.271.271-.408,1.5-2.363.883-4.256-1.713-5.286-.122-.047-.245-.088-.365-.137-1.892-.779-1.848-.339-1.37-2.565.6-2.8-.916-4.633-3.769-4.472A1.863,1.863,0,0,1,242.8,6.163c-.008-.1,0-.2-.018-.292a3.237,3.237,0,0,0-4.313-2.853c-.8.212-1.564,1.06-2.353.655-.718-.367-.928-1.376-1.4-2.074-1.215-1.782-2.757-2.08-4.523-.834a10.378,10.378,0,0,0-1.014.916c-1.042.965-1.293.975-2.325-.039-2.253-2.213-4.478-2.1-6.038.859-.842,1.6-.9,1.54-2.543.873-3.006-1.222-4.752.1-5.114,3.012-.216,1.737-.222,1.782-1.931,1.739-3.228-.082-4.65,1.633-3.952,4.762.03.128.059.255.1.381.267.877.128,1.511-.909,1.74a8.206,8.206,0,0,0-1.456.555,2.843,2.843,0,0,0-1.786,3.815,6.32,6.32,0,0,0,.722,1.487c.936,1.578,1.058,1.377-.443,2.545-2.468,1.923-2.508,4.221-.039,6.11,1.424,1.091,1.419,1.142.479,2.639-1.452,2.308-1.3,4.491,1.725,5.561,1.988.7,1.972.75,1.566,2.79-.52,2.61.856,4.3,3.483,4.287,2.127-.014,2.084,0,2.5,2.08.542,2.716,2.143,3.671,4.888,2.714a5.418,5.418,0,0,0,.8-.349.952.952,0,0,1,1.493.469,13.791,13.791,0,0,0,1.2,1.9,2.6,2.6,0,0,0,3.448.944,4.749,4.749,0,0,0,1.613-1.079c1.276-1.236,1.393-1.226,2.667-.037a6.722,6.722,0,0,0,.832.679c1.819,1.207,3.295.922,4.533-.865.149-.214.285-.438.418-.661a2.135,2.135,0,0,1,2.924-.981c2.247.889,4.148-.018,4.717-2.264a9.344,9.344,0,0,0,.141-.969c.257-1.772.312-1.815,2.088-1.652a3.344,3.344,0,0,0,3.881-4.15,2.552,2.552,0,0,1,1.719-3.039c2.468-1.011,3.073-2.9,1.656-5.184-1.164-1.874-1.219-1.67.561-3.073Zm-2.451-1.619c-1.937,1.584-2.257,3.293-.977,5.412q1.018,1.687-.914,2.333a3.724,3.724,0,0,0-2.684,4.723c.461,2.2.467,1.9-1.523,1.866-2.419-.041-3.738,1.115-4.046,3.557-.228,1.8-.281,1.835-1.935,1.162-2.4-.977-4.1-.359-5.282,1.917q-.824,1.591-2.188.355c-1.862-1.687-3.681-1.689-5.563-.006q-1.371,1.226-2.262-.414a3.612,3.612,0,0,0-5-1.848q-1.8.685-2.135-1.189c-.451-2.506-1.76-3.508-4.362-3.461-1.878.033-1.682.194-1.342-1.6.518-2.741-.28-4.215-2.935-5.076a5.724,5.724,0,0,0-.553-.186c-.8-.173-.891-.606-.485-1.248.208-.33.4-.671.592-1.013a3.577,3.577,0,0,0-.893-5.035q-1.589-1.372-.018-2.708a3.634,3.634,0,0,0,.887-5.119,1.552,1.552,0,0,1,.9-2.545,3.886,3.886,0,0,0,2.559-4.768c-.02-.1-.069-.184-.09-.279-.369-1.678-.363-1.684,1.326-1.629,2.753.088,4-.952,4.437-3.7q.267-1.678,1.829-1.038c2.545,1.042,4.046.443,5.4-2.015.832-1.517.614-1.64,2.05-.363,2.072,1.843,3.815,1.866,5.843-.012,1.193-1.1,1.242-1.095,1.992.328,1.328,2.527,2.855,3.1,5.463,2.039.181-.073.373-.124.544-.212.71-.369,1.089-.177,1.134.638.016.292.077.581.114.871.308,2.364,1.642,3.556,4.011,3.5,2.386-.051,1.97-.029,1.6,1.9-.457,2.376.4,3.93,2.675,4.715q1.862.642.832,2.368c-1.234,2.07-.9,3.8.967,5.341,1.635,1.344,1.66,1.113.039,2.437Z" transform="translate(-162.075 0)" fill="#fff"/>
    <path id="Path_321" data-name="Path 321" d="M290.138,73.034a1.407,1.407,0,0,0-1.311-1c-.259-.031-.512-.106-.769-.145-2.255-.351-4.509-.71-6.768-1.036a1.393,1.393,0,0,1-1.158-.861c-1.1-2.213-2.251-4.4-3.373-6.6-.314-.616-.706-1.113-1.474-1.089-.716.024-1.073.5-1.372,1.087-1.089,2.147-2.225,4.268-3.285,6.428A1.788,1.788,0,0,1,269.1,70.9c-2.357.332-4.7.748-7.056,1.1-.691.1-1.277.294-1.511,1.028s.184,1.232.661,1.711q2.631,2.634,5.247,5.286c.222.224.542.4.475.716-.026.184-.037.283-.053.379-.393,2.48-.765,4.962-1.189,7.435-.124.72-.184,1.383.453,1.87a1.746,1.746,0,0,0,2.015-.08c2.17-1.107,4.354-2.188,6.517-3.312a1.462,1.462,0,0,1,1.519-.018c2.19,1.146,4.409,2.233,6.61,3.357a1.438,1.438,0,0,0,2.255-1.613c-.387-2.315-.669-4.65-1.115-6.952a2.116,2.116,0,0,1,.7-2.215c1.709-1.615,3.334-3.318,4.99-4.988a1.479,1.479,0,0,0,.516-1.576Zm-8.486,5.688a2.212,2.212,0,0,0-.728,2.27c.361,1.913.606,3.846.922,5.908-1.719-.867-3.342-1.613-4.888-2.494a2.919,2.919,0,0,0-3.271-.02c-1.532.908-3.175,1.629-4.935,2.512.292-1.929.508-3.72.85-5.486a2.8,2.8,0,0,0-.906-2.969c-1.376-1.2-2.639-2.523-4.131-3.97a42.015,42.015,0,0,1,4.643-.752,3.966,3.966,0,0,0,3.968-2.788,42.327,42.327,0,0,1,2.113-4.2c.948,1.831,1.9,3.567,2.747,5.351a2.342,2.342,0,0,0,2.027,1.417c1.9.251,3.779.6,5.669.91.059.1.12.192.178.29-1.417,1.344-2.818,2.708-4.26,4.025Z" transform="translate(-209.368 -50.067)" fill="#fff"/>
  </g>
</svg>
