<svg xmlns="http://www.w3.org/2000/svg" width="42.981" height="42.935" viewBox="0 0 42.981 42.935">
  <g id="sponsar" transform="translate(0.017 -0.007)">
    <path id="Path_319" data-name="Path 319" d="M42.664,265.46A2.781,2.781,0,0,0,39,264.168a8.558,8.558,0,0,0-2.954,1.9,9.667,9.667,0,0,1-5.618,2.727c-.284.032-.359-.011-.406-.306a3.612,3.612,0,0,0-3.8-3.154,100.9,100.9,0,0,1-11.284-.14,10.469,10.469,0,0,0-5.351.792,14.353,14.353,0,0,0-3.776,2.582c-.2.186-.311.2-.487-.01a8.368,8.368,0,0,0-.592-.6c-.49-.479-.743-.481-1.227-.009q-1.521,1.484-3.042,2.97c-.642.627-.643.829-.02,1.448l7.54,7.49q1.666,1.654,3.331,3.307c.392.387.695.431,1.035.1q1.727-1.686,3.427-3.4a.6.6,0,0,0,.008-.906,1.888,1.888,0,0,0-.322-.23l.082-.128h.433c3.07,0,6.141.027,9.211-.005a17.764,17.764,0,0,0,13.446-6.043c1.272-1.395,2.5-2.833,3.712-4.28a2.458,2.458,0,0,0,.311-2.814ZM14.309,279.569c-.743.739-1.5,1.468-2.224,2.222-.261.271-.348.016-.472-.106q-4.645-4.592-9.284-9.189c-.21-.207-.409-.427-.632-.619-.178-.154-.168-.253,0-.417.71-.688,1.422-1.376,2.1-2.1.246-.261.355-.183.564.024q3.168,3.157,6.353,6.3,1.747,1.73,3.492,3.46a3.087,3.087,0,0,0,.292.228c-.091.1-.137.149-.187.2ZM41.452,267.4a55.734,55.734,0,0,1-5.277,5.842,16.552,16.552,0,0,1-11.23,4.119c-1.521,0-3.042,0-4.561,0-1.92,0-3.838-.008-5.758.007a.983.983,0,0,1-.769-.324q-3.553-3.555-7.129-7.087c-.209-.207-.256-.311,0-.53a11.38,11.38,0,0,1,5.551-2.923,9.434,9.434,0,0,1,2.252-.036,109.553,109.553,0,0,0,11.683.157,2.328,2.328,0,0,1,.682,4.6,4.707,4.707,0,0,1-.749.052c-2.628,0-5.255.008-7.883-.006-.363,0-.523.049-.5.472.04.791.01.792.792.792,2.539,0,5.078-.006,7.618,0a3.625,3.625,0,0,0,3.62-2.252.319.319,0,0,1,.332-.209,10.6,10.6,0,0,0,6.68-2.97,7.87,7.87,0,0,1,2.565-1.693,1.992,1.992,0,0,1,1.339-.12,1.366,1.366,0,0,1,.748,2.1Z" transform="translate(0 -240.546)" fill="#333"/>
    <path id="Path_320" data-name="Path 320" d="M224.735,13.222a1.533,1.533,0,0,0-.006-2.577c-.069-.055-.144-.1-.212-.16-.494-.4-.5-.459-.171-1.013.038-.063.082-.122.122-.184a1.445,1.445,0,0,0-.774-2.388c-.055-.021-.111-.04-.165-.062-.854-.352-.835-.153-.619-1.158a1.517,1.517,0,0,0-1.7-2.02.842.842,0,0,1-.988-.873c0-.044,0-.089-.008-.132a1.462,1.462,0,0,0-1.948-1.289c-.362.1-.706.479-1.063.3-.324-.166-.419-.621-.634-.937a1.3,1.3,0,0,0-2.043-.377,4.689,4.689,0,0,0-.458.414c-.471.436-.584.44-1.05-.018-1.017-1-2.022-.947-2.727.388-.38.721-.407.7-1.149.394-1.358-.552-2.146.047-2.31,1.36-.1.784-.1.8-.872.785-1.458-.037-2.1.737-1.785,2.151.013.058.027.115.043.172.121.4.058.682-.41.786a3.7,3.7,0,0,0-.658.251,1.284,1.284,0,0,0-.806,1.723,2.854,2.854,0,0,0,.326.672c.423.713.478.622-.2,1.149a1.557,1.557,0,0,0-.018,2.76c.643.493.641.516.216,1.192-.656,1.042-.589,2.029.779,2.512.9.317.891.339.707,1.26a1.468,1.468,0,0,0,1.573,1.936c.961-.006.941,0,1.128.939.245,1.227.968,1.658,2.208,1.226a2.448,2.448,0,0,0,.363-.158.43.43,0,0,1,.674.212,6.229,6.229,0,0,0,.542.856,1.173,1.173,0,0,0,1.557.426,2.145,2.145,0,0,0,.729-.487c.576-.558.629-.554,1.2-.017a3.035,3.035,0,0,0,.376.307,1.309,1.309,0,0,0,2.047-.391c.067-.1.129-.2.189-.3a.964.964,0,0,1,1.32-.443,1.461,1.461,0,0,0,2.131-1.023,4.205,4.205,0,0,0,.064-.438c.116-.8.141-.82.943-.746a1.511,1.511,0,0,0,1.753-1.874,1.153,1.153,0,0,1,.776-1.373,1.437,1.437,0,0,0,.748-2.341c-.526-.846-.55-.754.253-1.388Zm-1.107-.731a1.673,1.673,0,0,0-.441,2.444q.46.762-.413,1.054a1.682,1.682,0,0,0-1.212,2.133c.208.992.211.858-.688.843a1.617,1.617,0,0,0-1.827,1.607c-.1.814-.127.829-.874.525a1.662,1.662,0,0,0-2.386.866q-.372.719-.988.16a1.667,1.667,0,0,0-2.512,0q-.619.554-1.022-.187A1.632,1.632,0,0,0,209,21.1q-.812.309-.964-.537A1.682,1.682,0,0,0,206.069,19c-.848.015-.76.088-.606-.722a1.716,1.716,0,0,0-1.326-2.293,2.588,2.588,0,0,0-.25-.084c-.362-.078-.4-.274-.219-.564.094-.149.182-.3.268-.457a1.616,1.616,0,0,0-.4-2.274.7.7,0,0,1-.008-1.223,1.641,1.641,0,0,0,.4-2.312.7.7,0,0,1,.408-1.149,1.755,1.755,0,0,0,1.156-2.154c-.009-.043-.031-.083-.041-.126-.167-.758-.164-.76.6-.736a1.683,1.683,0,0,0,2-1.672q.121-.758.826-.469a1.665,1.665,0,0,0,2.438-.91c.376-.685.277-.741.926-.164a1.7,1.7,0,0,0,2.639-.005c.539-.5.561-.495.9.148a1.667,1.667,0,0,0,2.467.921c.082-.033.168-.056.245-.1.321-.167.492-.08.512.288.007.132.035.262.051.393a1.614,1.614,0,0,0,1.811,1.583c1.078-.023.89-.013.722.856a1.666,1.666,0,0,0,1.208,2.13q.841.29.376,1.07a1.675,1.675,0,0,0,.437,2.412c.738.607.75.5.018,1.1Z" transform="translate(-183.771 0)" fill="#333"/>
    <path id="Path_321" data-name="Path 321" d="M273.866,67.146a.636.636,0,0,0-.592-.452c-.117-.014-.231-.048-.347-.066-1.018-.159-2.037-.321-3.057-.468a.629.629,0,0,1-.523-.389c-.5-1-1.017-1.989-1.523-2.983-.142-.278-.319-.5-.666-.492-.323.011-.485.227-.619.491-.492.97-1.005,1.928-1.484,2.9a.808.808,0,0,1-.692.494c-1.064.15-2.123.338-3.187.5-.312.047-.577.133-.682.464s.083.557.3.773q1.188,1.19,2.37,2.388c.1.1.245.182.214.323-.012.083-.017.128-.024.171-.177,1.12-.346,2.241-.537,3.358-.056.325-.083.625.2.845a.788.788,0,0,0,.91-.036c.98-.5,1.967-.988,2.943-1.5a.66.66,0,0,1,.686-.008c.989.518,1.991,1.009,2.986,1.516a.649.649,0,0,0,1.018-.728c-.175-1.046-.3-2.1-.5-3.14a.956.956,0,0,1,.318-1c.772-.729,1.506-1.5,2.254-2.253a.668.668,0,0,0,.233-.712Zm-3.833,2.569a1,1,0,0,0-.329,1.025c.163.864.274,1.737.417,2.668-.776-.392-1.509-.728-2.208-1.126a1.318,1.318,0,0,0-1.477-.009c-.692.41-1.434.736-2.229,1.134.132-.871.23-1.68.384-2.478a1.263,1.263,0,0,0-.409-1.341c-.621-.541-1.192-1.14-1.866-1.793a18.976,18.976,0,0,1,2.1-.339A1.791,1.791,0,0,0,266.2,66.2a19.123,19.123,0,0,1,.954-1.9c.428.827.857,1.611,1.241,2.417a1.058,1.058,0,0,0,.915.64c.856.113,1.707.272,2.56.411.027.043.054.087.081.131-.64.607-1.273,1.223-1.924,1.818Z" transform="translate(-237.394 -56.769)" fill="#333"/>
  </g>
</svg>
