<svg xmlns="http://www.w3.org/2000/svg" width="66.41" height="41.549" viewBox="0 0 66.41 41.549">
  <g id="_7065198_humans_team_community_people_group_icon" data-name="7065198_humans_team_community_people_group_icon" transform="translate(-25.61 -111.82)">
    <path id="Path_304" data-name="Path 304" d="M284.515,327a.754.754,0,0,0-.755.755v9.032a.755.755,0,1,0,1.51,0v-9.031a.754.754,0,0,0-.755-.757Z" transform="translate(-220.952 -184.173)" fill="#333"/>
    <path id="Path_305" data-name="Path 305" d="M218.865,327a.754.754,0,0,0-.755.755v9.032a.755.755,0,1,0,1.51,0v-9.031a.754.754,0,0,0-.755-.757Z" transform="translate(-164.761 -184.173)" fill="#333"/>
    <path id="Path_306" data-name="Path 306" d="M394.365,283.06a.755.755,0,0,0-.755.757v7.225a.755.755,0,1,0,1.51,0v-7.225a.755.755,0,0,0-.755-.757Z" transform="translate(-314.973 -146.565)" fill="#333"/>
    <path id="Path_307" data-name="Path 307" d="M341.835,283.06a.755.755,0,0,0-.755.757v7.225a.755.755,0,0,0,1.51,0v-7.225a.755.755,0,0,0-.755-.757Z" transform="translate(-270.012 -146.565)" fill="#333"/>
    <path id="Path_308" data-name="Path 308" d="M161.575,283.06a.755.755,0,0,0-.755.757v7.225a.755.755,0,1,0,1.51,0v-7.225a.755.755,0,0,0-.755-.757Z" transform="translate(-115.727 -146.565)" fill="#333"/>
    <path id="Path_309" data-name="Path 309" d="M109.037,283.06a.757.757,0,0,0-.757.757v7.225a.757.757,0,0,0,1.512,0v-7.225a.755.755,0,0,0-.755-.757Z" transform="translate(-70.758 -146.565)" fill="#333"/>
    <path id="Path_310" data-name="Path 310" d="M88.466,118.353h-.049a3.98,3.98,0,0,0,.906-2.51,4.023,4.023,0,1,0-8.046,0,3.978,3.978,0,0,0,.906,2.51h-.048a3.558,3.558,0,0,0-3.555,3.553v3.99a4.7,4.7,0,0,0-5.141-.506v-3.484a3.556,3.556,0,0,0-3.552-3.553h-.05a3.98,3.98,0,0,0,.906-2.51,4.022,4.022,0,0,0-8.043,0,3.979,3.979,0,0,0,.9,2.51h-.042a3.556,3.556,0,0,0-3.553,3.553v6.484a5.868,5.868,0,0,0-1.166-.117,5.787,5.787,0,0,0-2.594.635v-7a3.556,3.556,0,0,0-3.553-3.553h-.049a3.979,3.979,0,0,0,.9-2.51,4.022,4.022,0,0,0-8.043,0,3.98,3.98,0,0,0,.906,2.51h-.049a3.558,3.558,0,0,0-3.555,3.553v3.015a4.512,4.512,0,0,0-3.764,1.023V121.91a3.558,3.558,0,0,0-3.555-3.553h-.048a3.978,3.978,0,0,0,.9-2.51,4.023,4.023,0,1,0-8.046,0,3.98,3.98,0,0,0,.907,2.51h-.049a3.558,3.558,0,0,0-3.553,3.553v5.764a.755.755,0,0,0,1.51,0V121.91a2.045,2.045,0,0,1,2.043-2.042h6.317a2.045,2.045,0,0,1,2.045,2.042v5.764a.736.736,0,0,0,.048.239,4.765,4.765,0,0,0,1,5.1h-.461a4.258,4.258,0,0,0-4.254,4.254v7.2a.755.755,0,1,0,1.51,0v-7.2a2.745,2.745,0,0,1,2.738-2.738h7.914a2.738,2.738,0,0,1,2.738,2.738v15.352a.757.757,0,0,0,1.512,0V143.6a3.621,3.621,0,0,1,3.617-3.615h9.891a3.621,3.621,0,0,1,3.617,3.615v9.015a.757.757,0,0,0,1.512,0V137.266a2.738,2.738,0,0,1,2.738-2.738h7.914a2.738,2.738,0,0,1,2.738,2.738v7.2a.755.755,0,1,0,1.51,0v-7.2a4.258,4.258,0,0,0-4.252-4.254h-.461a4.813,4.813,0,0,0,.961-5.209.756.756,0,0,0,.024-.127v-5.764a2.045,2.045,0,0,1,2.045-2.042h6.33a2.045,2.045,0,0,1,2.062,2.036v5.764a.755.755,0,1,0,1.51,0v-5.764A3.558,3.558,0,0,0,88.466,118.353ZM29.8,115.843a2.512,2.512,0,1,1,2.511,2.51A2.512,2.512,0,0,1,29.8,115.843Zm34.406,0a2.512,2.512,0,1,1,2.511,2.51,2.512,2.512,0,0,1-2.511-2.51Zm-1.025,18.283a4.349,4.349,0,1,1-4.349-4.349A4.349,4.349,0,0,1,63.186,134.126ZM47.008,115.843a2.51,2.51,0,1,1,2.51,2.51,2.51,2.51,0,0,1-2.51-2.51Zm-8.271,13.842a3.327,3.327,0,1,1,3.327,3.327A3.327,3.327,0,0,1,38.737,129.685Zm15.155,8.79a5.114,5.114,0,0,0-3.617,1.5v-2.706a4.258,4.258,0,0,0-4.254-4.254H45.56a4.794,4.794,0,0,0-1.249-7.587v-3.519a2.045,2.045,0,0,1,2.043-2.042h6.33a2.043,2.043,0,0,1,2.042,2.042v7.781a.749.749,0,0,0,.048.235,5.8,5.8,0,0,0,.173,8.554ZM67.4,137.267v2.7a5.114,5.114,0,0,0-3.617-1.5H62.728a5.8,5.8,0,0,0-1.215-9.529v-7.039a2.045,2.045,0,0,1,2.05-2.042H69.9a2.043,2.043,0,0,1,2.042,2.042v4.674a4.767,4.767,0,0,0,.184,6.431H71.66a4.258,4.258,0,0,0-4.261,4.254Zm4.883-7.581a3.327,3.327,0,1,1,3.327,3.327,3.327,3.327,0,0,1-3.327-3.327Zm10.506-13.842a2.512,2.512,0,1,1,2.511,2.51,2.512,2.512,0,0,1-2.511-2.51Z" fill="#333"/>
  </g>
</svg>
