<svg xmlns="http://www.w3.org/2000/svg" width="151.821" height="94.986" viewBox="0 0 151.821 94.986">
  <g id="_7065198_humans_team_community_people_group_icon" data-name="7065198_humans_team_community_people_group_icon" transform="translate(-25.61 -111.82)">
    <path id="Path_304" data-name="Path 304" d="M285.486,327a1.723,1.723,0,0,0-1.726,1.726v20.648a1.726,1.726,0,1,0,3.453,0V328.729A1.723,1.723,0,0,0,285.486,327Z" transform="translate(-173.109 -144.295)" fill="#fff"/>
    <path id="Path_305" data-name="Path 305" d="M219.836,327a1.723,1.723,0,0,0-1.726,1.726v20.648a1.726,1.726,0,1,0,3.452,0V328.729A1.723,1.723,0,0,0,219.836,327Z" transform="translate(-129.086 -144.295)" fill="#fff"/>
    <path id="Path_306" data-name="Path 306" d="M395.336,283.06a1.726,1.726,0,0,0-1.726,1.73v16.517a1.726,1.726,0,0,0,3.452,0V284.79a1.726,1.726,0,0,0-1.726-1.73Z" transform="translate(-246.772 -114.829)" fill="#fff"/>
    <path id="Path_307" data-name="Path 307" d="M342.806,283.06a1.726,1.726,0,0,0-1.726,1.73v16.517a1.726,1.726,0,0,0,3.453,0V284.79a1.726,1.726,0,0,0-1.726-1.73Z" transform="translate(-211.547 -114.829)" fill="#fff"/>
    <path id="Path_308" data-name="Path 308" d="M162.546,283.06a1.726,1.726,0,0,0-1.726,1.73v16.517a1.726,1.726,0,0,0,3.452,0V284.79a1.726,1.726,0,0,0-1.726-1.73Z" transform="translate(-90.669 -114.829)" fill="#fff"/>
    <path id="Path_309" data-name="Path 309" d="M110.01,283.06a1.73,1.73,0,0,0-1.73,1.73v16.517a1.729,1.729,0,0,0,3.456,0V284.79a1.726,1.726,0,0,0-1.726-1.73Z" transform="translate(-55.437 -114.829)" fill="#fff"/>
    <path id="Path_310" data-name="Path 310" d="M169.308,126.756H169.2a9.1,9.1,0,0,0,2.072-5.739,9.2,9.2,0,1,0-18.393,0,9.1,9.1,0,0,0,2.07,5.739h-.109a8.134,8.134,0,0,0-8.127,8.124V144a10.752,10.752,0,0,0-11.754-1.156V134.88a8.13,8.13,0,0,0-8.12-8.124h-.115a9.1,9.1,0,0,0,2.072-5.739,9.194,9.194,0,1,0-18.388,0,9.1,9.1,0,0,0,2.069,5.739h-.1a8.13,8.13,0,0,0-8.124,8.124V149.7a13.411,13.411,0,0,0-2.665-.267,13.228,13.228,0,0,0-5.93,1.453V134.88a8.13,8.13,0,0,0-8.124-8.124h-.112a9.1,9.1,0,0,0,2.069-5.739,9.194,9.194,0,1,0-18.388,0,9.1,9.1,0,0,0,2.072,5.739h-.112a8.133,8.133,0,0,0-8.127,8.124v6.892a10.314,10.314,0,0,0-8.6,2.339v-9.224a8.133,8.133,0,0,0-8.127-8.124H48.1a9.1,9.1,0,0,0,2.069-5.739,9.2,9.2,0,1,0-18.393,0,9.1,9.1,0,0,0,2.074,5.739h-.112a8.133,8.133,0,0,0-8.124,8.124v13.177a1.726,1.726,0,1,0,3.452,0V134.886a4.674,4.674,0,0,1,4.671-4.668H48.176a4.674,4.674,0,0,1,4.674,4.668v13.177a1.682,1.682,0,0,0,.109.547,10.894,10.894,0,0,0,2.276,11.652H54.181a9.735,9.735,0,0,0-9.725,9.725v16.471a1.726,1.726,0,0,0,3.452,0V169.986a6.275,6.275,0,0,1,6.259-6.259H72.26a6.259,6.259,0,0,1,6.259,6.259v35.1a1.729,1.729,0,0,0,3.456,0V184.474a8.278,8.278,0,0,1,8.269-8.265h22.612a8.278,8.278,0,0,1,8.269,8.265v20.609a1.729,1.729,0,0,0,3.456,0v-35.09a6.259,6.259,0,0,1,6.259-6.259H148.93a6.259,6.259,0,0,1,6.259,6.259v16.471a1.726,1.726,0,0,0,3.452,0V169.993a9.734,9.734,0,0,0-9.721-9.725h-1.054a11,11,0,0,0,2.2-11.909,1.732,1.732,0,0,0,.056-.29V134.893a4.674,4.674,0,0,1,4.675-4.668h14.472a4.674,4.674,0,0,1,4.714,4.655v13.177a1.726,1.726,0,1,0,3.452,0V134.88A8.133,8.133,0,0,0,169.308,126.756ZM35.2,121.018a5.742,5.742,0,1,1,5.741,5.739A5.742,5.742,0,0,1,35.2,121.018Zm78.656,0a5.742,5.742,0,1,1,5.741,5.739,5.742,5.742,0,0,1-5.741-5.739Zm-2.342,41.8a9.942,9.942,0,1,1-9.942-9.942A9.942,9.942,0,0,1,111.514,162.815Zm-36.984-41.8a5.739,5.739,0,1,1,5.739,5.739A5.739,5.739,0,0,1,74.529,121.018ZM55.62,152.662a7.606,7.606,0,1,1,7.606,7.606A7.606,7.606,0,0,1,55.62,152.662Zm34.645,20.095A11.692,11.692,0,0,0,82,176.18v-6.187a9.734,9.734,0,0,0-9.725-9.725H71.219a10.96,10.96,0,0,0-2.856-17.344V134.88a4.675,4.675,0,0,1,4.671-4.668H87.505a4.671,4.671,0,0,1,4.668,4.668v17.789a1.712,1.712,0,0,0,.109.537,13.269,13.269,0,0,0,.4,19.555Zm30.88-2.76v6.183a11.692,11.692,0,0,0-8.269-3.423h-2.411a13.256,13.256,0,0,0-2.777-21.785V134.88a4.675,4.675,0,0,1,4.688-4.668h14.475a4.671,4.671,0,0,1,4.668,4.668v10.686a10.9,10.9,0,0,0,.422,14.7h-1.054a9.734,9.734,0,0,0-9.741,9.725Zm11.164-17.331a7.606,7.606,0,1,1,7.606,7.606,7.606,7.606,0,0,1-7.606-7.606Zm24.018-31.644a5.742,5.742,0,1,1,5.741,5.739,5.742,5.742,0,0,1-5.741-5.739Z" transform="translate(0 0)" fill="#fff"/>
  </g>
</svg>
