<svg xmlns="http://www.w3.org/2000/svg" width="117.7" height="95.026" viewBox="0 0 117.7 95.026">
  <g id="staff" transform="translate(0 0.01)">
    <path id="Path_1286" data-name="Path 1286" d="M183.856,108.112a16.124,16.124,0,0,1,8.937,1.807,14.641,14.641,0,0,1,7.409,10.256c1.19,5.851,2.341,11.711,3.507,17.566.038.192.064.388.092.582a1.819,1.819,0,0,1-1.421,2.31,1.859,1.859,0,0,1-2.178-1.663c-.435-2.074-.818-4.16-1.237-6.236-.856-4.231-1.644-8.478-2.608-12.683a10.643,10.643,0,0,0-9.653-8.187,28.089,28.089,0,0,0-8.232.239,10.424,10.424,0,0,0-8.232,8.154c-1.457,6.149-2.7,12.347-4.032,18.524-.305,1.414-1.095,2.069-2.242,1.842a1.845,1.845,0,0,1-1.376-2.459c1.341-6.3,2.592-12.614,4.108-18.867a14.469,14.469,0,0,1,14.137-11.184C181.7,108.093,182.568,108.112,183.856,108.112Z" transform="translate(-124.084 -82.527)" fill="#fff"/>
    <path id="Path_1287" data-name="Path 1287" d="M338.709,263.155c-.508-2.977-.932-5.69-1.447-8.386a2.525,2.525,0,0,1,.752-2.441c1.934-2.015,3.817-4.079,5.652-6.049-2.433-.364-5.2-.816-7.979-1.173a2.434,2.434,0,0,1-2.062-1.5c-1.185-2.459-2.4-4.9-3.647-7.43a8.7,8.7,0,0,1-.679.884,1.769,1.769,0,0,1-2.171.343,1.59,1.59,0,0,1-.92-1.97,20.909,20.909,0,0,1,2.225-4.775c.788-1.239,2.474-.927,3.209.527,1.549,3.072,3.1,6.146,4.578,9.254a1.912,1.912,0,0,0,1.726,1.265c3.313.4,6.61.936,9.914,1.421.882.13,1.729.326,2.029,1.329a2.239,2.239,0,0,1-.875,2.389c-2.474,2.367-4.9,4.782-7.381,7.147a1.5,1.5,0,0,0-.494,1.547c.617,3.36,1.182,6.73,1.757,10.1.156.913.251,1.833-.676,2.441a2.3,2.3,0,0,1-2.542-.2c-3.006-1.6-6.03-3.171-9.031-4.782a1.353,1.353,0,0,0-1.514.007c-1.279.754-2.6,1.44-3.923,2.121-1.239.638-2.355.371-2.852-.631a1.954,1.954,0,0,1,1.09-2.616c1.684-.922,3.4-1.8,5.058-2.755a2.6,2.6,0,0,1,2.769.009c2.37,1.284,4.768,2.519,7.43,3.921Z" transform="translate(-245.979 -175.532)" fill="#fff"/>
    <path id="Path_1288" data-name="Path 1288" d="M77.938,236.289c-1.246,2.521-2.474,4.928-3.628,7.369a2.479,2.479,0,0,1-2.133,1.566c-2.75.35-5.491.8-7.963,1.166,1.722,1.847,3.46,3.817,5.321,5.664a3.127,3.127,0,0,1,1.041,3.242c-.5,2.18-.78,4.408-1.159,6.617a2.334,2.334,0,0,0-.012,1.242c2.417-1.263,4.827-2.478,7.189-3.777a2.652,2.652,0,0,1,2.871-.012c1.663.958,3.384,1.816,5.061,2.748a1.92,1.92,0,0,1,.981,2.651c-.516.958-1.577,1.206-2.772.591-1.324-.681-2.644-1.376-3.933-2.124a1.353,1.353,0,0,0-1.514-.038c-3.032,1.639-6.092,3.23-9.138,4.846a2.214,2.214,0,0,1-2.545.087c-.847-.615-.747-1.5-.6-2.367.572-3.37,1.142-6.742,1.762-10.1a1.5,1.5,0,0,0-.482-1.551c-2.507-2.4-4.966-4.839-7.468-7.237a2.146,2.146,0,0,1-.8-2.3c.281-.941,1.057-1.182,1.916-1.305,3.424-.492,6.844-1.015,10.273-1.469a1.6,1.6,0,0,0,1.391-1.043c1.49-3.1,3.039-6.179,4.55-9.273a2.069,2.069,0,0,1,1.953-1.44,2.016,2.016,0,0,1,1.819,1.45c.452,1,.927,1.986,1.383,2.982.674,1.469.527,2.457-.44,3.013s-1.93.192-2.925-1.2Z" transform="translate(-44.229 -175.644)" fill="#fff"/>
    <path id="Path_1289" data-name="Path 1289" d="M352.881,145.022a14.166,14.166,0,0,1,8.729,1.944,12.893,12.893,0,0,1,5.9,8.847q1.288,6.768,2.594,13.534c.038.192.05.39.073.584.177,1.348-.359,2.209-1.48,2.377-1.085.163-1.913-.537-2.159-1.842-.407-2.159-.8-4.323-1.211-6.482-.534-2.776-1.005-5.567-1.648-8.317a9.011,9.011,0,0,0-8.473-6.955c-1.613-.069-3.23-.061-4.843-.007a9.166,9.166,0,0,0-8.6,6.827c-.052.189-.111.378-.17.565a1.867,1.867,0,0,1-2.228,1.426,1.818,1.818,0,0,1-1.3-2.3,12.594,12.594,0,0,1,7.438-9.131,15.746,15.746,0,0,1,7.374-1.064Z" transform="translate(-258.073 -110.704)" fill="#fff"/>
    <path id="Path_1290" data-name="Path 1290" d="M41.268,145a13.6,13.6,0,0,1,9.649,2.684,12.5,12.5,0,0,1,4.675,7.412,1.846,1.846,0,0,1-1.284,2.405,1.9,1.9,0,0,1-2.256-1.551c-1.459-4.912-4.659-7.3-9.8-7.293-1.064,0-2.126-.014-3.19,0a9.3,9.3,0,0,0-9.3,7.906c-.847,4.635-1.748,9.261-2.632,13.889-.255,1.331-1.064,2.008-2.154,1.835-1.116-.177-1.7-1.048-1.45-2.384.948-5.094,1.8-10.212,2.947-15.265A12.65,12.65,0,0,1,38.43,145c.866-.035,1.733,0,2.835,0Z" transform="translate(-17.917 -110.68)" fill="#fff"/>
    <path id="Path_1291" data-name="Path 1291" d="M432.974,261.569c0,.466-.009.929-.012,1.4a55.525,55.525,0,0,1-4.737,4.758,1.589,1.589,0,0,0-.52,1.648c.371,1.807.641,3.635.951,5.453a1.9,1.9,0,0,1-2.937,2.159c-1.655-.889-3.349-1.712-4.983-2.642a1.5,1.5,0,0,0-1.7.021c-1.019.584-2.079,1.1-3.131,1.625a1.931,1.931,0,0,1-2.774-.631,1.977,1.977,0,0,1,1.14-2.7c1.495-.776,3.013-1.5,4.5-2.3a2.282,2.282,0,0,1,2.344.009c1.067.577,2.145,1.135,3.332,1.759-.21-1.251-.348-2.41-.612-3.54a2.442,2.442,0,0,1,.809-2.533c.821-.785,1.554-1.66,2.377-2.549-1.064-.151-2.195-.331-3.33-.473a2.35,2.35,0,0,1-2.154-1.556c-.218-.582-.594-1.1-.832-1.679-.4-.965-.7-1.79-2.145-1.521-1.13.211-1.949-1.135-1.53-2.325a15.593,15.593,0,0,1,1.348-2.864,1.8,1.8,0,0,1,3.233.21c.913,1.736,1.795,3.488,2.6,5.274a1.569,1.569,0,0,0,1.4,1.017c1.793.225,3.578.506,5.371.735a2.305,2.305,0,0,1,1.991,1.246Z" transform="translate(-315.274 -192.549)" fill="#fff"/>
    <path id="Path_1292" data-name="Path 1292" d="M.012,263.073c0-.466-.007-.929-.012-1.4a2.3,2.3,0,0,1,1.994-1.244c1.793-.227,3.578-.511,5.371-.738a1.581,1.581,0,0,0,1.4-1.024c.778-1.712,1.677-3.372,2.49-5.07a1.92,1.92,0,0,1,1.8-1.282,1.89,1.89,0,0,1,1.8,1.291c.322.714.691,1.407,1,2.126a1.9,1.9,0,0,1-.232,2.1,1.646,1.646,0,0,1-1.92.53c-.613-.227-.719.078-.913.485-.435.918-.958,1.8-1.341,2.739a2.4,2.4,0,0,1-2.164,1.547c-1.126.132-2.249.307-3.368.461.851.9,1.658,1.8,2.514,2.649a2.329,2.329,0,0,1,.735,2.336c-.255,1.147-.414,2.315-.641,3.64,1.152-.6,2.214-1.1,3.233-1.686a2.386,2.386,0,0,1,2.552-.028c1.44.79,2.932,1.485,4.392,2.242a2,2,0,0,1,1.149,2.705c-.5.991-1.6,1.213-2.878.579-.071-.035-.14-.073-.208-.109-1.22-.62-2.459-1.762-3.658-1.722-1.31.045-2.585,1.178-3.874,1.845-.731.378-1.452.776-2.185,1.149a1.879,1.879,0,0,1-2.112-.132,1.832,1.832,0,0,1-.643-1.908c.319-1.937.629-3.878,1.005-5.806a1.416,1.416,0,0,0-.456-1.443,67.545,67.545,0,0,1-4.824-4.843Z" transform="translate(0 -192.657)" fill="#fff"/>
    <path id="Path_1293" data-name="Path 1293" d="M192.948,221.425a2.1,2.1,0,0,0,.735-2.32c-.307-.87-1.083-1.126-1.968-1.249-4.517-.624-9.027-1.3-13.541-1.939a1.518,1.518,0,0,1-1.294-.965c-1.984-4.091-4.03-8.154-6.023-12.241-.409-.84-.9-1.495-1.9-1.5s-1.5.667-1.906,1.5c-1.991,4.082-4.023,8.145-6.012,12.229a1.546,1.546,0,0,1-1.308.981c-4.439.624-8.868,1.3-13.307,1.923-.984.137-1.882.279-2.228,1.383-.326,1.043.272,1.7.948,2.355,3.2,3.1,6.362,6.227,9.585,9.3a1.812,1.812,0,0,1,.572,1.859c-.773,4.332-1.478,8.679-2.277,13.009a2.608,2.608,0,0,0,.96,2.9h1.182a9.918,9.918,0,0,0,2.689-1.085c3.415-1.849,6.9-3.576,10.3-5.439a1.245,1.245,0,0,1,1.331-.111c1.485.884,3.055,1.613,4.593,2.393,2.826,1.431,5.479,3.212,8.5,4.243h.946c1.36-.584,1.634-1.123,1.369-2.672-.766-4.493-1.5-8.994-2.318-13.477a1.484,1.484,0,0,1,.53-1.523c3.287-3.174,6.544-6.378,9.833-9.549Zm-14.234,10.233c.636,3.514,1.211,7.043,1.807,10.564.059.345.1.693.18,1.2-3.018-1.584-6-2.958-8.776-4.668a5.018,5.018,0,0,0-5.929,0c-2.76,1.7-5.725,3.07-8.814,4.694.348-2.05.66-3.919.981-5.787.341-1.975.693-3.947,1.041-5.919a2.522,2.522,0,0,0-.806-2.441c-2.535-2.419-5.025-4.883-7.544-7.319a7.772,7.772,0,0,0-.944-.679c.061-.095.125-.189.187-.286,3.715-.544,7.426-1.133,11.15-1.6a2.985,2.985,0,0,0,2.618-1.821c1.625-3.429,3.33-6.82,5.082-10.384,1.759,3.566,3.46,6.913,5.058,10.309a3.051,3.051,0,0,0,2.687,1.9c3.7.461,7.39,1.055,11.094,1.6,0,.454-.376.6-.605.823q-3.831,3.767-7.7,7.5a2.348,2.348,0,0,0-.773,2.315Z" transform="translate(-110.024 -153.634)" fill="#fff"/>
    <path id="Path_1294" data-name="Path 1294" d="M223.7,11.552A11.712,11.712,0,0,0,212.732.229c-.272-.017-.646.192-.809-.239h-.473c-.274.5-.773.246-1.154.305a11.787,11.787,0,1,0,13.4,11.257Zm-11.836,8.483a8.09,8.09,0,1,1,8.159-8.142,8.113,8.113,0,0,1-8.159,8.142Z" transform="translate(-152.837)" fill="#fff"/>
    <path id="Path_1295" data-name="Path 1295" d="M367.267,52.8a10.372,10.372,0,1,0,10.361,10.361A10.355,10.355,0,0,0,367.267,52.8Zm6.674,10.552a6.691,6.691,0,1,1-6.6-6.891,6.741,6.741,0,0,1,6.6,6.891Z" transform="translate(-272.489 -40.321)" fill="#fff"/>
    <path id="Path_1296" data-name="Path 1296" d="M63.7,52.792A10.372,10.372,0,1,0,73.867,63.441,10.394,10.394,0,0,0,63.7,52.792Zm-.22,17.077A6.71,6.71,0,1,1,70.2,63.226,6.731,6.731,0,0,1,63.478,69.869Z" transform="translate(-40.57 -40.311)" fill="#fff"/>
  </g>
</svg>
